<?xml version="1.0" encoding="UTF-8" standalone="no"?>
<svg
   xmlns:dc="http://purl.org/dc/elements/1.1/"
   xmlns:cc="http://creativecommons.org/ns#"
   xmlns:rdf="http://www.w3.org/1999/02/22-rdf-syntax-ns#"
   xmlns:svg="http://www.w3.org/2000/svg"
   xmlns="http://www.w3.org/2000/svg"
   xmlns:sodipodi="http://sodipodi.sourceforge.net/DTD/sodipodi-0.dtd"
   xmlns:inkscape="http://www.inkscape.org/namespaces/inkscape"
   version="1.1"
   viewBox="0 0 48 48"
   id="svg8"
   sodipodi:docname="sbMiniconda48.svg"
   inkscape:version="1.0.2 (e86c870879, 2021-01-15)">
  <metadata
     id="metadata14">
    <rdf:RDF>
      <cc:Work
         rdf:about="">
        <dc:format>image/svg+xml</dc:format>
        <dc:type
           rdf:resource="http://purl.org/dc/dcmitype/StillImage" />
        <dc:title></dc:title>
      </cc:Work>
    </rdf:RDF>
  </metadata>
  <defs
     id="defs12" />
  <sodipodi:namedview
     pagecolor="#ffffff"
     bordercolor="#666666"
     borderopacity="1"
     objecttolerance="10"
     gridtolerance="10"
     guidetolerance="10"
     inkscape:pageopacity="0"
     inkscape:pageshadow="2"
     inkscape:window-width="1684"
     inkscape:window-height="1091"
     id="namedview10"
     showgrid="false"
     inkscape:zoom="14.895833"
     inkscape:cx="24"
     inkscape:cy="24"
     inkscape:window-x="0"
     inkscape:window-y="0"
     inkscape:window-maximized="0"
     inkscape:current-layer="svg8" />
  <style
     id="style2">.st0{fill:#eff0f1}</style>
  <path
     class="st0"
     d="m 8.3425351,29.533741 c -0.6608869,1.320728 -1.195908,2.704372 -1.6364881,4.119431 1.4791559,0.408802 2.9583118,0.691814 4.468884,0.817595 0.03147,-1.19498 0.125883,-2.327044 0.28324,-3.459026 C 10.388179,30.60294 9.3496028,30.09984 8.3425267,29.533766 Z M 14.384991,14.313995 c -0.88116,0 -1.730904,0.06289 -2.612064,0.18868 0.125882,0.880485 0.251765,1.729554 0.472063,2.61004 0.597946,-1.006233 1.32174,-1.918218 2.140068,-2.735788 z M 7.3040426,35.036983 c 1.1329918,1.729554 2.5491482,3.270362 4.1541364,4.559674 -0.157357,-1.352144 -0.28324,-2.641456 -0.28324,-3.930768 C 9.8531158,35.540108 8.5628751,35.319986 7.3039676,35.036966 Z M 17.532302,5.0691488 c -1.573572,0.5345828 -3.021228,1.2578124 -4.405968,2.1382977 1.038575,0.1886802 2.045651,0.4088016 3.052644,0.7232547 0.377656,-0.9748171 0.849744,-1.9182181 1.35324,-2.861619 z M 24.015338,4 c -0.786778,0 -1.542072,0.062892 -2.2974,0.1257812 1.069992,0.7547041 2.077068,1.540891 3.052644,2.4213763 l 0.786778,0.7232547 -0.786778,0.7861535 c -0.660895,0.6289229 -1.290324,1.2893119 -1.888236,2.0125503 v 0.03145 c 0,0 -0.125882,0.125781 -0.314706,0.345903 0.472063,-0.06289 0.94416,-0.06289 1.447656,-0.06289 7.521529,0 13.626568,6.100565 13.626568,13.61644 0,7.515874 -6.105373,13.616439 -13.626568,13.616439 -2.612064,0 -5.066796,-0.723254 -7.143948,-2.012549 -1.038576,0.125781 -2.045652,0.18868 -3.084144,0.18868 -0.472063,0 -0.94416,0 -1.447656,-0.03145 0.03147,1.540891 0.188823,3.144615 0.440596,4.811253 C 15.990204,42.742188 19.829677,44 23.98423,44 35.030816,44 43.999917,35.037649 43.999917,24.000333 44.031387,12.963017 35.062482,4.0006667 24.015896,4.0006667 Z"
     fill="#eff0f1"
     stroke-width="0.314588"
     id="path4" />
  <path
     class="st0"
     d="m 21.340274,8.7160881 c 0.409122,-0.4716922 0.818244,-0.943401 1.227408,-1.3836436 -0.94416,-0.7861536 -1.919736,-1.540891 -2.958312,-2.1697972 -0.629421,1.0691488 -1.195908,2.2012133 -1.667988,3.3332778 0.91266,0.3459109 1.79382,0.7232546 2.643564,1.1320644 0.409122,-0.5031332 0.692362,-0.8175947 0.755303,-0.9119014 z M 10.105356,14.722238 c -1.4791563,0.251571 -2.9268125,0.660364 -4.3429688,1.163481 0.5664792,1.446475 1.2903239,2.861619 2.108568,4.182347 0.9441598,-0.660364 1.919736,-1.289312 2.9268118,-1.823887 -0.314706,-1.16348 -0.535004,-2.327044 -0.692361,-3.521941 z M 7.4932913,22.269279 C 6.423299,23.149764 5.416223,24.093165 4.4720632,25.162314 5.510639,26.074215 6.612131,26.891868 7.7765392,27.646523 8.3115436,26.703122 8.909531,25.759721 9.538943,24.879235 8.8465814,24.061641 8.1542031,23.18118 7.4932913,22.269196 Z m 5.0982967,9.182347 c -0.125883,1.006233 -0.220299,2.043966 -0.251765,3.113115 1.007076,0.06289 2.014152,0.06289 3.021228,0 -1.069993,-0.880486 -2.014152,-1.918218 -2.76948,-3.113115 z M 15.5184,9.6911551 C 14.259575,9.3452442 12.969251,9.0622323 11.678927,8.9050016 11.553045,10.22573 11.553045,11.515041 11.647457,12.80427 c 1.038575,-0.125781 2.045652,-0.18868 3.084144,-0.18868 0.188824,-1.006233 0.472063,-1.981134 0.786778,-2.9244515 z m 1.79382,0.5660239 c -0.251765,0.754704 -0.472063,1.509392 -0.660895,2.264129 0.88116,-0.566024 1.82532,-1.037733 2.800896,-1.383644 -0.692362,-0.314461 -1.416156,-0.597473 -2.140068,-0.880485 z M 4.1573155,26.671905 C 4.4090804,28.62154 4.9440931,30.476842 5.7308874,32.17498 6.1400094,31.042916 6.6120477,29.910851 7.1470438,28.841703 6.108468,28.181339 5.1328918,27.458059 4.1573155,26.671905 Z M 9.9165236,9.8171864 C 8.7206157,11.012166 7.6821232,12.332894 6.8008796,13.77937 7.8394554,13.464909 8.8779479,13.213346 9.9479401,13.024666 9.8849991,11.955517 9.8535241,10.886369 9.9164651,9.8171364 Z M 8.7206157,21.357827 c 0.503538,0.723255 1.0699922,1.446476 1.6679883,2.138298 0.06294,-1.257812 0.251764,-2.452792 0.62942,-3.616273 -0.786778,0.440243 -1.5735719,0.943401 -2.2974,1.477975 z m 0.2517648,6.949551 C 9.8221243,28.77907 10.671785,29.21928 11.584445,29.59669 11.04944,28.433209 10.703285,27.206813 10.514453,25.886085 9.9479734,26.672239 9.4444604,27.489809 8.9723805,28.307462 Z M 6.6435641,21.011916 C 6.0141437,20.005683 5.4476561,18.967951 4.9441598,17.867302 4.3776806,19.628273 4.0314998,21.515075 4,23.433209 4.8497438,22.552724 5.7309041,21.735154 6.6435641,21.011833 Z"
     fill="#eff0f1"
     stroke-width="0.314588"
     id="path6" />
</svg>
