<?xml version="1.0" encoding="UTF-8" standalone="no"?>
<!DOCTYPE svg PUBLIC "-//W3C//DTD SVG 1.1//EN"
 "http://www.w3.org/Graphics/SVG/1.1/DTD/svg11.dtd">
<!-- Generated by graphviz version 2.43.0 (0)
 -->
<!-- Title: Tree Pages: 1 -->
<svg width="3660pt" height="646pt"
 viewBox="0.00 0.00 3660.17 646.42" xmlns="http://www.w3.org/2000/svg" xmlns:xlink="http://www.w3.org/1999/xlink">
<g id="graph0" class="graph" transform="scale(1 1) rotate(0) translate(18 628.42)">
<title>Tree</title>
<polygon fill="white" stroke="transparent" points="-18,18 -18,-628.42 3642.17,-628.42 3642.17,18 -18,18"/>
<!-- 0 -->
<g id="node1" class="node">
<title>0</title>
<polygon fill="white" stroke="transparent" points="1512.09,-610.42 1458.09,-610.42 1458.09,-574.42 1512.09,-574.42 1512.09,-610.42"/>
<text text-anchor="middle" x="1485.09" y="-588.72" font-family="Helvetica,sans-Serif" font-size="14.00">0</text>
</g>
<!-- 1 -->
<g id="node2" class="node">
<title>1</title>
<polygon fill="#cc3d3d" stroke="black" points="1568.59,-537.42 1401.59,-537.42 1401.59,-473.42 1568.59,-473.42 1568.59,-537.42"/>
<text text-anchor="start" x="1446.59" y="-523.22" font-family="Helvetica,sans-Serif" font-weight="bold" font-size="14.00"> Class=L </text>
<text text-anchor="start" x="1518.59" y="-523.22" font-family="Helvetica,sans-Serif" font-size="14.00"> </text>
<text text-anchor="start" x="1411.09" y="-509.22" font-family="Helvetica,sans-Serif" font-size="14.00"> error: 0.832, n=625 </text>
<text text-anchor="start" x="1409.59" y="-495.22" font-family="Helvetica,sans-Serif" font-size="14.00"> p: (0.08, 0.46, 0.46) </text>
<text text-anchor="start" x="1441.59" y="-481.22" font-family="Helvetica,sans-Serif" font-weight="bold" font-size="14.00">left&#45;weight</text>
</g>
<!-- 0&#45;&gt;1 -->
<!-- 2 -->
<g id="node3" class="node">
<title>2</title>
<polygon fill="#e5d544" stroke="black" points="1244.59,-422.42 1077.59,-422.42 1077.59,-358.42 1244.59,-358.42 1244.59,-422.42"/>
<text text-anchor="start" x="1122.59" y="-408.22" font-family="Helvetica,sans-Serif" font-weight="bold" font-size="14.00"> Class=L </text>
<text text-anchor="start" x="1194.59" y="-408.22" font-family="Helvetica,sans-Serif" font-size="14.00"> </text>
<text text-anchor="start" x="1087.09" y="-394.22" font-family="Helvetica,sans-Serif" font-size="14.00"> error: 0.783, n=375 </text>
<text text-anchor="start" x="1085.59" y="-380.22" font-family="Helvetica,sans-Serif" font-size="14.00"> p: (0.07, 0.61, 0.32) </text>
<text text-anchor="start" x="1111.09" y="-366.22" font-family="Helvetica,sans-Serif" font-weight="bold" font-size="14.00">left&#45;distance</text>
</g>
<!-- 1&#45;&gt;2 -->
<g id="edge2" class="edge">
<title>1:s&#45;&gt;2:n</title>
<path fill="none" stroke="black" d="M1485.09,-473.42C1485.09,-473.42 1225.83,-432.61 1171.14,-424"/>
<polygon fill="black" stroke="black" points="1171.51,-420.52 1161.09,-422.42 1170.42,-427.43 1171.51,-420.52"/>
<text text-anchor="middle" x="1375.09" y="-444.22" font-family="Helvetica,sans-Serif" font-size="14.00">&gt; 2</text>
</g>
<!-- 15 -->
<g id="node4" class="node">
<title>15</title>
<polygon fill="#e5d544" stroke="black" points="2019.59,-422.42 1852.59,-422.42 1852.59,-358.42 2019.59,-358.42 2019.59,-422.42"/>
<text text-anchor="start" x="1897.09" y="-408.22" font-family="Helvetica,sans-Serif" font-weight="bold" font-size="14.00"> Class=R </text>
<text text-anchor="start" x="1970.09" y="-408.22" font-family="Helvetica,sans-Serif" font-size="14.00"> </text>
<text text-anchor="start" x="1862.09" y="-394.22" font-family="Helvetica,sans-Serif" font-size="14.00"> error: 0.742, n=250 </text>
<text text-anchor="start" x="1860.59" y="-380.22" font-family="Helvetica,sans-Serif" font-size="14.00"> p: (0.08, 0.24, 0.68) </text>
<text text-anchor="start" x="1887.59" y="-366.22" font-family="Helvetica,sans-Serif" font-weight="bold" font-size="14.00">right&#45;weight</text>
</g>
<!-- 1&#45;&gt;15 -->
<g id="edge3" class="edge">
<title>1:s&#45;&gt;15:n</title>
<path fill="none" stroke="black" d="M1485.09,-473.42C1485.09,-473.42 1858.69,-431.17 1925.82,-423.58"/>
<polygon fill="black" stroke="black" points="1926.54,-427.02 1936.09,-422.42 1925.76,-420.07 1926.54,-427.02"/>
<text text-anchor="middle" x="1784.09" y="-444.22" font-family="Helvetica,sans-Serif" font-size="14.00">&lt;= 2</text>
</g>
<!-- 3 -->
<g id="node5" class="node">
<title>3</title>
<polygon fill="#59cc3d" stroke="black" points="817.59,-307.42 650.59,-307.42 650.59,-243.42 817.59,-243.42 817.59,-307.42"/>
<text text-anchor="start" x="695.59" y="-293.22" font-family="Helvetica,sans-Serif" font-weight="bold" font-size="14.00"> Class=L </text>
<text text-anchor="start" x="767.59" y="-293.22" font-family="Helvetica,sans-Serif" font-size="14.00"> </text>
<text text-anchor="start" x="660.09" y="-279.22" font-family="Helvetica,sans-Serif" font-size="14.00"> error: 0.606, n=225 </text>
<text text-anchor="start" x="658.59" y="-265.22" font-family="Helvetica,sans-Serif" font-size="14.00"> p: (0.07, 0.78, 0.16) </text>
<text text-anchor="start" x="685.59" y="-251.22" font-family="Helvetica,sans-Serif" font-weight="bold" font-size="14.00">right&#45;weight</text>
</g>
<!-- 2&#45;&gt;3 -->
<g id="edge4" class="edge">
<title>2:s&#45;&gt;3:n</title>
<path fill="none" stroke="black" d="M1161.09,-358.42C1161.09,-358.42 808.88,-316.35 744.22,-308.63"/>
<polygon fill="black" stroke="black" points="744.43,-305.13 734.09,-307.42 743.6,-312.08 744.43,-305.13"/>
<text text-anchor="middle" x="1012.09" y="-329.22" font-family="Helvetica,sans-Serif" font-size="14.00">&gt; 2</text>
</g>
<!-- 8 -->
<g id="node6" class="node">
<title>8</title>
<polygon fill="#59cc3d" stroke="black" points="1244.59,-307.42 1077.59,-307.42 1077.59,-243.42 1244.59,-243.42 1244.59,-307.42"/>
<text text-anchor="start" x="1122.09" y="-293.22" font-family="Helvetica,sans-Serif" font-weight="bold" font-size="14.00"> Class=R </text>
<text text-anchor="start" x="1195.09" y="-293.22" font-family="Helvetica,sans-Serif" font-size="14.00"> </text>
<text text-anchor="start" x="1087.09" y="-279.22" font-family="Helvetica,sans-Serif" font-size="14.00"> error: 0.823, n=150 </text>
<text text-anchor="start" x="1085.59" y="-265.22" font-family="Helvetica,sans-Serif" font-size="14.00"> p: (0.09, 0.35, 0.56) </text>
<text text-anchor="start" x="1112.59" y="-251.22" font-family="Helvetica,sans-Serif" font-weight="bold" font-size="14.00">right&#45;weight</text>
</g>
<!-- 2&#45;&gt;8 -->
<g id="edge5" class="edge">
<title>2:s&#45;&gt;8:n</title>
<path fill="none" stroke="black" d="M1161.09,-358.42C1161.09,-358.42 1161.09,-332.64 1161.09,-317.74"/>
<polygon fill="black" stroke="black" points="1164.59,-317.42 1161.09,-307.42 1157.59,-317.42 1164.59,-317.42"/>
<text text-anchor="middle" x="1180.09" y="-329.22" font-family="Helvetica,sans-Serif" font-size="14.00">&lt;= 2</text>
</g>
<!-- 16 -->
<g id="node17" class="node">
<title>16</title>
<polygon fill="#59cc3d" stroke="black" points="2019.59,-307.42 1852.59,-307.42 1852.59,-243.42 2019.59,-243.42 2019.59,-307.42"/>
<text text-anchor="start" x="1897.09" y="-293.22" font-family="Helvetica,sans-Serif" font-weight="bold" font-size="14.00"> Class=R </text>
<text text-anchor="start" x="1970.09" y="-293.22" font-family="Helvetica,sans-Serif" font-size="14.00"> </text>
<text text-anchor="start" x="1862.09" y="-279.22" font-family="Helvetica,sans-Serif" font-size="14.00"> error: 0.488, n=150 </text>
<text text-anchor="start" x="1860.59" y="-265.22" font-family="Helvetica,sans-Serif" font-size="14.00"> p: (0.05, 0.11, 0.84) </text>
<text text-anchor="start" x="1880.59" y="-251.22" font-family="Helvetica,sans-Serif" font-weight="bold" font-size="14.00">right&#45;distance</text>
</g>
<!-- 15&#45;&gt;16 -->
<g id="edge16" class="edge">
<title>15:s&#45;&gt;16:n</title>
<path fill="none" stroke="black" d="M1936.09,-358.42C1936.09,-358.42 1936.09,-332.64 1936.09,-317.74"/>
<polygon fill="black" stroke="black" points="1939.59,-317.42 1936.09,-307.42 1932.59,-317.42 1939.59,-317.42"/>
<text text-anchor="middle" x="1949.09" y="-329.22" font-family="Helvetica,sans-Serif" font-size="14.00">&gt; 2</text>
</g>
<!-- 21 -->
<g id="node18" class="node">
<title>21</title>
<polygon fill="#59cc3d" stroke="black" points="2793.59,-307.42 2626.59,-307.42 2626.59,-243.42 2793.59,-243.42 2793.59,-307.42"/>
<text text-anchor="start" x="2671.59" y="-293.22" font-family="Helvetica,sans-Serif" font-weight="bold" font-size="14.00"> Class=L </text>
<text text-anchor="start" x="2743.59" y="-293.22" font-family="Helvetica,sans-Serif" font-size="14.00"> </text>
<text text-anchor="start" x="2636.09" y="-279.22" font-family="Helvetica,sans-Serif" font-size="14.00"> error: 0.911, n=100 </text>
<text text-anchor="start" x="2634.59" y="-265.22" font-family="Helvetica,sans-Serif" font-size="14.00"> p: (0.14, 0.43, 0.43) </text>
<text text-anchor="start" x="2660.09" y="-251.22" font-family="Helvetica,sans-Serif" font-weight="bold" font-size="14.00">left&#45;distance</text>
</g>
<!-- 15&#45;&gt;21 -->
<g id="edge17" class="edge">
<title>15:s&#45;&gt;21:n</title>
<path fill="none" stroke="black" d="M1936.09,-358.42C1936.09,-358.42 2609.29,-314.06 2700.02,-308.08"/>
<polygon fill="black" stroke="black" points="2700.34,-311.57 2710.09,-307.42 2699.88,-304.59 2700.34,-311.57"/>
<text text-anchor="middle" x="2435.09" y="-329.22" font-family="Helvetica,sans-Serif" font-size="14.00">&lt;= 2</text>
</g>
<!-- 4 -->
<g id="node7" class="node">
<title>4</title>
<polygon fill="#44e5b5" stroke="black" points="509.59,-189.07 342.59,-189.07 342.59,-125.07 509.59,-125.07 509.59,-189.07"/>
<text text-anchor="start" x="387.59" y="-174.87" font-family="Helvetica,sans-Serif" font-weight="bold" font-size="14.00"> Class=L </text>
<text text-anchor="start" x="459.59" y="-174.87" font-family="Helvetica,sans-Serif" font-size="14.00"> </text>
<text text-anchor="start" x="352.09" y="-160.87" font-family="Helvetica,sans-Serif" font-size="14.00"> error: 0.800, n=135 </text>
<text text-anchor="start" x="350.59" y="-146.87" font-family="Helvetica,sans-Serif" font-size="14.00"> p: (0.11, 0.64, 0.25) </text>
<text text-anchor="start" x="370.59" y="-132.87" font-family="Helvetica,sans-Serif" font-weight="bold" font-size="14.00">right&#45;distance</text>
</g>
<!-- 3&#45;&gt;4 -->
<g id="edge6" class="edge">
<title>3:s&#45;&gt;4:n</title>
<path fill="none" stroke="black" d="M734.09,-243.42C734.09,-243.42 488.7,-200.91 435.99,-191.78"/>
<polygon fill="black" stroke="black" points="436.54,-188.32 426.09,-190.07 435.34,-195.22 436.54,-188.32"/>
<text text-anchor="middle" x="639.09" y="-214.22" font-family="Helvetica,sans-Serif" font-size="14.00">&gt; 2</text>
</g>
<!-- 7 -->
<g id="node8" class="node">
<title>7</title>
<ellipse fill="#44e5b5" stroke="black" cx="734.09" cy="-157.07" rx="118.17" ry="35.21"/>
<text text-anchor="start" x="695.59" y="-167.87" font-family="Helvetica,sans-Serif" font-weight="bold" font-size="14.00"> Class=L </text>
<text text-anchor="start" x="767.59" y="-167.87" font-family="Helvetica,sans-Serif" font-size="14.00"> </text>
<text text-anchor="start" x="664.59" y="-153.87" font-family="Helvetica,sans-Serif" font-size="14.00"> error: 0.056, n=90 </text>
<text text-anchor="start" x="658.59" y="-139.87" font-family="Helvetica,sans-Serif" font-size="14.00"> p: (0.00, 0.99, 0.01) </text>
</g>
<!-- 3&#45;&gt;7 -->
<g id="edge7" class="edge">
<title>3:s&#45;&gt;7:n</title>
<path fill="none" stroke="black" d="M734.09,-243.42C734.09,-243.42 734.09,-217.64 734.09,-202.74"/>
<polygon fill="black" stroke="black" points="737.59,-202.42 734.09,-192.42 730.59,-202.42 737.59,-202.42"/>
<text text-anchor="middle" x="753.09" y="-214.22" font-family="Helvetica,sans-Serif" font-size="14.00">&lt;= 2</text>
</g>
<!-- 9 -->
<g id="node11" class="node">
<title>9</title>
<polygon fill="#44e5b5" stroke="black" points="1125.59,-189.07 958.59,-189.07 958.59,-125.07 1125.59,-125.07 1125.59,-189.07"/>
<text text-anchor="start" x="1003.09" y="-174.87" font-family="Helvetica,sans-Serif" font-weight="bold" font-size="14.00"> Class=R </text>
<text text-anchor="start" x="1076.09" y="-174.87" font-family="Helvetica,sans-Serif" font-size="14.00"> </text>
<text text-anchor="start" x="972.59" y="-160.87" font-family="Helvetica,sans-Serif" font-size="14.00"> error: 0.637, n=90 </text>
<text text-anchor="start" x="966.59" y="-146.87" font-family="Helvetica,sans-Serif" font-size="14.00"> p: (0.07, 0.18, 0.76) </text>
<text text-anchor="start" x="986.59" y="-132.87" font-family="Helvetica,sans-Serif" font-weight="bold" font-size="14.00">right&#45;distance</text>
</g>
<!-- 8&#45;&gt;9 -->
<g id="edge10" class="edge">
<title>8:s&#45;&gt;9:n</title>
<path fill="none" stroke="black" d="M1161.09,-243.42C1161.09,-243.42 1079.48,-206.83 1051.42,-194.25"/>
<polygon fill="black" stroke="black" points="1052.64,-190.96 1042.09,-190.07 1049.78,-197.35 1052.64,-190.96"/>
<text text-anchor="middle" x="1133.09" y="-214.22" font-family="Helvetica,sans-Serif" font-size="14.00">&gt; 2</text>
</g>
<!-- 12 -->
<g id="node12" class="node">
<title>12</title>
<polygon fill="#44e5b5" stroke="black" points="1433.59,-189.07 1266.59,-189.07 1266.59,-125.07 1433.59,-125.07 1433.59,-189.07"/>
<text text-anchor="start" x="1311.59" y="-174.87" font-family="Helvetica,sans-Serif" font-weight="bold" font-size="14.00"> Class=L </text>
<text text-anchor="start" x="1383.59" y="-174.87" font-family="Helvetica,sans-Serif" font-size="14.00"> </text>
<text text-anchor="start" x="1280.59" y="-160.87" font-family="Helvetica,sans-Serif" font-size="14.00"> error: 0.820, n=60 </text>
<text text-anchor="start" x="1274.59" y="-146.87" font-family="Helvetica,sans-Serif" font-size="14.00"> p: (0.12, 0.62, 0.27) </text>
<text text-anchor="start" x="1294.59" y="-132.87" font-family="Helvetica,sans-Serif" font-weight="bold" font-size="14.00">right&#45;distance</text>
</g>
<!-- 8&#45;&gt;12 -->
<g id="edge11" class="edge">
<title>8:s&#45;&gt;12:n</title>
<path fill="none" stroke="black" d="M1161.09,-243.42C1161.09,-243.42 1301.94,-203.66 1340.45,-192.79"/>
<polygon fill="black" stroke="black" points="1341.41,-196.15 1350.09,-190.07 1339.51,-189.41 1341.41,-196.15"/>
<text text-anchor="middle" x="1292.09" y="-214.22" font-family="Helvetica,sans-Serif" font-size="14.00">&lt;= 2</text>
</g>
<!-- 5 -->
<g id="node9" class="node">
<title>5</title>
<ellipse fill="#3d76cc" stroke="black" cx="118.09" cy="-35.36" rx="118.17" ry="35.21"/>
<text text-anchor="start" x="79.59" y="-46.16" font-family="Helvetica,sans-Serif" font-weight="bold" font-size="14.00"> Class=L </text>
<text text-anchor="start" x="151.59" y="-46.16" font-family="Helvetica,sans-Serif" font-size="14.00"> </text>
<text text-anchor="start" x="48.59" y="-32.16" font-family="Helvetica,sans-Serif" font-size="14.00"> error: 0.950, n=81 </text>
<text text-anchor="start" x="42.59" y="-18.16" font-family="Helvetica,sans-Serif" font-size="14.00"> p: (0.19, 0.41, 0.41) </text>
</g>
<!-- 4&#45;&gt;5 -->
<g id="edge8" class="edge">
<title>4:s&#45;&gt;5:n</title>
<path fill="none" stroke="black" d="M426.09,-124.07C426.09,-124.07 180.7,-81.56 127.99,-72.43"/>
<polygon fill="black" stroke="black" points="128.54,-68.97 118.09,-70.71 127.34,-75.87 128.54,-68.97"/>
<text text-anchor="middle" x="313.09" y="-92.51" font-family="Helvetica,sans-Serif" font-size="14.00">&gt; 2</text>
</g>
<!-- 6 -->
<g id="node10" class="node">
<title>6</title>
<ellipse fill="#3d76cc" stroke="black" cx="426.09" cy="-35.36" rx="118.17" ry="35.21"/>
<text text-anchor="start" x="387.59" y="-46.16" font-family="Helvetica,sans-Serif" font-weight="bold" font-size="14.00"> Class=L </text>
<text text-anchor="start" x="459.59" y="-46.16" font-family="Helvetica,sans-Serif" font-size="14.00"> </text>
<text text-anchor="start" x="356.59" y="-32.16" font-family="Helvetica,sans-Serif" font-size="14.00"> error: 0.084, n=54 </text>
<text text-anchor="start" x="350.59" y="-18.16" font-family="Helvetica,sans-Serif" font-size="14.00"> p: (0.00, 0.98, 0.02) </text>
</g>
<!-- 4&#45;&gt;6 -->
<g id="edge9" class="edge">
<title>4:s&#45;&gt;6:n</title>
<path fill="none" stroke="black" d="M426.09,-124.07C426.09,-124.07 426.09,-96.5 426.09,-81"/>
<polygon fill="black" stroke="black" points="429.59,-80.71 426.09,-70.71 422.59,-80.71 429.59,-80.71"/>
<text text-anchor="middle" x="445.09" y="-92.51" font-family="Helvetica,sans-Serif" font-size="14.00">&lt;= 2</text>
</g>
<!-- 10 -->
<g id="node13" class="node">
<title>10</title>
<ellipse fill="#3d76cc" stroke="black" cx="734.09" cy="-35.36" rx="118.17" ry="35.21"/>
<text text-anchor="start" x="695.09" y="-46.16" font-family="Helvetica,sans-Serif" font-weight="bold" font-size="14.00"> Class=R </text>
<text text-anchor="start" x="768.09" y="-46.16" font-family="Helvetica,sans-Serif" font-size="14.00"> </text>
<text text-anchor="start" x="664.59" y="-32.16" font-family="Helvetica,sans-Serif" font-size="14.00"> error: 0.084, n=54 </text>
<text text-anchor="start" x="658.59" y="-18.16" font-family="Helvetica,sans-Serif" font-size="14.00"> p: (0.00, 0.02, 0.98) </text>
</g>
<!-- 9&#45;&gt;10 -->
<g id="edge12" class="edge">
<title>9:s&#45;&gt;10:n</title>
<path fill="none" stroke="black" d="M1042.09,-124.07C1042.09,-124.07 796.7,-81.56 743.99,-72.43"/>
<polygon fill="black" stroke="black" points="744.54,-68.97 734.09,-70.71 743.34,-75.87 744.54,-68.97"/>
<text text-anchor="middle" x="929.09" y="-92.51" font-family="Helvetica,sans-Serif" font-size="14.00">&gt; 2</text>
</g>
<!-- 11 -->
<g id="node14" class="node">
<title>11</title>
<ellipse fill="#3d76cc" stroke="black" cx="1042.09" cy="-35.36" rx="118.17" ry="35.21"/>
<text text-anchor="start" x="1003.59" y="-46.16" font-family="Helvetica,sans-Serif" font-weight="bold" font-size="14.00"> Class=L </text>
<text text-anchor="start" x="1075.59" y="-46.16" font-family="Helvetica,sans-Serif" font-size="14.00"> </text>
<text text-anchor="start" x="972.59" y="-32.16" font-family="Helvetica,sans-Serif" font-size="14.00"> error: 0.936, n=36 </text>
<text text-anchor="start" x="966.59" y="-18.16" font-family="Helvetica,sans-Serif" font-size="14.00"> p: (0.17, 0.42, 0.42) </text>
</g>
<!-- 9&#45;&gt;11 -->
<g id="edge13" class="edge">
<title>9:s&#45;&gt;11:n</title>
<path fill="none" stroke="black" d="M1042.09,-124.07C1042.09,-124.07 1042.09,-96.5 1042.09,-81"/>
<polygon fill="black" stroke="black" points="1045.59,-80.71 1042.09,-70.71 1038.59,-80.71 1045.59,-80.71"/>
<text text-anchor="middle" x="1061.09" y="-92.51" font-family="Helvetica,sans-Serif" font-size="14.00">&lt;= 2</text>
</g>
<!-- 13 -->
<g id="node15" class="node">
<title>13</title>
<ellipse fill="#3d76cc" stroke="black" cx="1350.09" cy="-35.36" rx="118.17" ry="35.21"/>
<text text-anchor="start" x="1311.59" y="-46.16" font-family="Helvetica,sans-Serif" font-weight="bold" font-size="14.00"> Class=L </text>
<text text-anchor="start" x="1383.59" y="-46.16" font-family="Helvetica,sans-Serif" font-size="14.00"> </text>
<text text-anchor="start" x="1280.59" y="-32.16" font-family="Helvetica,sans-Serif" font-size="14.00"> error: 0.936, n=36 </text>
<text text-anchor="start" x="1274.59" y="-18.16" font-family="Helvetica,sans-Serif" font-size="14.00"> p: (0.17, 0.42, 0.42) </text>
</g>
<!-- 12&#45;&gt;13 -->
<g id="edge14" class="edge">
<title>12:s&#45;&gt;13:n</title>
<path fill="none" stroke="black" d="M1350.09,-124.07C1350.09,-124.07 1350.09,-96.5 1350.09,-81"/>
<polygon fill="black" stroke="black" points="1353.59,-80.71 1350.09,-70.71 1346.59,-80.71 1353.59,-80.71"/>
<text text-anchor="middle" x="1363.09" y="-92.51" font-family="Helvetica,sans-Serif" font-size="14.00">&gt; 2</text>
</g>
<!-- 14 -->
<g id="node16" class="node">
<title>14</title>
<ellipse fill="#3d76cc" stroke="black" cx="1658.09" cy="-35.36" rx="118.17" ry="35.21"/>
<text text-anchor="start" x="1619.59" y="-46.16" font-family="Helvetica,sans-Serif" font-weight="bold" font-size="14.00"> Class=L </text>
<text text-anchor="start" x="1691.59" y="-46.16" font-family="Helvetica,sans-Serif" font-size="14.00"> </text>
<text text-anchor="start" x="1588.59" y="-32.16" font-family="Helvetica,sans-Serif" font-size="14.00"> error: 0.314, n=24 </text>
<text text-anchor="start" x="1582.59" y="-18.16" font-family="Helvetica,sans-Serif" font-size="14.00"> p: (0.04, 0.92, 0.04) </text>
</g>
<!-- 12&#45;&gt;14 -->
<g id="edge15" class="edge">
<title>12:s&#45;&gt;14:n</title>
<path fill="none" stroke="black" d="M1350.09,-124.07C1350.09,-124.07 1595.47,-81.56 1648.19,-72.43"/>
<polygon fill="black" stroke="black" points="1648.83,-75.87 1658.09,-70.71 1647.64,-68.97 1648.83,-75.87"/>
<text text-anchor="middle" x="1569.09" y="-92.51" font-family="Helvetica,sans-Serif" font-size="14.00">&lt;= 2</text>
</g>
<!-- 17 -->
<g id="node19" class="node">
<title>17</title>
<ellipse fill="#44e5b5" stroke="black" cx="1842.09" cy="-157.07" rx="118.17" ry="35.21"/>
<text text-anchor="start" x="1803.09" y="-167.87" font-family="Helvetica,sans-Serif" font-weight="bold" font-size="14.00"> Class=R </text>
<text text-anchor="start" x="1876.09" y="-167.87" font-family="Helvetica,sans-Serif" font-size="14.00"> </text>
<text text-anchor="start" x="1772.59" y="-153.87" font-family="Helvetica,sans-Serif" font-size="14.00"> error: 0.056, n=90 </text>
<text text-anchor="start" x="1766.59" y="-139.87" font-family="Helvetica,sans-Serif" font-size="14.00"> p: (0.00, 0.01, 0.99) </text>
</g>
<!-- 16&#45;&gt;17 -->
<g id="edge18" class="edge">
<title>16:s&#45;&gt;17:n</title>
<path fill="none" stroke="black" d="M1936.09,-243.42C1936.09,-243.42 1874.63,-210.08 1851.1,-197.31"/>
<polygon fill="black" stroke="black" points="1852.55,-194.11 1842.09,-192.42 1849.21,-200.27 1852.55,-194.11"/>
<text text-anchor="middle" x="1914.09" y="-214.22" font-family="Helvetica,sans-Serif" font-size="14.00">&gt; 2</text>
</g>
<!-- 18 -->
<g id="node20" class="node">
<title>18</title>
<polygon fill="#44e5b5" stroke="black" points="2199.59,-189.07 2032.59,-189.07 2032.59,-125.07 2199.59,-125.07 2199.59,-189.07"/>
<text text-anchor="start" x="2077.09" y="-174.87" font-family="Helvetica,sans-Serif" font-weight="bold" font-size="14.00"> Class=R </text>
<text text-anchor="start" x="2150.09" y="-174.87" font-family="Helvetica,sans-Serif" font-size="14.00"> </text>
<text text-anchor="start" x="2046.59" y="-160.87" font-family="Helvetica,sans-Serif" font-size="14.00"> error: 0.820, n=60 </text>
<text text-anchor="start" x="2040.59" y="-146.87" font-family="Helvetica,sans-Serif" font-size="14.00"> p: (0.12, 0.27, 0.62) </text>
<text text-anchor="start" x="2066.09" y="-132.87" font-family="Helvetica,sans-Serif" font-weight="bold" font-size="14.00">left&#45;distance</text>
</g>
<!-- 16&#45;&gt;18 -->
<g id="edge19" class="edge">
<title>16:s&#45;&gt;18:n</title>
<path fill="none" stroke="black" d="M1936.09,-243.42C1936.09,-243.42 2069.02,-204.02 2106.41,-192.93"/>
<polygon fill="black" stroke="black" points="2107.49,-196.26 2116.09,-190.07 2105.5,-189.55 2107.49,-196.26"/>
<text text-anchor="middle" x="2062.09" y="-214.22" font-family="Helvetica,sans-Serif" font-size="14.00">&lt;= 2</text>
</g>
<!-- 22 -->
<g id="node23" class="node">
<title>22</title>
<polygon fill="#44e5b5" stroke="black" points="2793.59,-189.07 2626.59,-189.07 2626.59,-125.07 2793.59,-125.07 2793.59,-189.07"/>
<text text-anchor="start" x="2671.59" y="-174.87" font-family="Helvetica,sans-Serif" font-weight="bold" font-size="14.00"> Class=L </text>
<text text-anchor="start" x="2743.59" y="-174.87" font-family="Helvetica,sans-Serif" font-size="14.00"> </text>
<text text-anchor="start" x="2640.59" y="-160.87" font-family="Helvetica,sans-Serif" font-size="14.00"> error: 0.820, n=60 </text>
<text text-anchor="start" x="2634.59" y="-146.87" font-family="Helvetica,sans-Serif" font-size="14.00"> p: (0.12, 0.62, 0.27) </text>
<text text-anchor="start" x="2654.59" y="-132.87" font-family="Helvetica,sans-Serif" font-weight="bold" font-size="14.00">right&#45;distance</text>
</g>
<!-- 21&#45;&gt;22 -->
<g id="edge22" class="edge">
<title>21:s&#45;&gt;22:n</title>
<path fill="none" stroke="black" d="M2710.09,-243.42C2710.09,-243.42 2710.09,-215.86 2710.09,-200.35"/>
<polygon fill="black" stroke="black" points="2713.59,-200.07 2710.09,-190.07 2706.59,-200.07 2713.59,-200.07"/>
<text text-anchor="middle" x="2723.09" y="-214.22" font-family="Helvetica,sans-Serif" font-size="14.00">&gt; 2</text>
</g>
<!-- 25 -->
<g id="node24" class="node">
<title>25</title>
<polygon fill="#44e5b5" stroke="black" points="3281.59,-189.07 3114.59,-189.07 3114.59,-125.07 3281.59,-125.07 3281.59,-189.07"/>
<text text-anchor="start" x="3159.09" y="-174.87" font-family="Helvetica,sans-Serif" font-weight="bold" font-size="14.00"> Class=R </text>
<text text-anchor="start" x="3232.09" y="-174.87" font-family="Helvetica,sans-Serif" font-size="14.00"> </text>
<text text-anchor="start" x="3128.59" y="-160.87" font-family="Helvetica,sans-Serif" font-size="14.00"> error: 0.778, n=40 </text>
<text text-anchor="start" x="3122.59" y="-146.87" font-family="Helvetica,sans-Serif" font-size="14.00"> p: (0.17, 0.15, 0.68) </text>
<text text-anchor="start" x="3142.59" y="-132.87" font-family="Helvetica,sans-Serif" font-weight="bold" font-size="14.00">right&#45;distance</text>
</g>
<!-- 21&#45;&gt;25 -->
<g id="edge23" class="edge">
<title>21:s&#45;&gt;25:n</title>
<path fill="none" stroke="black" d="M2710.09,-243.42C2710.09,-243.42 3117.82,-198.84 3187.89,-191.18"/>
<polygon fill="black" stroke="black" points="3188.53,-194.63 3198.09,-190.07 3187.77,-187.67 3188.53,-194.63"/>
<text text-anchor="middle" x="3017.09" y="-214.22" font-family="Helvetica,sans-Serif" font-size="14.00">&lt;= 2</text>
</g>
<!-- 19 -->
<g id="node21" class="node">
<title>19</title>
<ellipse fill="#3d76cc" stroke="black" cx="1966.09" cy="-35.36" rx="118.17" ry="35.21"/>
<text text-anchor="start" x="1927.59" y="-46.16" font-family="Helvetica,sans-Serif" font-weight="bold" font-size="14.00"> Class=L </text>
<text text-anchor="start" x="1999.59" y="-46.16" font-family="Helvetica,sans-Serif" font-size="14.00"> </text>
<text text-anchor="start" x="1896.59" y="-32.16" font-family="Helvetica,sans-Serif" font-size="14.00"> error: 0.936, n=36 </text>
<text text-anchor="start" x="1890.59" y="-18.16" font-family="Helvetica,sans-Serif" font-size="14.00"> p: (0.17, 0.42, 0.42) </text>
</g>
<!-- 18&#45;&gt;19 -->
<g id="edge20" class="edge">
<title>18:s&#45;&gt;19:n</title>
<path fill="none" stroke="black" d="M2116.09,-124.07C2116.09,-124.07 2009.3,-86.08 1975.93,-74.21"/>
<polygon fill="black" stroke="black" points="1976.68,-70.76 1966.09,-70.71 1974.34,-77.36 1976.68,-70.76"/>
<text text-anchor="middle" x="2068.09" y="-92.51" font-family="Helvetica,sans-Serif" font-size="14.00">&gt; 2</text>
</g>
<!-- 20 -->
<g id="node22" class="node">
<title>20</title>
<ellipse fill="#3d76cc" stroke="black" cx="2274.09" cy="-35.36" rx="118.17" ry="35.21"/>
<text text-anchor="start" x="2235.09" y="-46.16" font-family="Helvetica,sans-Serif" font-weight="bold" font-size="14.00"> Class=R </text>
<text text-anchor="start" x="2308.09" y="-46.16" font-family="Helvetica,sans-Serif" font-size="14.00"> </text>
<text text-anchor="start" x="2204.59" y="-32.16" font-family="Helvetica,sans-Serif" font-size="14.00"> error: 0.314, n=24 </text>
<text text-anchor="start" x="2198.59" y="-18.16" font-family="Helvetica,sans-Serif" font-size="14.00"> p: (0.04, 0.04, 0.92) </text>
</g>
<!-- 18&#45;&gt;20 -->
<g id="edge21" class="edge">
<title>18:s&#45;&gt;20:n</title>
<path fill="none" stroke="black" d="M2116.09,-124.07C2116.09,-124.07 2229.61,-85.73 2264.2,-74.05"/>
<polygon fill="black" stroke="black" points="2265.73,-77.23 2274.09,-70.71 2263.49,-70.59 2265.73,-77.23"/>
<text text-anchor="middle" x="2238.09" y="-92.51" font-family="Helvetica,sans-Serif" font-size="14.00">&lt;= 2</text>
</g>
<!-- 23 -->
<g id="node25" class="node">
<title>23</title>
<ellipse fill="#3d76cc" stroke="black" cx="2582.09" cy="-35.36" rx="118.17" ry="35.21"/>
<text text-anchor="start" x="2543.59" y="-46.16" font-family="Helvetica,sans-Serif" font-weight="bold" font-size="14.00"> Class=L </text>
<text text-anchor="start" x="2615.59" y="-46.16" font-family="Helvetica,sans-Serif" font-size="14.00"> </text>
<text text-anchor="start" x="2512.59" y="-32.16" font-family="Helvetica,sans-Serif" font-size="14.00"> error: 0.936, n=36 </text>
<text text-anchor="start" x="2506.59" y="-18.16" font-family="Helvetica,sans-Serif" font-size="14.00"> p: (0.17, 0.42, 0.42) </text>
</g>
<!-- 22&#45;&gt;23 -->
<g id="edge24" class="edge">
<title>22:s&#45;&gt;23:n</title>
<path fill="none" stroke="black" d="M2710.09,-124.07C2710.09,-124.07 2621.48,-87.13 2591.71,-74.72"/>
<polygon fill="black" stroke="black" points="2592.66,-71.33 2582.09,-70.71 2589.97,-77.79 2592.66,-71.33"/>
<text text-anchor="middle" x="2671.09" y="-92.51" font-family="Helvetica,sans-Serif" font-size="14.00">&gt; 2</text>
</g>
<!-- 24 -->
<g id="node26" class="node">
<title>24</title>
<ellipse fill="#3d76cc" stroke="black" cx="2890.09" cy="-35.36" rx="118.17" ry="35.21"/>
<text text-anchor="start" x="2851.59" y="-46.16" font-family="Helvetica,sans-Serif" font-weight="bold" font-size="14.00"> Class=L </text>
<text text-anchor="start" x="2923.59" y="-46.16" font-family="Helvetica,sans-Serif" font-size="14.00"> </text>
<text text-anchor="start" x="2820.59" y="-32.16" font-family="Helvetica,sans-Serif" font-size="14.00"> error: 0.314, n=24 </text>
<text text-anchor="start" x="2814.59" y="-18.16" font-family="Helvetica,sans-Serif" font-size="14.00"> p: (0.04, 0.92, 0.04) </text>
</g>
<!-- 22&#45;&gt;24 -->
<g id="edge25" class="edge">
<title>22:s&#45;&gt;24:n</title>
<path fill="none" stroke="black" d="M2710.09,-124.07C2710.09,-124.07 2843.02,-84.66 2880.41,-73.58"/>
<polygon fill="black" stroke="black" points="2881.49,-76.91 2890.09,-70.71 2879.5,-70.2 2881.49,-76.91"/>
<text text-anchor="middle" x="2846.09" y="-92.51" font-family="Helvetica,sans-Serif" font-size="14.00">&lt;= 2</text>
</g>
<!-- 26 -->
<g id="node27" class="node">
<title>26</title>
<ellipse fill="#3d76cc" stroke="black" cx="3198.09" cy="-35.36" rx="118.17" ry="35.21"/>
<text text-anchor="start" x="3159.09" y="-46.16" font-family="Helvetica,sans-Serif" font-weight="bold" font-size="14.00"> Class=R </text>
<text text-anchor="start" x="3232.09" y="-46.16" font-family="Helvetica,sans-Serif" font-size="14.00"> </text>
<text text-anchor="start" x="3128.59" y="-32.16" font-family="Helvetica,sans-Serif" font-size="14.00"> error: 0.314, n=24 </text>
<text text-anchor="start" x="3122.59" y="-18.16" font-family="Helvetica,sans-Serif" font-size="14.00"> p: (0.04, 0.04, 0.92) </text>
</g>
<!-- 25&#45;&gt;26 -->
<g id="edge26" class="edge">
<title>25:s&#45;&gt;26:n</title>
<path fill="none" stroke="black" d="M3198.09,-124.07C3198.09,-124.07 3198.09,-96.5 3198.09,-81"/>
<polygon fill="black" stroke="black" points="3201.59,-80.71 3198.09,-70.71 3194.59,-80.71 3201.59,-80.71"/>
<text text-anchor="middle" x="3211.09" y="-92.51" font-family="Helvetica,sans-Serif" font-size="14.00">&gt; 2</text>
</g>
<!-- 27 -->
<g id="node28" class="node">
<title>27</title>
<ellipse fill="#3d76cc" stroke="black" cx="3506.09" cy="-35.36" rx="118.17" ry="35.21"/>
<text text-anchor="start" x="3467.09" y="-46.16" font-family="Helvetica,sans-Serif" font-weight="bold" font-size="14.00"> Class=B </text>
<text text-anchor="start" x="3540.09" y="-46.16" font-family="Helvetica,sans-Serif" font-size="14.00"> </text>
<text text-anchor="start" x="3436.59" y="-32.16" font-family="Helvetica,sans-Serif" font-size="14.00"> error: 0.997, n=16 </text>
<text text-anchor="start" x="3430.59" y="-18.16" font-family="Helvetica,sans-Serif" font-size="14.00"> p: (0.38, 0.31, 0.31) </text>
</g>
<!-- 25&#45;&gt;27 -->
<g id="edge27" class="edge">
<title>25:s&#45;&gt;27:n</title>
<path fill="none" stroke="black" d="M3198.09,-124.07C3198.09,-124.07 3443.47,-81.56 3496.19,-72.43"/>
<polygon fill="black" stroke="black" points="3496.83,-75.87 3506.09,-70.71 3495.64,-68.97 3496.83,-75.87"/>
<text text-anchor="middle" x="3417.09" y="-92.51" font-family="Helvetica,sans-Serif" font-size="14.00">&lt;= 2</text>
</g>
</g>
</svg>
