<?xml version="1.0" encoding="UTF-8" standalone="no"?>
<!DOCTYPE svg PUBLIC "-//W3C//DTD SVG 1.1//EN"
 "http://www.w3.org/Graphics/SVG/1.1/DTD/svg11.dtd">
<!-- Generated by graphviz version 2.43.0 (0)
 -->
<!-- Title: Tree Pages: 1 -->
<svg width="1338pt" height="775pt"
 viewBox="0.00 0.00 1338.22 774.84" xmlns="http://www.w3.org/2000/svg" xmlns:xlink="http://www.w3.org/1999/xlink">
<g id="graph0" class="graph" transform="scale(1 1) rotate(0) translate(18 756.84)">
<title>Tree</title>
<polygon fill="white" stroke="transparent" points="-18,18 -18,-756.84 1320.22,-756.84 1320.22,18 -18,18"/>
<!-- 0 -->
<g id="node1" class="node">
<title>0</title>
<polygon fill="white" stroke="transparent" points="814.26,-738.84 760.26,-738.84 760.26,-702.84 814.26,-702.84 814.26,-738.84"/>
<text text-anchor="middle" x="787.26" y="-717.14" font-family="Helvetica,sans-Serif" font-size="14.00">0</text>
</g>
<!-- 1 -->
<g id="node2" class="node">
<title>1</title>
<polygon fill="#cc3d3d" stroke="black" points="874.26,-665.84 700.26,-665.84 700.26,-601.84 874.26,-601.84 874.26,-665.84"/>
<text text-anchor="start" x="726.76" y="-651.64" font-family="Helvetica,sans-Serif" font-weight="bold" font-size="14.00"> Class=benign </text>
<text text-anchor="start" x="842.76" y="-651.64" font-family="Helvetica,sans-Serif" font-size="14.00"> </text>
<text text-anchor="start" x="713.26" y="-637.64" font-family="Helvetica,sans-Serif" font-size="14.00"> error: 0.929, n=699 </text>
<text text-anchor="start" x="732.26" y="-623.64" font-family="Helvetica,sans-Serif" font-size="14.00"> p: (0.66, 0.34) </text>
<text text-anchor="start" x="708.26" y="-609.64" font-family="Helvetica,sans-Serif" font-weight="bold" font-size="14.00">Cell_Size_Uniformity</text>
</g>
<!-- 0&#45;&gt;1 -->
<!-- 2 -->
<g id="node3" class="node">
<title>2</title>
<polygon fill="#e5b844" stroke="black" points="735.26,-550.84 571.26,-550.84 571.26,-486.84 735.26,-486.84 735.26,-550.84"/>
<text text-anchor="start" x="579.76" y="-536.64" font-family="Helvetica,sans-Serif" font-weight="bold" font-size="14.00"> Class=malignant </text>
<text text-anchor="start" x="721.76" y="-536.64" font-family="Helvetica,sans-Serif" font-size="14.00"> </text>
<text text-anchor="start" x="579.26" y="-522.64" font-family="Helvetica,sans-Serif" font-size="14.00"> error: 0.614, n=270 </text>
<text text-anchor="start" x="598.26" y="-508.64" font-family="Helvetica,sans-Serif" font-size="14.00"> p: (0.15, 0.85) </text>
<text text-anchor="start" x="606.76" y="-494.64" font-family="Helvetica,sans-Serif" font-weight="bold" font-size="14.00">Bare_Nuclei</text>
</g>
<!-- 1&#45;&gt;2 -->
<g id="edge2" class="edge">
<title>1:s&#45;&gt;2:n</title>
<path fill="none" stroke="black" d="M787.26,-601.84C787.26,-601.84 693.62,-566.2 662.9,-554.51"/>
<polygon fill="black" stroke="black" points="663.85,-551.13 653.26,-550.84 661.36,-557.67 663.85,-551.13"/>
<text text-anchor="middle" x="749.26" y="-572.64" font-family="Helvetica,sans-Serif" font-size="14.00">&gt; 2</text>
</g>
<!-- 15 -->
<g id="node4" class="node">
<title>15</title>
<polygon fill="#e5b844" stroke="black" points="1004.26,-550.84 840.26,-550.84 840.26,-486.84 1004.26,-486.84 1004.26,-550.84"/>
<text text-anchor="start" x="861.76" y="-536.64" font-family="Helvetica,sans-Serif" font-weight="bold" font-size="14.00"> Class=benign </text>
<text text-anchor="start" x="977.76" y="-536.64" font-family="Helvetica,sans-Serif" font-size="14.00"> </text>
<text text-anchor="start" x="848.26" y="-522.64" font-family="Helvetica,sans-Serif" font-size="14.00"> error: 0.184, n=429 </text>
<text text-anchor="start" x="867.26" y="-508.64" font-family="Helvetica,sans-Serif" font-size="14.00"> p: (0.97, 0.03) </text>
<text text-anchor="start" x="875.76" y="-494.64" font-family="Helvetica,sans-Serif" font-weight="bold" font-size="14.00">Bare_Nuclei</text>
</g>
<!-- 1&#45;&gt;15 -->
<g id="edge3" class="edge">
<title>1:s&#45;&gt;15:n</title>
<path fill="none" stroke="black" d="M787.26,-601.84C787.26,-601.84 881.6,-566.2 912.55,-554.51"/>
<polygon fill="black" stroke="black" points="914.14,-557.65 922.26,-550.84 911.67,-551.1 914.14,-557.65"/>
<text text-anchor="middle" x="890.26" y="-572.64" font-family="Helvetica,sans-Serif" font-size="14.00">&lt;= 2</text>
</g>
<!-- 3 -->
<g id="node5" class="node">
<title>3</title>
<polygon fill="#8dcc3d" stroke="black" points="466.26,-432.49 302.26,-432.49 302.26,-368.49 466.26,-368.49 466.26,-432.49"/>
<text text-anchor="start" x="310.76" y="-418.29" font-family="Helvetica,sans-Serif" font-weight="bold" font-size="14.00"> Class=malignant </text>
<text text-anchor="start" x="452.76" y="-418.29" font-family="Helvetica,sans-Serif" font-size="14.00"> </text>
<text text-anchor="start" x="310.26" y="-404.29" font-family="Helvetica,sans-Serif" font-size="14.00"> error: 0.265, n=200 </text>
<text text-anchor="start" x="329.26" y="-390.29" font-family="Helvetica,sans-Serif" font-size="14.00"> p: (0.04, 0.95) </text>
<text text-anchor="start" x="310.26" y="-376.29" font-family="Helvetica,sans-Serif" font-weight="bold" font-size="14.00">Marginal_Adhesion</text>
</g>
<!-- 2&#45;&gt;3 -->
<g id="edge4" class="edge">
<title>2:s&#45;&gt;3:n</title>
<path fill="none" stroke="black" d="M653.26,-486.84C653.26,-486.84 442.68,-445.08 394.15,-435.45"/>
<polygon fill="black" stroke="black" points="394.75,-432 384.26,-433.49 393.39,-438.87 394.75,-432"/>
<text text-anchor="middle" x="572.26" y="-457.64" font-family="Helvetica,sans-Serif" font-size="14.00">&gt; 3</text>
</g>
<!-- 10 -->
<g id="node6" class="node">
<title>10</title>
<polygon fill="#8dcc3d" stroke="black" points="740.26,-432.49 566.26,-432.49 566.26,-368.49 740.26,-368.49 740.26,-432.49"/>
<text text-anchor="start" x="579.76" y="-418.29" font-family="Helvetica,sans-Serif" font-weight="bold" font-size="14.00"> Class=malignant </text>
<text text-anchor="start" x="721.76" y="-418.29" font-family="Helvetica,sans-Serif" font-size="14.00"> </text>
<text text-anchor="start" x="583.76" y="-404.29" font-family="Helvetica,sans-Serif" font-size="14.00"> error: 0.992, n=65 </text>
<text text-anchor="start" x="598.26" y="-390.29" font-family="Helvetica,sans-Serif" font-size="14.00"> p: (0.45, 0.55) </text>
<text text-anchor="start" x="574.26" y="-376.29" font-family="Helvetica,sans-Serif" font-weight="bold" font-size="14.00">Cell_Size_Uniformity</text>
</g>
<!-- 2&#45;&gt;10 -->
<g id="edge5" class="edge">
<title>2:s&#45;&gt;10:n</title>
<path fill="none" stroke="black" d="M653.26,-486.84C653.26,-486.84 653.26,-459.28 653.26,-443.77"/>
<polygon fill="black" stroke="black" points="656.76,-443.49 653.26,-433.49 649.76,-443.49 656.76,-443.49"/>
<text text-anchor="middle" x="672.26" y="-457.64" font-family="Helvetica,sans-Serif" font-size="14.00">&lt;= 3</text>
</g>
<!-- 16 -->
<g id="node17" class="node">
<title>16</title>
<ellipse fill="#8dcc3d" stroke="black" cx="922.26" cy="-400.49" rx="109.7" ry="35.21"/>
<text text-anchor="start" x="861.76" y="-411.29" font-family="Helvetica,sans-Serif" font-weight="bold" font-size="14.00"> Class=benign </text>
<text text-anchor="start" x="977.76" y="-411.29" font-family="Helvetica,sans-Serif" font-size="14.00"> </text>
<text text-anchor="start" x="852.76" y="-397.29" font-family="Helvetica,sans-Serif" font-size="14.00"> error: 0.988, n=23 </text>
<text text-anchor="start" x="867.26" y="-383.29" font-family="Helvetica,sans-Serif" font-size="14.00"> p: (0.57, 0.43) </text>
</g>
<!-- 15&#45;&gt;16 -->
<g id="edge16" class="edge">
<title>15:s&#45;&gt;16:n</title>
<path fill="none" stroke="black" d="M922.26,-486.84C922.26,-486.84 922.26,-461.07 922.26,-446.16"/>
<polygon fill="black" stroke="black" points="925.76,-445.84 922.26,-435.84 918.76,-445.84 925.76,-445.84"/>
<text text-anchor="middle" x="935.26" y="-457.64" font-family="Helvetica,sans-Serif" font-size="14.00">&gt; 3</text>
</g>
<!-- 17 -->
<g id="node18" class="node">
<title>17</title>
<polygon fill="#8dcc3d" stroke="black" points="1268.26,-432.49 1104.26,-432.49 1104.26,-368.49 1268.26,-368.49 1268.26,-432.49"/>
<text text-anchor="start" x="1125.76" y="-418.29" font-family="Helvetica,sans-Serif" font-weight="bold" font-size="14.00"> Class=benign </text>
<text text-anchor="start" x="1241.76" y="-418.29" font-family="Helvetica,sans-Serif" font-size="14.00"> </text>
<text text-anchor="start" x="1112.26" y="-404.29" font-family="Helvetica,sans-Serif" font-size="14.00"> error: 0.046, n=395 </text>
<text text-anchor="start" x="1131.26" y="-390.29" font-family="Helvetica,sans-Serif" font-size="14.00"> p: (0.99, 0.01) </text>
<text text-anchor="start" x="1119.76" y="-376.29" font-family="Helvetica,sans-Serif" font-weight="bold" font-size="14.00">Clump_Thickness</text>
</g>
<!-- 15&#45;&gt;17 -->
<g id="edge17" class="edge">
<title>15:s&#45;&gt;17:n</title>
<path fill="none" stroke="black" d="M922.26,-486.84C922.26,-486.84 1128.01,-445.26 1176.23,-435.51"/>
<polygon fill="black" stroke="black" points="1177.15,-438.9 1186.26,-433.49 1175.76,-432.04 1177.15,-438.9"/>
<text text-anchor="middle" x="1097.26" y="-457.64" font-family="Helvetica,sans-Serif" font-size="14.00">&lt;= 3</text>
</g>
<!-- 4 -->
<g id="node7" class="node">
<title>4</title>
<ellipse fill="#44e55e" stroke="black" cx="115.26" cy="-278.78" rx="115.02" ry="35.21"/>
<text text-anchor="start" x="41.76" y="-289.58" font-family="Helvetica,sans-Serif" font-weight="bold" font-size="14.00"> Class=malignant </text>
<text text-anchor="start" x="183.76" y="-289.58" font-family="Helvetica,sans-Serif" font-size="14.00"> </text>
<text text-anchor="start" x="45.76" y="-275.58" font-family="Helvetica,sans-Serif" font-size="14.00"> error: 0.000, n=97 </text>
<text text-anchor="start" x="60.26" y="-261.58" font-family="Helvetica,sans-Serif" font-size="14.00"> p: (0.00, 1.00) </text>
</g>
<!-- 3&#45;&gt;4 -->
<g id="edge6" class="edge">
<title>3:s&#45;&gt;4:n</title>
<path fill="none" stroke="black" d="M384.26,-367.49C384.26,-367.49 173.68,-325.72 125.15,-316.09"/>
<polygon fill="black" stroke="black" points="125.75,-312.64 115.26,-314.13 124.39,-319.51 125.75,-312.64"/>
<text text-anchor="middle" x="287.26" y="-335.93" font-family="Helvetica,sans-Serif" font-size="14.00">&gt; 5</text>
</g>
<!-- 5 -->
<g id="node8" class="node">
<title>5</title>
<polygon fill="#44e55e" stroke="black" points="466.26,-310.78 302.26,-310.78 302.26,-246.78 466.26,-246.78 466.26,-310.78"/>
<text text-anchor="start" x="310.76" y="-296.58" font-family="Helvetica,sans-Serif" font-weight="bold" font-size="14.00"> Class=malignant </text>
<text text-anchor="start" x="452.76" y="-296.58" font-family="Helvetica,sans-Serif" font-size="14.00"> </text>
<text text-anchor="start" x="310.26" y="-282.58" font-family="Helvetica,sans-Serif" font-size="14.00"> error: 0.428, n=103 </text>
<text text-anchor="start" x="329.26" y="-268.58" font-family="Helvetica,sans-Serif" font-size="14.00"> p: (0.09, 0.91) </text>
<text text-anchor="start" x="317.76" y="-254.58" font-family="Helvetica,sans-Serif" font-weight="bold" font-size="14.00">Clump_Thickness</text>
</g>
<!-- 3&#45;&gt;5 -->
<g id="edge7" class="edge">
<title>3:s&#45;&gt;5:n</title>
<path fill="none" stroke="black" d="M384.26,-367.49C384.26,-367.49 384.26,-338.08 384.26,-321.99"/>
<polygon fill="black" stroke="black" points="387.76,-321.78 384.26,-311.78 380.76,-321.78 387.76,-321.78"/>
<text text-anchor="middle" x="403.26" y="-335.93" font-family="Helvetica,sans-Serif" font-size="14.00">&lt;= 5</text>
</g>
<!-- 11 -->
<g id="node13" class="node">
<title>11</title>
<ellipse fill="#44e55e" stroke="black" cx="653.26" cy="-278.78" rx="115.02" ry="35.21"/>
<text text-anchor="start" x="579.76" y="-289.58" font-family="Helvetica,sans-Serif" font-weight="bold" font-size="14.00"> Class=malignant </text>
<text text-anchor="start" x="721.76" y="-289.58" font-family="Helvetica,sans-Serif" font-size="14.00"> </text>
<text text-anchor="start" x="583.76" y="-275.58" font-family="Helvetica,sans-Serif" font-size="14.00"> error: 0.000, n=26 </text>
<text text-anchor="start" x="598.26" y="-261.58" font-family="Helvetica,sans-Serif" font-size="14.00"> p: (0.00, 1.00) </text>
</g>
<!-- 10&#45;&gt;11 -->
<g id="edge12" class="edge">
<title>10:s&#45;&gt;11:n</title>
<path fill="none" stroke="black" d="M653.26,-367.49C653.26,-367.49 653.26,-339.92 653.26,-324.42"/>
<polygon fill="black" stroke="black" points="656.76,-324.13 653.26,-314.13 649.76,-324.13 656.76,-324.13"/>
<text text-anchor="middle" x="666.26" y="-335.93" font-family="Helvetica,sans-Serif" font-size="14.00">&gt; 4</text>
</g>
<!-- 12 -->
<g id="node14" class="node">
<title>12</title>
<polygon fill="#44e55e" stroke="black" points="995.76,-310.78 840.76,-310.78 840.76,-246.78 995.76,-246.78 995.76,-310.78"/>
<text text-anchor="start" x="857.76" y="-296.58" font-family="Helvetica,sans-Serif" font-weight="bold" font-size="14.00"> Class=benign </text>
<text text-anchor="start" x="973.76" y="-296.58" font-family="Helvetica,sans-Serif" font-size="14.00"> </text>
<text text-anchor="start" x="848.76" y="-282.58" font-family="Helvetica,sans-Serif" font-size="14.00"> error: 0.821, n=39 </text>
<text text-anchor="start" x="863.26" y="-268.58" font-family="Helvetica,sans-Serif" font-size="14.00"> p: (0.74, 0.26) </text>
<text text-anchor="start" x="854.76" y="-254.58" font-family="Helvetica,sans-Serif" font-weight="bold" font-size="14.00">Normal_Nucleoli</text>
</g>
<!-- 10&#45;&gt;12 -->
<g id="edge13" class="edge">
<title>10:s&#45;&gt;12:n</title>
<path fill="none" stroke="black" d="M653.26,-367.49C653.26,-367.49 859.79,-324.07 908.19,-313.89"/>
<polygon fill="black" stroke="black" points="909.19,-317.26 918.26,-311.78 907.75,-310.41 909.19,-317.26"/>
<text text-anchor="middle" x="837.26" y="-335.93" font-family="Helvetica,sans-Serif" font-size="14.00">&lt;= 4</text>
</g>
<!-- 6 -->
<g id="node9" class="node">
<title>6</title>
<polygon fill="#3dccba" stroke="black" points="314.26,-189.07 150.26,-189.07 150.26,-125.07 314.26,-125.07 314.26,-189.07"/>
<text text-anchor="start" x="158.76" y="-174.87" font-family="Helvetica,sans-Serif" font-weight="bold" font-size="14.00"> Class=malignant </text>
<text text-anchor="start" x="300.76" y="-174.87" font-family="Helvetica,sans-Serif" font-size="14.00"> </text>
<text text-anchor="start" x="162.76" y="-160.87" font-family="Helvetica,sans-Serif" font-size="14.00"> error: 0.112, n=67 </text>
<text text-anchor="start" x="177.26" y="-146.87" font-family="Helvetica,sans-Serif" font-size="14.00"> p: (0.01, 0.99) </text>
<text text-anchor="start" x="158.26" y="-132.87" font-family="Helvetica,sans-Serif" font-weight="bold" font-size="14.00">Marginal_Adhesion</text>
</g>
<!-- 5&#45;&gt;6 -->
<g id="edge8" class="edge">
<title>5:s&#45;&gt;6:n</title>
<path fill="none" stroke="black" d="M384.26,-245.78C384.26,-245.78 275.04,-205.75 241.77,-193.55"/>
<polygon fill="black" stroke="black" points="242.85,-190.22 232.26,-190.07 240.44,-196.79 242.85,-190.22"/>
<text text-anchor="middle" x="340.26" y="-214.22" font-family="Helvetica,sans-Serif" font-size="14.00">&gt; 6</text>
</g>
<!-- 8 -->
<g id="node10" class="node">
<title>8</title>
<polygon fill="#3dccba" stroke="black" points="582.76,-189.07 419.76,-189.07 419.76,-125.07 582.76,-125.07 582.76,-189.07"/>
<text text-anchor="start" x="427.76" y="-174.87" font-family="Helvetica,sans-Serif" font-weight="bold" font-size="14.00"> Class=malignant </text>
<text text-anchor="start" x="569.76" y="-174.87" font-family="Helvetica,sans-Serif" font-size="14.00"> </text>
<text text-anchor="start" x="431.76" y="-160.87" font-family="Helvetica,sans-Serif" font-size="14.00"> error: 0.764, n=36 </text>
<text text-anchor="start" x="446.26" y="-146.87" font-family="Helvetica,sans-Serif" font-size="14.00"> p: (0.22, 0.78) </text>
<text text-anchor="start" x="434.76" y="-132.87" font-family="Helvetica,sans-Serif" font-weight="bold" font-size="14.00">Bland_Chromatin</text>
</g>
<!-- 5&#45;&gt;8 -->
<g id="edge9" class="edge">
<title>5:s&#45;&gt;8:n</title>
<path fill="none" stroke="black" d="M384.26,-245.78C384.26,-245.78 464.5,-207.57 492.08,-194.44"/>
<polygon fill="black" stroke="black" points="493.73,-197.53 501.26,-190.07 490.72,-191.21 493.73,-197.53"/>
<text text-anchor="middle" x="476.26" y="-214.22" font-family="Helvetica,sans-Serif" font-size="14.00">&lt;= 6</text>
</g>
<!-- 7 -->
<g id="node11" class="node">
<title>7</title>
<ellipse fill="#4485e5" stroke="black" cx="215.26" cy="-35.36" rx="115.02" ry="35.21"/>
<text text-anchor="start" x="141.76" y="-46.16" font-family="Helvetica,sans-Serif" font-weight="bold" font-size="14.00"> Class=malignant </text>
<text text-anchor="start" x="283.76" y="-46.16" font-family="Helvetica,sans-Serif" font-size="14.00"> </text>
<text text-anchor="start" x="145.76" y="-32.16" font-family="Helvetica,sans-Serif" font-size="14.00"> error: 0.000, n=57 </text>
<text text-anchor="start" x="160.26" y="-18.16" font-family="Helvetica,sans-Serif" font-size="14.00"> p: (0.00, 1.00) </text>
</g>
<!-- 6&#45;&gt;7 -->
<g id="edge10" class="edge">
<title>6:s&#45;&gt;7:n</title>
<path fill="none" stroke="black" d="M232.26,-124.07C232.26,-124.07 223.28,-95.9 218.38,-80.5"/>
<polygon fill="black" stroke="black" points="221.63,-79.18 215.26,-70.71 214.96,-81.3 221.63,-79.18"/>
<text text-anchor="middle" x="245.26" y="-92.51" font-family="Helvetica,sans-Serif" font-size="14.00">&lt;= 4</text>
</g>
<!-- 9 -->
<g id="node12" class="node">
<title>9</title>
<ellipse fill="#4485e5" stroke="black" cx="518.26" cy="-35.36" rx="115.02" ry="35.21"/>
<text text-anchor="start" x="444.76" y="-46.16" font-family="Helvetica,sans-Serif" font-weight="bold" font-size="14.00"> Class=malignant </text>
<text text-anchor="start" x="586.76" y="-46.16" font-family="Helvetica,sans-Serif" font-size="14.00"> </text>
<text text-anchor="start" x="448.76" y="-32.16" font-family="Helvetica,sans-Serif" font-size="14.00"> error: 0.503, n=27 </text>
<text text-anchor="start" x="463.26" y="-18.16" font-family="Helvetica,sans-Serif" font-size="14.00"> p: (0.11, 0.89) </text>
</g>
<!-- 8&#45;&gt;9 -->
<g id="edge11" class="edge">
<title>8:s&#45;&gt;9:n</title>
<path fill="none" stroke="black" d="M501.26,-124.07C501.26,-124.07 510.23,-95.9 515.14,-80.5"/>
<polygon fill="black" stroke="black" points="518.56,-81.3 518.26,-70.71 511.89,-79.18 518.56,-81.3"/>
<text text-anchor="middle" x="526.26" y="-92.51" font-family="Helvetica,sans-Serif" font-size="14.00">&gt; 3</text>
</g>
<!-- 13 -->
<g id="node15" class="node">
<title>13</title>
<ellipse fill="#3dccba" stroke="black" cx="866.26" cy="-157.07" rx="109.7" ry="35.21"/>
<text text-anchor="start" x="805.76" y="-167.87" font-family="Helvetica,sans-Serif" font-weight="bold" font-size="14.00"> Class=benign </text>
<text text-anchor="start" x="921.76" y="-167.87" font-family="Helvetica,sans-Serif" font-size="14.00"> </text>
<text text-anchor="start" x="796.76" y="-153.87" font-family="Helvetica,sans-Serif" font-size="14.00"> error: 0.994, n=22 </text>
<text text-anchor="start" x="811.26" y="-139.87" font-family="Helvetica,sans-Serif" font-size="14.00"> p: (0.55, 0.45) </text>
</g>
<!-- 12&#45;&gt;13 -->
<g id="edge14" class="edge">
<title>12:s&#45;&gt;13:n</title>
<path fill="none" stroke="black" d="M918.26,-245.78C918.26,-245.78 887.78,-214.5 873.49,-199.84"/>
<polygon fill="black" stroke="black" points="875.74,-197.14 866.26,-192.42 870.73,-202.03 875.74,-197.14"/>
<text text-anchor="middle" x="910.26" y="-214.22" font-family="Helvetica,sans-Serif" font-size="14.00">&gt; 1</text>
</g>
<!-- 14 -->
<g id="node16" class="node">
<title>14</title>
<ellipse fill="#3dccba" stroke="black" cx="1157.26" cy="-157.07" rx="109.7" ry="35.21"/>
<text text-anchor="start" x="1096.76" y="-167.87" font-family="Helvetica,sans-Serif" font-weight="bold" font-size="14.00"> Class=benign </text>
<text text-anchor="start" x="1212.76" y="-167.87" font-family="Helvetica,sans-Serif" font-size="14.00"> </text>
<text text-anchor="start" x="1087.76" y="-153.87" font-family="Helvetica,sans-Serif" font-size="14.00"> error: 0.000, n=17 </text>
<text text-anchor="start" x="1102.26" y="-139.87" font-family="Helvetica,sans-Serif" font-size="14.00"> p: (1.00, 0.00) </text>
</g>
<!-- 12&#45;&gt;14 -->
<g id="edge15" class="edge">
<title>12:s&#45;&gt;14:n</title>
<path fill="none" stroke="black" d="M918.26,-245.78C918.26,-245.78 1102.06,-204.74 1147.29,-194.65"/>
<polygon fill="black" stroke="black" points="1148.26,-198.02 1157.26,-192.42 1146.74,-191.18 1148.26,-198.02"/>
<text text-anchor="middle" x="1092.26" y="-214.22" font-family="Helvetica,sans-Serif" font-size="14.00">&lt;= 1</text>
</g>
<!-- 18 -->
<g id="node19" class="node">
<title>18</title>
<ellipse fill="#44e55e" stroke="black" cx="1186.26" cy="-278.78" rx="115.93" ry="35.21"/>
<text text-anchor="start" x="1125.76" y="-289.58" font-family="Helvetica,sans-Serif" font-weight="bold" font-size="14.00"> Class=benign </text>
<text text-anchor="start" x="1241.76" y="-289.58" font-family="Helvetica,sans-Serif" font-size="14.00"> </text>
<text text-anchor="start" x="1112.26" y="-275.58" font-family="Helvetica,sans-Serif" font-size="14.00"> error: 0.000, n=391 </text>
<text text-anchor="start" x="1131.26" y="-261.58" font-family="Helvetica,sans-Serif" font-size="14.00"> p: (1.00, 0.00) </text>
</g>
<!-- 17&#45;&gt;18 -->
<g id="edge18" class="edge">
<title>17:s&#45;&gt;18:n</title>
<path fill="none" stroke="black" d="M1186.26,-367.49C1186.26,-367.49 1186.26,-339.92 1186.26,-324.42"/>
<polygon fill="black" stroke="black" points="1189.76,-324.13 1186.26,-314.13 1182.76,-324.13 1189.76,-324.13"/>
<text text-anchor="middle" x="1205.26" y="-335.93" font-family="Helvetica,sans-Serif" font-size="14.00">&lt;= 6</text>
</g>
</g>
</svg>
