<?xml version="1.0" encoding="UTF-8" standalone="no"?>
<!DOCTYPE svg PUBLIC "-//W3C//DTD SVG 1.1//EN"
 "http://www.w3.org/Graphics/SVG/1.1/DTD/svg11.dtd">
<!-- Generated by graphviz version 2.43.0 (0)
 -->
<!-- Title: Tree Pages: 1 -->
<svg width="916pt" height="531pt"
 viewBox="0.00 0.00 916.09 531.42" xmlns="http://www.w3.org/2000/svg" xmlns:xlink="http://www.w3.org/1999/xlink">
<g id="graph0" class="graph" transform="scale(1 1) rotate(0) translate(18 513.42)">
<title>Tree</title>
<polygon fill="white" stroke="transparent" points="-18,18 -18,-513.42 898.09,-513.42 898.09,18 -18,18"/>
<!-- 0 -->
<g id="node1" class="node">
<title>0</title>
<polygon fill="white" stroke="transparent" points="632,-495.42 578,-495.42 578,-459.42 632,-459.42 632,-495.42"/>
<text text-anchor="middle" x="605" y="-473.72" font-family="Helvetica,sans-Serif" font-size="14.00">0</text>
</g>
<!-- 1 -->
<g id="node2" class="node">
<title>1</title>
<polygon fill="#cc3d3d" stroke="black" points="733,-422.42 477,-422.42 477,-358.42 733,-358.42 733,-422.42"/>
<text text-anchor="start" x="566" y="-408.22" font-family="Helvetica,sans-Serif" font-weight="bold" font-size="14.00"> Class=1 </text>
<text text-anchor="start" x="639" y="-408.22" font-family="Helvetica,sans-Serif" font-size="14.00"> </text>
<text text-anchor="start" x="526.5" y="-394.22" font-family="Helvetica,sans-Serif" font-size="14.00"> error: 0.971, n=1473 </text>
<text text-anchor="start" x="529.5" y="-380.22" font-family="Helvetica,sans-Serif" font-size="14.00"> p: (0.43, 0.23, 0.35) </text>
<text text-anchor="start" x="485" y="-366.22" font-family="Helvetica,sans-Serif" font-weight="bold" font-size="14.00">Number_of_children_ever_born</text>
</g>
<!-- 0&#45;&gt;1 -->
<!-- 2 -->
<g id="node3" class="node">
<title>2</title>
<polygon fill="#c5e544" stroke="black" points="536.5,-307.42 363.5,-307.42 363.5,-243.42 536.5,-243.42 536.5,-307.42"/>
<text text-anchor="start" x="411" y="-293.22" font-family="Helvetica,sans-Serif" font-weight="bold" font-size="14.00"> Class=1 </text>
<text text-anchor="start" x="484" y="-293.22" font-family="Helvetica,sans-Serif" font-size="14.00"> </text>
<text text-anchor="start" x="371.5" y="-279.22" font-family="Helvetica,sans-Serif" font-size="14.00"> error: 0.982, n=1376 </text>
<text text-anchor="start" x="374.5" y="-265.22" font-family="Helvetica,sans-Serif" font-size="14.00"> p: (0.39, 0.24, 0.37) </text>
<text text-anchor="start" x="409.5" y="-251.22" font-family="Helvetica,sans-Serif" font-weight="bold" font-size="14.00">Wifes_age</text>
</g>
<!-- 1&#45;&gt;2 -->
<g id="edge2" class="edge">
<title>1:s&#45;&gt;2:n</title>
<path fill="none" stroke="black" d="M605,-358.42C605,-358.42 493.63,-321.78 459.7,-310.61"/>
<polygon fill="black" stroke="black" points="460.59,-307.22 450,-307.42 458.41,-313.87 460.59,-307.22"/>
<text text-anchor="middle" x="558" y="-329.22" font-family="Helvetica,sans-Serif" font-size="14.00">&gt; 0</text>
</g>
<!-- 6 -->
<g id="node4" class="node">
<title>6</title>
<polygon fill="#c5e544" stroke="black" points="819.5,-307.42 652.5,-307.42 652.5,-243.42 819.5,-243.42 819.5,-307.42"/>
<text text-anchor="start" x="697" y="-293.22" font-family="Helvetica,sans-Serif" font-weight="bold" font-size="14.00"> Class=1 </text>
<text text-anchor="start" x="770" y="-293.22" font-family="Helvetica,sans-Serif" font-size="14.00"> </text>
<text text-anchor="start" x="666.5" y="-279.22" font-family="Helvetica,sans-Serif" font-size="14.00"> error: 0.091, n=97 </text>
<text text-anchor="start" x="660.5" y="-265.22" font-family="Helvetica,sans-Serif" font-size="14.00"> p: (0.98, 0.00, 0.02) </text>
<text text-anchor="start" x="695.5" y="-251.22" font-family="Helvetica,sans-Serif" font-weight="bold" font-size="14.00">Wifes_age</text>
</g>
<!-- 1&#45;&gt;6 -->
<g id="edge3" class="edge">
<title>1:s&#45;&gt;6:n</title>
<path fill="none" stroke="black" d="M605,-358.42C605,-358.42 696.54,-322.78 726.58,-311.09"/>
<polygon fill="black" stroke="black" points="727.95,-314.31 736,-307.42 725.41,-307.79 727.95,-314.31"/>
<text text-anchor="middle" x="705" y="-329.22" font-family="Helvetica,sans-Serif" font-size="14.00">&lt;= 0</text>
</g>
<!-- 3 -->
<g id="node5" class="node">
<title>3</title>
<polygon fill="#3dcc76" stroke="black" points="256,-189.07 0,-189.07 0,-125.07 256,-125.07 256,-189.07"/>
<text text-anchor="start" x="89" y="-174.87" font-family="Helvetica,sans-Serif" font-weight="bold" font-size="14.00"> Class=1 </text>
<text text-anchor="start" x="162" y="-174.87" font-family="Helvetica,sans-Serif" font-size="14.00"> </text>
<text text-anchor="start" x="54" y="-160.87" font-family="Helvetica,sans-Serif" font-size="14.00"> error: 0.846, n=224 </text>
<text text-anchor="start" x="52.5" y="-146.87" font-family="Helvetica,sans-Serif" font-size="14.00"> p: (0.61, 0.25, 0.15) </text>
<text text-anchor="start" x="8" y="-132.87" font-family="Helvetica,sans-Serif" font-weight="bold" font-size="14.00">Number_of_children_ever_born</text>
</g>
<!-- 2&#45;&gt;3 -->
<g id="edge4" class="edge">
<title>2:s&#45;&gt;3:n</title>
<path fill="none" stroke="black" d="M450,-243.42C450,-243.42 192.34,-200.73 137.99,-191.72"/>
<polygon fill="black" stroke="black" points="138.44,-188.25 128,-190.07 137.29,-195.15 138.44,-188.25"/>
<text text-anchor="middle" x="354.5" y="-214.22" font-family="Helvetica,sans-Serif" font-size="14.00">&gt; 42</text>
</g>
<!-- 5 -->
<g id="node6" class="node">
<title>5</title>
<ellipse fill="#3dcc76" stroke="black" cx="450" cy="-157.07" rx="122.16" ry="35.21"/>
<text text-anchor="start" x="411" y="-167.87" font-family="Helvetica,sans-Serif" font-weight="bold" font-size="14.00"> Class=3 </text>
<text text-anchor="start" x="484" y="-167.87" font-family="Helvetica,sans-Serif" font-size="14.00"> </text>
<text text-anchor="start" x="371.5" y="-153.87" font-family="Helvetica,sans-Serif" font-size="14.00"> error: 0.979, n=1152 </text>
<text text-anchor="start" x="374.5" y="-139.87" font-family="Helvetica,sans-Serif" font-size="14.00"> p: (0.35, 0.24, 0.41) </text>
</g>
<!-- 2&#45;&gt;5 -->
<g id="edge5" class="edge">
<title>2:s&#45;&gt;5:n</title>
<path fill="none" stroke="black" d="M450,-243.42C450,-243.42 450,-217.64 450,-202.74"/>
<polygon fill="black" stroke="black" points="453.5,-202.42 450,-192.42 446.5,-202.42 453.5,-202.42"/>
<text text-anchor="middle" x="473.5" y="-214.22" font-family="Helvetica,sans-Serif" font-size="14.00">&lt;= 42</text>
</g>
<!-- 7 -->
<g id="node8" class="node">
<title>7</title>
<ellipse fill="#3dcc76" stroke="black" cx="762" cy="-157.07" rx="118.17" ry="35.21"/>
<text text-anchor="start" x="723" y="-167.87" font-family="Helvetica,sans-Serif" font-weight="bold" font-size="14.00"> Class=1 </text>
<text text-anchor="start" x="796" y="-167.87" font-family="Helvetica,sans-Serif" font-size="14.00"> </text>
<text text-anchor="start" x="692.5" y="-153.87" font-family="Helvetica,sans-Serif" font-size="14.00"> error: 0.053, n=96 </text>
<text text-anchor="start" x="686.5" y="-139.87" font-family="Helvetica,sans-Serif" font-size="14.00"> p: (0.99, 0.00, 0.01) </text>
</g>
<!-- 6&#45;&gt;7 -->
<g id="edge7" class="edge">
<title>6:s&#45;&gt;7:n</title>
<path fill="none" stroke="black" d="M736,-243.42C736,-243.42 749.73,-216.5 757.23,-201.78"/>
<polygon fill="black" stroke="black" points="760.58,-202.92 762,-192.42 754.34,-199.74 760.58,-202.92"/>
<text text-anchor="middle" x="769.5" y="-214.22" font-family="Helvetica,sans-Serif" font-size="14.00">&gt; 17</text>
</g>
<!-- 4 -->
<g id="node7" class="node">
<title>4</title>
<ellipse fill="#4485e5" stroke="black" cx="128" cy="-35.36" rx="118.17" ry="35.21"/>
<text text-anchor="start" x="89" y="-46.16" font-family="Helvetica,sans-Serif" font-weight="bold" font-size="14.00"> Class=1 </text>
<text text-anchor="start" x="162" y="-46.16" font-family="Helvetica,sans-Serif" font-size="14.00"> </text>
<text text-anchor="start" x="54" y="-32.16" font-family="Helvetica,sans-Serif" font-size="14.00"> error: 0.879, n=204 </text>
<text text-anchor="start" x="52.5" y="-18.16" font-family="Helvetica,sans-Serif" font-size="14.00"> p: (0.57, 0.26, 0.16) </text>
</g>
<!-- 3&#45;&gt;4 -->
<g id="edge6" class="edge">
<title>3:s&#45;&gt;4:n</title>
<path fill="none" stroke="black" d="M128,-124.07C128,-124.07 128,-96.5 128,-81"/>
<polygon fill="black" stroke="black" points="131.5,-80.71 128,-70.71 124.5,-80.71 131.5,-80.71"/>
<text text-anchor="middle" x="141" y="-92.51" font-family="Helvetica,sans-Serif" font-size="14.00">&gt; 1</text>
</g>
</g>
</svg>
