<?xml version="1.0" encoding="UTF-8" standalone="no"?>
<!DOCTYPE svg PUBLIC "-//W3C//DTD SVG 1.1//EN"
 "http://www.w3.org/Graphics/SVG/1.1/DTD/svg11.dtd">
<!-- Generated by graphviz version 2.43.0 (0)
 -->
<!-- Title: Tree Pages: 1 -->
<svg width="3497pt" height="768pt"
 viewBox="0.00 0.00 3497.45 768.13" xmlns="http://www.w3.org/2000/svg" xmlns:xlink="http://www.w3.org/1999/xlink">
<g id="graph0" class="graph" transform="scale(1 1) rotate(0) translate(18 750.13)">
<title>Tree</title>
<polygon fill="white" stroke="transparent" points="-18,18 -18,-750.13 3479.45,-750.13 3479.45,18 -18,18"/>
<!-- 0 -->
<g id="node1" class="node">
<title>0</title>
<polygon fill="white" stroke="transparent" points="1916.25,-732.13 1862.25,-732.13 1862.25,-696.13 1916.25,-696.13 1916.25,-732.13"/>
<text text-anchor="middle" x="1889.25" y="-710.43" font-family="Helvetica,sans-Serif" font-size="14.00">0</text>
</g>
<!-- 1 -->
<g id="node2" class="node">
<title>1</title>
<polygon fill="#cc3d3d" stroke="black" points="1994.75,-659.13 1783.75,-659.13 1783.75,-595.13 1994.75,-595.13 1994.75,-659.13"/>
<text text-anchor="start" x="1791.75" y="-644.93" font-family="Helvetica,sans-Serif" font-weight="bold" font-size="14.00"> Class=tested_negative </text>
<text text-anchor="start" x="1981.75" y="-644.93" font-family="Helvetica,sans-Serif" font-size="14.00"> </text>
<text text-anchor="start" x="1815.25" y="-630.93" font-family="Helvetica,sans-Serif" font-size="14.00"> error: 0.933, n=768 </text>
<text text-anchor="start" x="1834.25" y="-616.93" font-family="Helvetica,sans-Serif" font-size="14.00"> p: (0.65, 0.35) </text>
<text text-anchor="start" x="1872.75" y="-602.93" font-family="Helvetica,sans-Serif" font-weight="bold" font-size="14.00">plas</text>
</g>
<!-- 0&#45;&gt;1 -->
<!-- 2 -->
<g id="node3" class="node">
<title>2</title>
<polygon fill="#e5b844" stroke="black" points="1546.25,-544.13 1342.25,-544.13 1342.25,-480.13 1546.25,-480.13 1546.25,-544.13"/>
<text text-anchor="start" x="1350.25" y="-529.93" font-family="Helvetica,sans-Serif" font-weight="bold" font-size="14.00"> Class=tested_positive </text>
<text text-anchor="start" x="1533.25" y="-529.93" font-family="Helvetica,sans-Serif" font-size="14.00"> </text>
<text text-anchor="start" x="1370.25" y="-515.93" font-family="Helvetica,sans-Serif" font-size="14.00"> error: 0.962, n=283 </text>
<text text-anchor="start" x="1389.25" y="-501.93" font-family="Helvetica,sans-Serif" font-size="14.00"> p: (0.39, 0.61) </text>
<text text-anchor="start" x="1427.75" y="-487.93" font-family="Helvetica,sans-Serif" font-weight="bold" font-size="14.00">plas</text>
</g>
<!-- 1&#45;&gt;2 -->
<g id="edge2" class="edge">
<title>1:s&#45;&gt;2:n</title>
<path fill="none" stroke="black" d="M1889.25,-595.13C1889.25,-595.13 1520.62,-552.88 1454.38,-545.29"/>
<polygon fill="black" stroke="black" points="1454.58,-541.79 1444.25,-544.13 1453.79,-548.75 1454.58,-541.79"/>
<text text-anchor="middle" x="1742.25" y="-565.93" font-family="Helvetica,sans-Serif" font-size="14.00">&gt; 127</text>
</g>
<!-- 17 -->
<g id="node4" class="node">
<title>17</title>
<polygon fill="#e5b844" stroke="black" points="2621.75,-544.13 2410.75,-544.13 2410.75,-480.13 2621.75,-480.13 2621.75,-544.13"/>
<text text-anchor="start" x="2418.75" y="-529.93" font-family="Helvetica,sans-Serif" font-weight="bold" font-size="14.00"> Class=tested_negative </text>
<text text-anchor="start" x="2608.75" y="-529.93" font-family="Helvetica,sans-Serif" font-size="14.00"> </text>
<text text-anchor="start" x="2442.25" y="-515.93" font-family="Helvetica,sans-Serif" font-size="14.00"> error: 0.709, n=485 </text>
<text text-anchor="start" x="2461.25" y="-501.93" font-family="Helvetica,sans-Serif" font-size="14.00"> p: (0.81, 0.19) </text>
<text text-anchor="start" x="2501.25" y="-487.93" font-family="Helvetica,sans-Serif" font-weight="bold" font-size="14.00">age</text>
</g>
<!-- 1&#45;&gt;17 -->
<g id="edge3" class="edge">
<title>1:s&#45;&gt;17:n</title>
<path fill="none" stroke="black" d="M1889.25,-595.13C1889.25,-595.13 2425.5,-551.51 2506.15,-544.95"/>
<polygon fill="black" stroke="black" points="2506.57,-548.43 2516.25,-544.13 2506,-541.45 2506.57,-548.43"/>
<text text-anchor="middle" x="2306.25" y="-565.93" font-family="Helvetica,sans-Serif" font-size="14.00">&lt;= 127</text>
</g>
<!-- 3 -->
<g id="node5" class="node">
<title>3</title>
<polygon fill="#8dcc3d" stroke="black" points="1219.25,-429.13 1015.25,-429.13 1015.25,-365.13 1219.25,-365.13 1219.25,-429.13"/>
<text text-anchor="start" x="1023.25" y="-414.93" font-family="Helvetica,sans-Serif" font-weight="bold" font-size="14.00"> Class=tested_positive </text>
<text text-anchor="start" x="1206.25" y="-414.93" font-family="Helvetica,sans-Serif" font-size="14.00"> </text>
<text text-anchor="start" x="1047.75" y="-400.93" font-family="Helvetica,sans-Serif" font-size="14.00"> error: 0.582, n=79 </text>
<text text-anchor="start" x="1062.25" y="-386.93" font-family="Helvetica,sans-Serif" font-size="14.00"> p: (0.14, 0.86) </text>
<text text-anchor="start" x="1100.75" y="-372.93" font-family="Helvetica,sans-Serif" font-weight="bold" font-size="14.00">plas</text>
</g>
<!-- 2&#45;&gt;3 -->
<g id="edge4" class="edge">
<title>2:s&#45;&gt;3:n</title>
<path fill="none" stroke="black" d="M1444.25,-480.13C1444.25,-480.13 1182.59,-439.32 1127.39,-430.71"/>
<polygon fill="black" stroke="black" points="1127.67,-427.21 1117.25,-429.13 1126.59,-434.13 1127.67,-427.21"/>
<text text-anchor="middle" x="1342.25" y="-450.93" font-family="Helvetica,sans-Serif" font-size="14.00">&gt; 166</text>
</g>
<!-- 8 -->
<g id="node6" class="node">
<title>8</title>
<polygon fill="#8dcc3d" stroke="black" points="1546.25,-429.13 1342.25,-429.13 1342.25,-365.13 1546.25,-365.13 1546.25,-429.13"/>
<text text-anchor="start" x="1350.25" y="-414.93" font-family="Helvetica,sans-Serif" font-weight="bold" font-size="14.00"> Class=tested_positive </text>
<text text-anchor="start" x="1533.25" y="-414.93" font-family="Helvetica,sans-Serif" font-size="14.00"> </text>
<text text-anchor="start" x="1370.25" y="-400.93" font-family="Helvetica,sans-Serif" font-size="14.00"> error: 0.999, n=204 </text>
<text text-anchor="start" x="1389.25" y="-386.93" font-family="Helvetica,sans-Serif" font-size="14.00"> p: (0.48, 0.52) </text>
<text text-anchor="start" x="1423.75" y="-372.93" font-family="Helvetica,sans-Serif" font-weight="bold" font-size="14.00">mass</text>
</g>
<!-- 2&#45;&gt;8 -->
<g id="edge5" class="edge">
<title>2:s&#45;&gt;8:n</title>
<path fill="none" stroke="black" d="M1444.25,-480.13C1444.25,-480.13 1444.25,-454.35 1444.25,-439.45"/>
<polygon fill="black" stroke="black" points="1447.75,-439.13 1444.25,-429.13 1440.75,-439.13 1447.75,-439.13"/>
<text text-anchor="middle" x="1472.25" y="-450.93" font-family="Helvetica,sans-Serif" font-size="14.00">&lt;= 166</text>
</g>
<!-- 18 -->
<g id="node19" class="node">
<title>18</title>
<polygon fill="#8dcc3d" stroke="black" points="2621.75,-429.13 2410.75,-429.13 2410.75,-365.13 2621.75,-365.13 2621.75,-429.13"/>
<text text-anchor="start" x="2418.75" y="-414.93" font-family="Helvetica,sans-Serif" font-weight="bold" font-size="14.00"> Class=tested_negative </text>
<text text-anchor="start" x="2608.75" y="-414.93" font-family="Helvetica,sans-Serif" font-size="14.00"> </text>
<text text-anchor="start" x="2442.25" y="-400.93" font-family="Helvetica,sans-Serif" font-size="14.00"> error: 0.896, n=237 </text>
<text text-anchor="start" x="2461.25" y="-386.93" font-family="Helvetica,sans-Serif" font-size="14.00"> p: (0.69, 0.31) </text>
<text text-anchor="start" x="2495.75" y="-372.93" font-family="Helvetica,sans-Serif" font-weight="bold" font-size="14.00">mass</text>
</g>
<!-- 17&#45;&gt;18 -->
<g id="edge18" class="edge">
<title>17:s&#45;&gt;18:n</title>
<path fill="none" stroke="black" d="M2516.25,-480.13C2516.25,-480.13 2516.25,-454.35 2516.25,-439.45"/>
<polygon fill="black" stroke="black" points="2519.75,-439.13 2516.25,-429.13 2512.75,-439.13 2519.75,-439.13"/>
<text text-anchor="middle" x="2533.75" y="-450.93" font-family="Helvetica,sans-Serif" font-size="14.00">&gt; 27</text>
</g>
<!-- 28 -->
<g id="node20" class="node">
<title>28</title>
<polygon fill="#8dcc3d" stroke="black" points="3090.75,-429.13 2879.75,-429.13 2879.75,-365.13 3090.75,-365.13 3090.75,-429.13"/>
<text text-anchor="start" x="2887.75" y="-414.93" font-family="Helvetica,sans-Serif" font-weight="bold" font-size="14.00"> Class=tested_negative </text>
<text text-anchor="start" x="3077.75" y="-414.93" font-family="Helvetica,sans-Serif" font-size="14.00"> </text>
<text text-anchor="start" x="2911.25" y="-400.93" font-family="Helvetica,sans-Serif" font-size="14.00"> error: 0.404, n=248 </text>
<text text-anchor="start" x="2930.25" y="-386.93" font-family="Helvetica,sans-Serif" font-size="14.00"> p: (0.92, 0.08) </text>
<text text-anchor="start" x="2964.75" y="-372.93" font-family="Helvetica,sans-Serif" font-weight="bold" font-size="14.00">mass</text>
</g>
<!-- 17&#45;&gt;28 -->
<g id="edge19" class="edge">
<title>17:s&#45;&gt;28:n</title>
<path fill="none" stroke="black" d="M2516.25,-480.13C2516.25,-480.13 2906.43,-437.7 2975.02,-430.24"/>
<polygon fill="black" stroke="black" points="2975.69,-433.69 2985.25,-429.13 2974.93,-426.73 2975.69,-433.69"/>
<text text-anchor="middle" x="2830.75" y="-450.93" font-family="Helvetica,sans-Serif" font-size="14.00">&lt;= 27</text>
</g>
<!-- 4 -->
<g id="node7" class="node">
<title>4</title>
<polygon fill="#44e55e" stroke="black" points="939.25,-310.78 735.25,-310.78 735.25,-246.78 939.25,-246.78 939.25,-310.78"/>
<text text-anchor="start" x="743.25" y="-296.58" font-family="Helvetica,sans-Serif" font-weight="bold" font-size="14.00"> Class=tested_positive </text>
<text text-anchor="start" x="926.25" y="-296.58" font-family="Helvetica,sans-Serif" font-size="14.00"> </text>
<text text-anchor="start" x="767.75" y="-282.58" font-family="Helvetica,sans-Serif" font-size="14.00"> error: 0.650, n=66 </text>
<text text-anchor="start" x="782.25" y="-268.58" font-family="Helvetica,sans-Serif" font-size="14.00"> p: (0.17, 0.83) </text>
<text text-anchor="start" x="819.75" y="-254.58" font-family="Helvetica,sans-Serif" font-weight="bold" font-size="14.00">pres</text>
</g>
<!-- 3&#45;&gt;4 -->
<g id="edge6" class="edge">
<title>3:s&#45;&gt;4:n</title>
<path fill="none" stroke="black" d="M1117.25,-365.13C1117.25,-365.13 897.09,-323.18 847.22,-313.68"/>
<polygon fill="black" stroke="black" points="847.73,-310.21 837.25,-311.78 846.42,-317.09 847.73,-310.21"/>
<text text-anchor="middle" x="1041.25" y="-335.93" font-family="Helvetica,sans-Serif" font-size="14.00">&gt; 171</text>
</g>
<!-- 9 -->
<g id="node11" class="node">
<title>9</title>
<polygon fill="#44e55e" stroke="black" points="1326.25,-310.78 1122.25,-310.78 1122.25,-246.78 1326.25,-246.78 1326.25,-310.78"/>
<text text-anchor="start" x="1130.25" y="-296.58" font-family="Helvetica,sans-Serif" font-weight="bold" font-size="14.00"> Class=tested_positive </text>
<text text-anchor="start" x="1313.25" y="-296.58" font-family="Helvetica,sans-Serif" font-size="14.00"> </text>
<text text-anchor="start" x="1150.25" y="-282.58" font-family="Helvetica,sans-Serif" font-size="14.00"> error: 0.939, n=138 </text>
<text text-anchor="start" x="1169.25" y="-268.58" font-family="Helvetica,sans-Serif" font-size="14.00"> p: (0.36, 0.64) </text>
<text text-anchor="start" x="1205.75" y="-254.58" font-family="Helvetica,sans-Serif" font-weight="bold" font-size="14.00">preg</text>
</g>
<!-- 8&#45;&gt;9 -->
<g id="edge10" class="edge">
<title>8:s&#45;&gt;9:n</title>
<path fill="none" stroke="black" d="M1444.25,-365.13C1444.25,-365.13 1276.56,-324.46 1233.99,-314.14"/>
<polygon fill="black" stroke="black" points="1234.79,-310.73 1224.25,-311.78 1233.14,-317.54 1234.79,-310.73"/>
<text text-anchor="middle" x="1391.75" y="-335.93" font-family="Helvetica,sans-Serif" font-size="14.00">&gt; 30.1</text>
</g>
<!-- 14 -->
<g id="node12" class="node">
<title>14</title>
<polygon fill="#44e55e" stroke="black" points="1651.75,-310.78 1440.75,-310.78 1440.75,-246.78 1651.75,-246.78 1651.75,-310.78"/>
<text text-anchor="start" x="1448.75" y="-296.58" font-family="Helvetica,sans-Serif" font-weight="bold" font-size="14.00"> Class=tested_negative </text>
<text text-anchor="start" x="1638.75" y="-296.58" font-family="Helvetica,sans-Serif" font-size="14.00"> </text>
<text text-anchor="start" x="1476.75" y="-282.58" font-family="Helvetica,sans-Serif" font-size="14.00"> error: 0.823, n=66 </text>
<text text-anchor="start" x="1491.25" y="-268.58" font-family="Helvetica,sans-Serif" font-size="14.00"> p: (0.74, 0.26) </text>
<text text-anchor="start" x="1527.75" y="-254.58" font-family="Helvetica,sans-Serif" font-weight="bold" font-size="14.00">preg</text>
</g>
<!-- 8&#45;&gt;14 -->
<g id="edge11" class="edge">
<title>8:s&#45;&gt;14:n</title>
<path fill="none" stroke="black" d="M1444.25,-365.13C1444.25,-365.13 1512.23,-329.57 1537.2,-316.51"/>
<polygon fill="black" stroke="black" points="1539.01,-319.51 1546.25,-311.78 1535.77,-313.31 1539.01,-319.51"/>
<text text-anchor="middle" x="1535.75" y="-335.93" font-family="Helvetica,sans-Serif" font-size="14.00">&lt;= 30.1</text>
</g>
<!-- 5 -->
<g id="node8" class="node">
<title>5</title>
<polygon fill="#3dccba" stroke="black" points="606.25,-189.07 402.25,-189.07 402.25,-125.07 606.25,-125.07 606.25,-189.07"/>
<text text-anchor="start" x="410.25" y="-174.87" font-family="Helvetica,sans-Serif" font-weight="bold" font-size="14.00"> Class=tested_positive </text>
<text text-anchor="start" x="593.25" y="-174.87" font-family="Helvetica,sans-Serif" font-size="14.00"> </text>
<text text-anchor="start" x="434.75" y="-160.87" font-family="Helvetica,sans-Serif" font-size="14.00"> error: 0.592, n=63 </text>
<text text-anchor="start" x="449.25" y="-146.87" font-family="Helvetica,sans-Serif" font-size="14.00"> p: (0.14, 0.86) </text>
<text text-anchor="start" x="488.25" y="-132.87" font-family="Helvetica,sans-Serif" font-weight="bold" font-size="14.00">skin</text>
</g>
<!-- 4&#45;&gt;5 -->
<g id="edge7" class="edge">
<title>4:s&#45;&gt;5:n</title>
<path fill="none" stroke="black" d="M837.25,-245.78C837.25,-245.78 569.62,-201 514.22,-191.73"/>
<polygon fill="black" stroke="black" points="514.69,-188.26 504.25,-190.07 513.54,-195.17 514.69,-188.26"/>
<text text-anchor="middle" x="734.75" y="-214.22" font-family="Helvetica,sans-Serif" font-size="14.00">&lt;= 94</text>
</g>
<!-- 6 -->
<g id="node9" class="node">
<title>6</title>
<ellipse fill="#4485e5" stroke="black" cx="144.25" cy="-35.36" rx="144.5" ry="35.21"/>
<text text-anchor="start" x="50.25" y="-46.16" font-family="Helvetica,sans-Serif" font-weight="bold" font-size="14.00"> Class=tested_positive </text>
<text text-anchor="start" x="233.25" y="-46.16" font-family="Helvetica,sans-Serif" font-size="14.00"> </text>
<text text-anchor="start" x="74.75" y="-32.16" font-family="Helvetica,sans-Serif" font-size="14.00"> error: 0.310, n=36 </text>
<text text-anchor="start" x="89.25" y="-18.16" font-family="Helvetica,sans-Serif" font-size="14.00"> p: (0.06, 0.94) </text>
</g>
<!-- 5&#45;&gt;6 -->
<g id="edge8" class="edge">
<title>5:s&#45;&gt;6:n</title>
<path fill="none" stroke="black" d="M504.25,-124.07C504.25,-124.07 212.4,-80.81 154.25,-72.19"/>
<polygon fill="black" stroke="black" points="154.65,-68.71 144.25,-70.71 153.63,-75.64 154.65,-68.71"/>
<text text-anchor="middle" x="374.75" y="-92.51" font-family="Helvetica,sans-Serif" font-size="14.00">&gt; 26</text>
</g>
<!-- 7 -->
<g id="node10" class="node">
<title>7</title>
<ellipse fill="#4485e5" stroke="black" cx="504.25" cy="-35.36" rx="144.5" ry="35.21"/>
<text text-anchor="start" x="410.25" y="-46.16" font-family="Helvetica,sans-Serif" font-weight="bold" font-size="14.00"> Class=tested_positive </text>
<text text-anchor="start" x="593.25" y="-46.16" font-family="Helvetica,sans-Serif" font-size="14.00"> </text>
<text text-anchor="start" x="434.75" y="-32.16" font-family="Helvetica,sans-Serif" font-size="14.00"> error: 0.826, n=27 </text>
<text text-anchor="start" x="449.25" y="-18.16" font-family="Helvetica,sans-Serif" font-size="14.00"> p: (0.26, 0.74) </text>
</g>
<!-- 5&#45;&gt;7 -->
<g id="edge9" class="edge">
<title>5:s&#45;&gt;7:n</title>
<path fill="none" stroke="black" d="M504.25,-124.07C504.25,-124.07 504.25,-96.5 504.25,-81"/>
<polygon fill="black" stroke="black" points="507.75,-80.71 504.25,-70.71 500.75,-80.71 507.75,-80.71"/>
<text text-anchor="middle" x="527.75" y="-92.51" font-family="Helvetica,sans-Serif" font-size="14.00">&lt;= 26</text>
</g>
<!-- 10 -->
<g id="node13" class="node">
<title>10</title>
<polygon fill="#3dccba" stroke="black" points="1008.25,-189.07 804.25,-189.07 804.25,-125.07 1008.25,-125.07 1008.25,-189.07"/>
<text text-anchor="start" x="812.25" y="-174.87" font-family="Helvetica,sans-Serif" font-weight="bold" font-size="14.00"> Class=tested_positive </text>
<text text-anchor="start" x="995.25" y="-174.87" font-family="Helvetica,sans-Serif" font-size="14.00"> </text>
<text text-anchor="start" x="836.75" y="-160.87" font-family="Helvetica,sans-Serif" font-size="14.00"> error: 0.637, n=31 </text>
<text text-anchor="start" x="851.25" y="-146.87" font-family="Helvetica,sans-Serif" font-size="14.00"> p: (0.16, 0.84) </text>
<text text-anchor="start" x="888.75" y="-132.87" font-family="Helvetica,sans-Serif" font-weight="bold" font-size="14.00">pres</text>
</g>
<!-- 9&#45;&gt;10 -->
<g id="edge12" class="edge">
<title>9:s&#45;&gt;10:n</title>
<path fill="none" stroke="black" d="M1224.25,-245.78C1224.25,-245.78 969.79,-201.2 916.12,-191.79"/>
<polygon fill="black" stroke="black" points="916.7,-188.34 906.25,-190.07 915.5,-195.24 916.7,-188.34"/>
<text text-anchor="middle" x="1116.25" y="-214.22" font-family="Helvetica,sans-Serif" font-size="14.00">&gt; 7</text>
</g>
<!-- 12 -->
<g id="node14" class="node">
<title>12</title>
<polygon fill="#3dccba" stroke="black" points="1326.25,-189.07 1122.25,-189.07 1122.25,-125.07 1326.25,-125.07 1326.25,-189.07"/>
<text text-anchor="start" x="1130.25" y="-174.87" font-family="Helvetica,sans-Serif" font-weight="bold" font-size="14.00"> Class=tested_positive </text>
<text text-anchor="start" x="1313.25" y="-174.87" font-family="Helvetica,sans-Serif" font-size="14.00"> </text>
<text text-anchor="start" x="1150.25" y="-160.87" font-family="Helvetica,sans-Serif" font-size="14.00"> error: 0.977, n=107 </text>
<text text-anchor="start" x="1169.25" y="-146.87" font-family="Helvetica,sans-Serif" font-size="14.00"> p: (0.41, 0.59) </text>
<text text-anchor="start" x="1206.75" y="-132.87" font-family="Helvetica,sans-Serif" font-weight="bold" font-size="14.00">pres</text>
</g>
<!-- 9&#45;&gt;12 -->
<g id="edge13" class="edge">
<title>9:s&#45;&gt;12:n</title>
<path fill="none" stroke="black" d="M1224.25,-245.78C1224.25,-245.78 1224.25,-216.37 1224.25,-200.28"/>
<polygon fill="black" stroke="black" points="1227.75,-200.07 1224.25,-190.07 1220.75,-200.07 1227.75,-200.07"/>
<text text-anchor="middle" x="1243.25" y="-214.22" font-family="Helvetica,sans-Serif" font-size="14.00">&lt;= 7</text>
</g>
<!-- 15 -->
<g id="node17" class="node">
<title>15</title>
<polygon fill="#3dccba" stroke="black" points="1673.75,-189.07 1462.75,-189.07 1462.75,-125.07 1673.75,-125.07 1673.75,-189.07"/>
<text text-anchor="start" x="1470.75" y="-174.87" font-family="Helvetica,sans-Serif" font-weight="bold" font-size="14.00"> Class=tested_negative </text>
<text text-anchor="start" x="1660.75" y="-174.87" font-family="Helvetica,sans-Serif" font-size="14.00"> </text>
<text text-anchor="start" x="1498.75" y="-160.87" font-family="Helvetica,sans-Serif" font-size="14.00"> error: 0.918, n=48 </text>
<text text-anchor="start" x="1513.25" y="-146.87" font-family="Helvetica,sans-Serif" font-size="14.00"> p: (0.67, 0.33) </text>
<text text-anchor="start" x="1550.75" y="-132.87" font-family="Helvetica,sans-Serif" font-weight="bold" font-size="14.00">pres</text>
</g>
<!-- 14&#45;&gt;15 -->
<g id="edge16" class="edge">
<title>14:s&#45;&gt;15:n</title>
<path fill="none" stroke="black" d="M1546.25,-245.78C1546.25,-245.78 1558.24,-215.41 1564.52,-199.52"/>
<polygon fill="black" stroke="black" points="1567.83,-200.65 1568.25,-190.07 1561.32,-198.08 1567.83,-200.65"/>
<text text-anchor="middle" x="1573.25" y="-214.22" font-family="Helvetica,sans-Serif" font-size="14.00">&gt; 1</text>
</g>
<!-- 11 -->
<g id="node15" class="node">
<title>11</title>
<ellipse fill="#4485e5" stroke="black" cx="864.25" cy="-35.36" rx="144.5" ry="35.21"/>
<text text-anchor="start" x="770.25" y="-46.16" font-family="Helvetica,sans-Serif" font-weight="bold" font-size="14.00"> Class=tested_positive </text>
<text text-anchor="start" x="953.25" y="-46.16" font-family="Helvetica,sans-Serif" font-size="14.00"> </text>
<text text-anchor="start" x="794.75" y="-32.16" font-family="Helvetica,sans-Serif" font-size="14.00"> error: 0.811, n=20 </text>
<text text-anchor="start" x="809.25" y="-18.16" font-family="Helvetica,sans-Serif" font-size="14.00"> p: (0.25, 0.75) </text>
</g>
<!-- 10&#45;&gt;11 -->
<g id="edge14" class="edge">
<title>10:s&#45;&gt;11:n</title>
<path fill="none" stroke="black" d="M906.25,-124.07C906.25,-124.07 882.13,-93.43 870.45,-78.58"/>
<polygon fill="black" stroke="black" points="873.19,-76.4 864.25,-70.71 867.68,-80.73 873.19,-76.4"/>
<text text-anchor="middle" x="906.75" y="-92.51" font-family="Helvetica,sans-Serif" font-size="14.00">&gt; 74</text>
</g>
<!-- 13 -->
<g id="node16" class="node">
<title>13</title>
<ellipse fill="#4485e5" stroke="black" cx="1224.25" cy="-35.36" rx="144.5" ry="35.21"/>
<text text-anchor="start" x="1130.25" y="-46.16" font-family="Helvetica,sans-Serif" font-weight="bold" font-size="14.00"> Class=tested_positive </text>
<text text-anchor="start" x="1313.25" y="-46.16" font-family="Helvetica,sans-Serif" font-size="14.00"> </text>
<text text-anchor="start" x="1154.75" y="-32.16" font-family="Helvetica,sans-Serif" font-size="14.00"> error: 0.994, n=95 </text>
<text text-anchor="start" x="1169.25" y="-18.16" font-family="Helvetica,sans-Serif" font-size="14.00"> p: (0.45, 0.55) </text>
</g>
<!-- 12&#45;&gt;13 -->
<g id="edge15" class="edge">
<title>12:s&#45;&gt;13:n</title>
<path fill="none" stroke="black" d="M1224.25,-124.07C1224.25,-124.07 1224.25,-96.5 1224.25,-81"/>
<polygon fill="black" stroke="black" points="1227.75,-80.71 1224.25,-70.71 1220.75,-80.71 1227.75,-80.71"/>
<text text-anchor="middle" x="1241.75" y="-92.51" font-family="Helvetica,sans-Serif" font-size="14.00">&gt; 58</text>
</g>
<!-- 16 -->
<g id="node18" class="node">
<title>16</title>
<ellipse fill="#4485e5" stroke="black" cx="1589.25" cy="-35.36" rx="149.4" ry="35.21"/>
<text text-anchor="start" x="1491.75" y="-46.16" font-family="Helvetica,sans-Serif" font-weight="bold" font-size="14.00"> Class=tested_negative </text>
<text text-anchor="start" x="1681.75" y="-46.16" font-family="Helvetica,sans-Serif" font-size="14.00"> </text>
<text text-anchor="start" x="1519.75" y="-32.16" font-family="Helvetica,sans-Serif" font-size="14.00"> error: 0.867, n=45 </text>
<text text-anchor="start" x="1534.25" y="-18.16" font-family="Helvetica,sans-Serif" font-size="14.00"> p: (0.71, 0.29) </text>
</g>
<!-- 15&#45;&gt;16 -->
<g id="edge17" class="edge">
<title>15:s&#45;&gt;16:n</title>
<path fill="none" stroke="black" d="M1568.25,-124.07C1568.25,-124.07 1579.34,-95.9 1585.4,-80.5"/>
<polygon fill="black" stroke="black" points="1588.84,-81.3 1589.25,-70.71 1582.33,-78.73 1588.84,-81.3"/>
<text text-anchor="middle" x="1599.75" y="-92.51" font-family="Helvetica,sans-Serif" font-size="14.00">&gt; 54</text>
</g>
<!-- 19 -->
<g id="node21" class="node">
<title>19</title>
<polygon fill="#44e55e" stroke="black" points="2480.75,-310.78 2269.75,-310.78 2269.75,-246.78 2480.75,-246.78 2480.75,-310.78"/>
<text text-anchor="start" x="2277.75" y="-296.58" font-family="Helvetica,sans-Serif" font-weight="bold" font-size="14.00"> Class=tested_negative </text>
<text text-anchor="start" x="2467.75" y="-296.58" font-family="Helvetica,sans-Serif" font-size="14.00"> </text>
<text text-anchor="start" x="2301.25" y="-282.58" font-family="Helvetica,sans-Serif" font-size="14.00"> error: 0.958, n=187 </text>
<text text-anchor="start" x="2320.25" y="-268.58" font-family="Helvetica,sans-Serif" font-size="14.00"> p: (0.62, 0.38) </text>
<text text-anchor="start" x="2358.75" y="-254.58" font-family="Helvetica,sans-Serif" font-weight="bold" font-size="14.00">plas</text>
</g>
<!-- 18&#45;&gt;19 -->
<g id="edge20" class="edge">
<title>18:s&#45;&gt;19:n</title>
<path fill="none" stroke="black" d="M2516.25,-365.13C2516.25,-365.13 2416.8,-327.5 2384.94,-315.44"/>
<polygon fill="black" stroke="black" points="2385.84,-312.04 2375.25,-311.78 2383.36,-318.59 2385.84,-312.04"/>
<text text-anchor="middle" x="2465.75" y="-335.93" font-family="Helvetica,sans-Serif" font-size="14.00">&gt; 26.6</text>
</g>
<!-- 25 -->
<g id="node22" class="node">
<title>25</title>
<polygon fill="#44e55e" stroke="black" points="2763.75,-310.78 2552.75,-310.78 2552.75,-246.78 2763.75,-246.78 2763.75,-310.78"/>
<text text-anchor="start" x="2560.75" y="-296.58" font-family="Helvetica,sans-Serif" font-weight="bold" font-size="14.00"> Class=tested_negative </text>
<text text-anchor="start" x="2750.75" y="-296.58" font-family="Helvetica,sans-Serif" font-size="14.00"> </text>
<text text-anchor="start" x="2588.75" y="-282.58" font-family="Helvetica,sans-Serif" font-size="14.00"> error: 0.327, n=50 </text>
<text text-anchor="start" x="2603.25" y="-268.58" font-family="Helvetica,sans-Serif" font-size="14.00"> p: (0.94, 0.06) </text>
<text text-anchor="start" x="2637.75" y="-254.58" font-family="Helvetica,sans-Serif" font-weight="bold" font-size="14.00">mass</text>
</g>
<!-- 18&#45;&gt;25 -->
<g id="edge21" class="edge">
<title>18:s&#45;&gt;25:n</title>
<path fill="none" stroke="black" d="M2516.25,-365.13C2516.25,-365.13 2616.41,-327.5 2648.49,-315.44"/>
<polygon fill="black" stroke="black" points="2650.12,-318.57 2658.25,-311.78 2647.66,-312.02 2650.12,-318.57"/>
<text text-anchor="middle" x="2630.75" y="-335.93" font-family="Helvetica,sans-Serif" font-size="14.00">&lt;= 26.6</text>
</g>
<!-- 29 -->
<g id="node30" class="node">
<title>29</title>
<ellipse fill="#44e55e" stroke="black" cx="2985.25" cy="-278.78" rx="149.4" ry="35.21"/>
<text text-anchor="start" x="2887.75" y="-289.58" font-family="Helvetica,sans-Serif" font-weight="bold" font-size="14.00"> Class=tested_negative </text>
<text text-anchor="start" x="3077.75" y="-289.58" font-family="Helvetica,sans-Serif" font-size="14.00"> </text>
<text text-anchor="start" x="2911.25" y="-275.58" font-family="Helvetica,sans-Serif" font-size="14.00"> error: 0.568, n=142 </text>
<text text-anchor="start" x="2930.25" y="-261.58" font-family="Helvetica,sans-Serif" font-size="14.00"> p: (0.87, 0.13) </text>
</g>
<!-- 28&#45;&gt;29 -->
<g id="edge29" class="edge">
<title>28:s&#45;&gt;29:n</title>
<path fill="none" stroke="black" d="M2985.25,-365.13C2985.25,-365.13 2985.25,-339.35 2985.25,-324.45"/>
<polygon fill="black" stroke="black" points="2988.75,-324.13 2985.25,-314.13 2981.75,-324.13 2988.75,-324.13"/>
<text text-anchor="middle" x="3009.75" y="-335.93" font-family="Helvetica,sans-Serif" font-size="14.00">&gt; 28.1</text>
</g>
<!-- 30 -->
<g id="node31" class="node">
<title>30</title>
<polygon fill="#44e55e" stroke="black" points="3417.75,-310.78 3206.75,-310.78 3206.75,-246.78 3417.75,-246.78 3417.75,-310.78"/>
<text text-anchor="start" x="3214.75" y="-296.58" font-family="Helvetica,sans-Serif" font-weight="bold" font-size="14.00"> Class=tested_negative </text>
<text text-anchor="start" x="3404.75" y="-296.58" font-family="Helvetica,sans-Serif" font-size="14.00"> </text>
<text text-anchor="start" x="3238.25" y="-282.58" font-family="Helvetica,sans-Serif" font-size="14.00"> error: 0.077, n=106 </text>
<text text-anchor="start" x="3257.25" y="-268.58" font-family="Helvetica,sans-Serif" font-size="14.00"> p: (0.99, 0.01) </text>
<text text-anchor="start" x="3295.25" y="-254.58" font-family="Helvetica,sans-Serif" font-weight="bold" font-size="14.00">pedi</text>
</g>
<!-- 28&#45;&gt;30 -->
<g id="edge30" class="edge">
<title>28:s&#45;&gt;30:n</title>
<path fill="none" stroke="black" d="M2985.25,-365.13C2985.25,-365.13 3246.91,-322.44 3302.1,-313.43"/>
<polygon fill="black" stroke="black" points="3302.94,-316.84 3312.25,-311.78 3301.82,-309.93 3302.94,-316.84"/>
<text text-anchor="middle" x="3208.75" y="-335.93" font-family="Helvetica,sans-Serif" font-size="14.00">&lt;= 28.1</text>
</g>
<!-- 20 -->
<g id="node23" class="node">
<title>20</title>
<polygon fill="#3dccba" stroke="black" points="2424.75,-189.07 2213.75,-189.07 2213.75,-125.07 2424.75,-125.07 2424.75,-189.07"/>
<text text-anchor="start" x="2221.75" y="-174.87" font-family="Helvetica,sans-Serif" font-weight="bold" font-size="14.00"> Class=tested_negative </text>
<text text-anchor="start" x="2411.75" y="-174.87" font-family="Helvetica,sans-Serif" font-size="14.00"> </text>
<text text-anchor="start" x="2245.25" y="-160.87" font-family="Helvetica,sans-Serif" font-size="14.00"> error: 0.994, n=139 </text>
<text text-anchor="start" x="2264.25" y="-146.87" font-family="Helvetica,sans-Serif" font-size="14.00"> p: (0.55, 0.45) </text>
<text text-anchor="start" x="2302.25" y="-132.87" font-family="Helvetica,sans-Serif" font-weight="bold" font-size="14.00">pedi</text>
</g>
<!-- 19&#45;&gt;20 -->
<g id="edge22" class="edge">
<title>19:s&#45;&gt;20:n</title>
<path fill="none" stroke="black" d="M2375.25,-245.78C2375.25,-245.78 2341.75,-212.45 2326.57,-197.35"/>
<polygon fill="black" stroke="black" points="2328.81,-194.64 2319.25,-190.07 2323.87,-199.6 2328.81,-194.64"/>
<text text-anchor="middle" x="2371.75" y="-214.22" font-family="Helvetica,sans-Serif" font-size="14.00">&gt; 95</text>
</g>
<!-- 23 -->
<g id="node24" class="node">
<title>23</title>
<polygon fill="#3dccba" stroke="black" points="2759.75,-189.07 2548.75,-189.07 2548.75,-125.07 2759.75,-125.07 2759.75,-189.07"/>
<text text-anchor="start" x="2556.75" y="-174.87" font-family="Helvetica,sans-Serif" font-weight="bold" font-size="14.00"> Class=tested_negative </text>
<text text-anchor="start" x="2746.75" y="-174.87" font-family="Helvetica,sans-Serif" font-size="14.00"> </text>
<text text-anchor="start" x="2584.75" y="-160.87" font-family="Helvetica,sans-Serif" font-size="14.00"> error: 0.650, n=48 </text>
<text text-anchor="start" x="2599.25" y="-146.87" font-family="Helvetica,sans-Serif" font-size="14.00"> p: (0.83, 0.17) </text>
<text text-anchor="start" x="2637.75" y="-132.87" font-family="Helvetica,sans-Serif" font-weight="bold" font-size="14.00">plas</text>
</g>
<!-- 19&#45;&gt;23 -->
<g id="edge23" class="edge">
<title>19:s&#45;&gt;23:n</title>
<path fill="none" stroke="black" d="M2375.25,-245.78C2375.25,-245.78 2594.62,-201.97 2644.32,-192.05"/>
<polygon fill="black" stroke="black" points="2645.13,-195.46 2654.25,-190.07 2643.76,-188.59 2645.13,-195.46"/>
<text text-anchor="middle" x="2571.75" y="-214.22" font-family="Helvetica,sans-Serif" font-size="14.00">&lt;= 95</text>
</g>
<!-- 26 -->
<g id="node28" class="node">
<title>26</title>
<polygon fill="#3dccba" stroke="black" points="3074.75,-189.07 2863.75,-189.07 2863.75,-125.07 3074.75,-125.07 3074.75,-189.07"/>
<text text-anchor="start" x="2871.75" y="-174.87" font-family="Helvetica,sans-Serif" font-weight="bold" font-size="14.00"> Class=tested_negative </text>
<text text-anchor="start" x="3061.75" y="-174.87" font-family="Helvetica,sans-Serif" font-size="14.00"> </text>
<text text-anchor="start" x="2899.75" y="-160.87" font-family="Helvetica,sans-Serif" font-size="14.00"> error: 0.156, n=44 </text>
<text text-anchor="start" x="2914.25" y="-146.87" font-family="Helvetica,sans-Serif" font-size="14.00"> p: (0.98, 0.02) </text>
<text text-anchor="start" x="2948.75" y="-132.87" font-family="Helvetica,sans-Serif" font-weight="bold" font-size="14.00">mass</text>
</g>
<!-- 25&#45;&gt;26 -->
<g id="edge27" class="edge">
<title>25:s&#45;&gt;26:n</title>
<path fill="none" stroke="black" d="M2658.25,-245.78C2658.25,-245.78 2906.02,-201.39 2959.25,-191.86"/>
<polygon fill="black" stroke="black" points="2960.02,-195.27 2969.25,-190.07 2958.79,-188.38 2960.02,-195.27"/>
<text text-anchor="middle" x="2875.75" y="-214.22" font-family="Helvetica,sans-Serif" font-size="14.00">&gt; 19.9</text>
</g>
<!-- 21 -->
<g id="node25" class="node">
<title>21</title>
<ellipse fill="#4485e5" stroke="black" cx="1954.25" cy="-35.36" rx="144.5" ry="35.21"/>
<text text-anchor="start" x="1860.25" y="-46.16" font-family="Helvetica,sans-Serif" font-weight="bold" font-size="14.00"> Class=tested_positive </text>
<text text-anchor="start" x="2043.25" y="-46.16" font-family="Helvetica,sans-Serif" font-size="14.00"> </text>
<text text-anchor="start" x="1884.75" y="-32.16" font-family="Helvetica,sans-Serif" font-size="14.00"> error: 0.932, n=46 </text>
<text text-anchor="start" x="1899.25" y="-18.16" font-family="Helvetica,sans-Serif" font-size="14.00"> p: (0.35, 0.65) </text>
</g>
<!-- 20&#45;&gt;21 -->
<g id="edge24" class="edge">
<title>20:s&#45;&gt;21:n</title>
<path fill="none" stroke="black" d="M2319.25,-124.07C2319.25,-124.07 2023.34,-80.81 1964.39,-72.19"/>
<polygon fill="black" stroke="black" points="1964.65,-68.69 1954.25,-70.71 1963.64,-75.62 1964.65,-68.69"/>
<text text-anchor="middle" x="2199.25" y="-92.51" font-family="Helvetica,sans-Serif" font-size="14.00">&gt; 0.512</text>
</g>
<!-- 22 -->
<g id="node26" class="node">
<title>22</title>
<ellipse fill="#4485e5" stroke="black" cx="2319.25" cy="-35.36" rx="149.4" ry="35.21"/>
<text text-anchor="start" x="2221.75" y="-46.16" font-family="Helvetica,sans-Serif" font-weight="bold" font-size="14.00"> Class=tested_negative </text>
<text text-anchor="start" x="2411.75" y="-46.16" font-family="Helvetica,sans-Serif" font-size="14.00"> </text>
<text text-anchor="start" x="2249.75" y="-32.16" font-family="Helvetica,sans-Serif" font-size="14.00"> error: 0.938, n=93 </text>
<text text-anchor="start" x="2264.25" y="-18.16" font-family="Helvetica,sans-Serif" font-size="14.00"> p: (0.65, 0.35) </text>
</g>
<!-- 20&#45;&gt;22 -->
<g id="edge25" class="edge">
<title>20:s&#45;&gt;22:n</title>
<path fill="none" stroke="black" d="M2319.25,-124.07C2319.25,-124.07 2319.25,-96.5 2319.25,-81"/>
<polygon fill="black" stroke="black" points="2322.75,-80.71 2319.25,-70.71 2315.75,-80.71 2322.75,-80.71"/>
<text text-anchor="middle" x="2354.25" y="-92.51" font-family="Helvetica,sans-Serif" font-size="14.00">&lt;= 0.512</text>
</g>
<!-- 24 -->
<g id="node27" class="node">
<title>24</title>
<ellipse fill="#4485e5" stroke="black" cx="2689.25" cy="-35.36" rx="149.4" ry="35.21"/>
<text text-anchor="start" x="2591.75" y="-46.16" font-family="Helvetica,sans-Serif" font-weight="bold" font-size="14.00"> Class=tested_negative </text>
<text text-anchor="start" x="2781.75" y="-46.16" font-family="Helvetica,sans-Serif" font-size="14.00"> </text>
<text text-anchor="start" x="2619.75" y="-32.16" font-family="Helvetica,sans-Serif" font-size="14.00"> error: 0.559, n=46 </text>
<text text-anchor="start" x="2634.25" y="-18.16" font-family="Helvetica,sans-Serif" font-size="14.00"> p: (0.87, 0.13) </text>
</g>
<!-- 23&#45;&gt;24 -->
<g id="edge26" class="edge">
<title>23:s&#45;&gt;24:n</title>
<path fill="none" stroke="black" d="M2654.25,-124.07C2654.25,-124.07 2673.53,-94.68 2683.47,-79.52"/>
<polygon fill="black" stroke="black" points="2686.69,-80.99 2689.25,-70.71 2680.84,-77.15 2686.69,-80.99"/>
<text text-anchor="middle" x="2690.25" y="-92.51" font-family="Helvetica,sans-Serif" font-size="14.00">&gt; 0</text>
</g>
<!-- 27 -->
<g id="node29" class="node">
<title>27</title>
<ellipse fill="#4485e5" stroke="black" cx="3059.25" cy="-35.36" rx="149.4" ry="35.21"/>
<text text-anchor="start" x="2961.75" y="-46.16" font-family="Helvetica,sans-Serif" font-weight="bold" font-size="14.00"> Class=tested_negative </text>
<text text-anchor="start" x="3151.75" y="-46.16" font-family="Helvetica,sans-Serif" font-size="14.00"> </text>
<text text-anchor="start" x="2989.75" y="-32.16" font-family="Helvetica,sans-Serif" font-size="14.00"> error: 0.000, n=38 </text>
<text text-anchor="start" x="3004.25" y="-18.16" font-family="Helvetica,sans-Serif" font-size="14.00"> p: (1.00, 0.00) </text>
</g>
<!-- 26&#45;&gt;27 -->
<g id="edge28" class="edge">
<title>26:s&#45;&gt;27:n</title>
<path fill="none" stroke="black" d="M2969.25,-124.07C2969.25,-124.07 3028.09,-89.18 3050.62,-75.83"/>
<polygon fill="black" stroke="black" points="3052.43,-78.82 3059.25,-70.71 3048.86,-72.8 3052.43,-78.82"/>
<text text-anchor="middle" x="3058.75" y="-92.51" font-family="Helvetica,sans-Serif" font-size="14.00">&lt;= 25.9</text>
</g>
<!-- 31 -->
<g id="node32" class="node">
<title>31</title>
<ellipse fill="#3dccba" stroke="black" cx="3312.25" cy="-157.07" rx="149.4" ry="35.21"/>
<text text-anchor="start" x="3214.75" y="-167.87" font-family="Helvetica,sans-Serif" font-weight="bold" font-size="14.00"> Class=tested_negative </text>
<text text-anchor="start" x="3404.75" y="-167.87" font-family="Helvetica,sans-Serif" font-size="14.00"> </text>
<text text-anchor="start" x="3242.75" y="-153.87" font-family="Helvetica,sans-Serif" font-size="14.00"> error: 0.000, n=89 </text>
<text text-anchor="start" x="3257.25" y="-139.87" font-family="Helvetica,sans-Serif" font-size="14.00"> p: (1.00, 0.00) </text>
</g>
<!-- 30&#45;&gt;31 -->
<g id="edge31" class="edge">
<title>30:s&#45;&gt;31:n</title>
<path fill="none" stroke="black" d="M3312.25,-245.78C3312.25,-245.78 3312.25,-218.21 3312.25,-202.71"/>
<polygon fill="black" stroke="black" points="3315.75,-202.42 3312.25,-192.42 3308.75,-202.42 3315.75,-202.42"/>
<text text-anchor="middle" x="3347.25" y="-214.22" font-family="Helvetica,sans-Serif" font-size="14.00">&lt;= 0.582</text>
</g>
</g>
</svg>
