<?xml version="1.0" encoding="UTF-8" standalone="no"?>
<!DOCTYPE svg PUBLIC "-//W3C//DTD SVG 1.1//EN"
 "http://www.w3.org/Graphics/SVG/1.1/DTD/svg11.dtd">
<!-- Generated by graphviz version 2.43.0 (0)
 -->
<!-- Title: Tree Pages: 1 -->
<svg width="1605pt" height="775pt"
 viewBox="0.00 0.00 1604.66 774.84" xmlns="http://www.w3.org/2000/svg" xmlns:xlink="http://www.w3.org/1999/xlink">
<g id="graph0" class="graph" transform="scale(1 1) rotate(0) translate(18 756.84)">
<title>Tree</title>
<polygon fill="white" stroke="transparent" points="-18,18 -18,-756.84 1586.66,-756.84 1586.66,18 -18,18"/>
<!-- 0 -->
<g id="node1" class="node">
<title>0</title>
<polygon fill="white" stroke="transparent" points="531.33,-738.84 477.33,-738.84 477.33,-702.84 531.33,-702.84 531.33,-738.84"/>
<text text-anchor="middle" x="504.33" y="-717.14" font-family="Helvetica,sans-Serif" font-size="14.00">0</text>
</g>
<!-- 1 -->
<g id="node2" class="node">
<title>1</title>
<polygon fill="#cc3d3d" stroke="black" points="595.33,-665.84 413.33,-665.84 413.33,-601.84 595.33,-601.84 595.33,-665.84"/>
<text text-anchor="start" x="444.83" y="-651.64" font-family="Helvetica,sans-Serif" font-weight="bold" font-size="14.00"> Class=DOWN </text>
<text text-anchor="start" x="558.83" y="-651.64" font-family="Helvetica,sans-Serif" font-size="14.00"> </text>
<text text-anchor="start" x="421.33" y="-637.64" font-family="Helvetica,sans-Serif" font-size="14.00"> error: 0.984, n=45312 </text>
<text text-anchor="start" x="449.33" y="-623.64" font-family="Helvetica,sans-Serif" font-size="14.00"> p: (0.58, 0.42) </text>
<text text-anchor="start" x="469.33" y="-609.64" font-family="Helvetica,sans-Serif" font-weight="bold" font-size="14.00">nswprice</text>
</g>
<!-- 0&#45;&gt;1 -->
<!-- 2 -->
<g id="node3" class="node">
<title>2</title>
<ellipse fill="#e5b844" stroke="black" cx="428.33" cy="-515.49" rx="122.16" ry="35.21"/>
<text text-anchor="start" x="383.33" y="-526.29" font-family="Helvetica,sans-Serif" font-weight="bold" font-size="14.00"> Class=UP </text>
<text text-anchor="start" x="468.33" y="-526.29" font-family="Helvetica,sans-Serif" font-size="14.00"> </text>
<text text-anchor="start" x="349.83" y="-512.29" font-family="Helvetica,sans-Serif" font-size="14.00"> error: 0.492, n=8570 </text>
<text text-anchor="start" x="373.33" y="-498.29" font-family="Helvetica,sans-Serif" font-size="14.00"> p: (0.11, 0.89) </text>
</g>
<!-- 1&#45;&gt;2 -->
<g id="edge2" class="edge">
<title>1:s&#45;&gt;2:n</title>
<path fill="none" stroke="black" d="M504.33,-601.84C504.33,-601.84 456.54,-569.77 436.75,-556.5"/>
<polygon fill="black" stroke="black" points="438.58,-553.51 428.33,-550.84 434.68,-559.32 438.58,-553.51"/>
<text text-anchor="middle" x="514.33" y="-572.64" font-family="Helvetica,sans-Serif" font-size="14.00">&gt; 0.07908</text>
</g>
<!-- 3 -->
<g id="node4" class="node">
<title>3</title>
<polygon fill="#e5b844" stroke="black" points="804.33,-547.49 622.33,-547.49 622.33,-483.49 804.33,-483.49 804.33,-547.49"/>
<text text-anchor="start" x="653.83" y="-533.29" font-family="Helvetica,sans-Serif" font-weight="bold" font-size="14.00"> Class=DOWN </text>
<text text-anchor="start" x="767.83" y="-533.29" font-family="Helvetica,sans-Serif" font-size="14.00"> </text>
<text text-anchor="start" x="630.33" y="-519.29" font-family="Helvetica,sans-Serif" font-size="14.00"> error: 0.899, n=36742 </text>
<text text-anchor="start" x="658.33" y="-505.29" font-family="Helvetica,sans-Serif" font-size="14.00"> p: (0.68, 0.32) </text>
<text text-anchor="start" x="678.33" y="-491.29" font-family="Helvetica,sans-Serif" font-weight="bold" font-size="14.00">nswprice</text>
</g>
<!-- 1&#45;&gt;3 -->
<g id="edge3" class="edge">
<title>1:s&#45;&gt;3:n</title>
<path fill="none" stroke="black" d="M504.33,-601.84C504.33,-601.84 662.21,-561.54 703.53,-550.99"/>
<polygon fill="black" stroke="black" points="704.51,-554.35 713.33,-548.49 702.77,-547.57 704.51,-554.35"/>
<text text-anchor="middle" x="672.33" y="-572.64" font-family="Helvetica,sans-Serif" font-size="14.00">&lt;= 0.07908</text>
</g>
<!-- 4 -->
<g id="node5" class="node">
<title>4</title>
<polygon fill="#8dcc3d" stroke="black" points="639.83,-429.13 466.83,-429.13 466.83,-365.13 639.83,-365.13 639.83,-429.13"/>
<text text-anchor="start" x="508.33" y="-414.93" font-family="Helvetica,sans-Serif" font-weight="bold" font-size="14.00"> Class=UP </text>
<text text-anchor="start" x="593.33" y="-414.93" font-family="Helvetica,sans-Serif" font-size="14.00"> </text>
<text text-anchor="start" x="474.83" y="-400.93" font-family="Helvetica,sans-Serif" font-size="14.00"> error: 0.999, n=9774 </text>
<text text-anchor="start" x="498.33" y="-386.93" font-family="Helvetica,sans-Serif" font-size="14.00"> p: (0.48, 0.52) </text>
<text text-anchor="start" x="518.33" y="-372.93" font-family="Helvetica,sans-Serif" font-weight="bold" font-size="14.00">nswprice</text>
</g>
<!-- 3&#45;&gt;4 -->
<g id="edge4" class="edge">
<title>3:s&#45;&gt;4:n</title>
<path fill="none" stroke="black" d="M713.33,-482.49C713.33,-482.49 597.3,-443.8 562.86,-432.31"/>
<polygon fill="black" stroke="black" points="563.92,-428.98 553.33,-429.13 561.71,-435.62 563.92,-428.98"/>
<text text-anchor="middle" x="678.33" y="-450.93" font-family="Helvetica,sans-Serif" font-size="14.00">&gt; 0.05644</text>
</g>
<!-- 12 -->
<g id="node6" class="node">
<title>12</title>
<polygon fill="#8dcc3d" stroke="black" points="1026.33,-429.13 844.33,-429.13 844.33,-365.13 1026.33,-365.13 1026.33,-429.13"/>
<text text-anchor="start" x="875.83" y="-414.93" font-family="Helvetica,sans-Serif" font-weight="bold" font-size="14.00"> Class=DOWN </text>
<text text-anchor="start" x="989.83" y="-414.93" font-family="Helvetica,sans-Serif" font-size="14.00"> </text>
<text text-anchor="start" x="852.33" y="-400.93" font-family="Helvetica,sans-Serif" font-size="14.00"> error: 0.798, n=26968 </text>
<text text-anchor="start" x="880.33" y="-386.93" font-family="Helvetica,sans-Serif" font-size="14.00"> p: (0.76, 0.24) </text>
<text text-anchor="start" x="888.33" y="-372.93" font-family="Helvetica,sans-Serif" font-weight="bold" font-size="14.00">nswdemand</text>
</g>
<!-- 3&#45;&gt;12 -->
<g id="edge5" class="edge">
<title>3:s&#45;&gt;12:n</title>
<path fill="none" stroke="black" d="M713.33,-482.49C713.33,-482.49 882.54,-441.82 925.5,-431.49"/>
<polygon fill="black" stroke="black" points="926.42,-434.87 935.33,-429.13 924.79,-428.07 926.42,-434.87"/>
<text text-anchor="middle" x="901.33" y="-450.93" font-family="Helvetica,sans-Serif" font-size="14.00">&lt;= 0.05644</text>
</g>
<!-- 5 -->
<g id="node7" class="node">
<title>5</title>
<polygon fill="#44e55e" stroke="black" points="254.83,-310.78 81.83,-310.78 81.83,-246.78 254.83,-246.78 254.83,-310.78"/>
<text text-anchor="start" x="123.33" y="-296.58" font-family="Helvetica,sans-Serif" font-weight="bold" font-size="14.00"> Class=UP </text>
<text text-anchor="start" x="208.33" y="-296.58" font-family="Helvetica,sans-Serif" font-size="14.00"> </text>
<text text-anchor="start" x="89.83" y="-282.58" font-family="Helvetica,sans-Serif" font-size="14.00"> error: 0.928, n=4589 </text>
<text text-anchor="start" x="113.33" y="-268.58" font-family="Helvetica,sans-Serif" font-size="14.00"> p: (0.34, 0.66) </text>
<text text-anchor="start" x="142.83" y="-254.58" font-family="Helvetica,sans-Serif" font-weight="bold" font-size="14.00">period</text>
</g>
<!-- 4&#45;&gt;5 -->
<g id="edge6" class="edge">
<title>4:s&#45;&gt;5:n</title>
<path fill="none" stroke="black" d="M553.33,-365.13C553.33,-365.13 239.85,-321.69 178.63,-313.2"/>
<polygon fill="black" stroke="black" points="178.72,-309.68 168.33,-311.78 177.75,-316.62 178.72,-309.68"/>
<text text-anchor="middle" x="456.33" y="-335.93" font-family="Helvetica,sans-Serif" font-size="14.00">&gt; 0.06902</text>
</g>
<!-- 7 -->
<g id="node8" class="node">
<title>7</title>
<polygon fill="#44e55e" stroke="black" points="639.83,-310.78 466.83,-310.78 466.83,-246.78 639.83,-246.78 639.83,-310.78"/>
<text text-anchor="start" x="493.83" y="-296.58" font-family="Helvetica,sans-Serif" font-weight="bold" font-size="14.00"> Class=DOWN </text>
<text text-anchor="start" x="607.83" y="-296.58" font-family="Helvetica,sans-Serif" font-size="14.00"> </text>
<text text-anchor="start" x="474.83" y="-282.58" font-family="Helvetica,sans-Serif" font-size="14.00"> error: 0.969, n=5185 </text>
<text text-anchor="start" x="498.33" y="-268.58" font-family="Helvetica,sans-Serif" font-size="14.00"> p: (0.60, 0.40) </text>
<text text-anchor="start" x="534.83" y="-254.58" font-family="Helvetica,sans-Serif" font-weight="bold" font-size="14.00">date</text>
</g>
<!-- 4&#45;&gt;7 -->
<g id="edge7" class="edge">
<title>4:s&#45;&gt;7:n</title>
<path fill="none" stroke="black" d="M553.33,-365.13C553.33,-365.13 553.33,-337.57 553.33,-322.06"/>
<polygon fill="black" stroke="black" points="556.83,-321.78 553.33,-311.78 549.83,-321.78 556.83,-321.78"/>
<text text-anchor="middle" x="597.33" y="-335.93" font-family="Helvetica,sans-Serif" font-size="14.00">&lt;= 0.06902</text>
</g>
<!-- 13 -->
<g id="node14" class="node">
<title>13</title>
<polygon fill="#44e55e" stroke="black" points="1026.33,-310.78 844.33,-310.78 844.33,-246.78 1026.33,-246.78 1026.33,-310.78"/>
<text text-anchor="start" x="875.83" y="-296.58" font-family="Helvetica,sans-Serif" font-weight="bold" font-size="14.00"> Class=DOWN </text>
<text text-anchor="start" x="989.83" y="-296.58" font-family="Helvetica,sans-Serif" font-size="14.00"> </text>
<text text-anchor="start" x="852.33" y="-282.58" font-family="Helvetica,sans-Serif" font-size="14.00"> error: 0.883, n=20017 </text>
<text text-anchor="start" x="880.33" y="-268.58" font-family="Helvetica,sans-Serif" font-size="14.00"> p: (0.70, 0.30) </text>
<text text-anchor="start" x="916.83" y="-254.58" font-family="Helvetica,sans-Serif" font-weight="bold" font-size="14.00">date</text>
</g>
<!-- 12&#45;&gt;13 -->
<g id="edge13" class="edge">
<title>12:s&#45;&gt;13:n</title>
<path fill="none" stroke="black" d="M935.33,-365.13C935.33,-365.13 935.33,-337.57 935.33,-322.06"/>
<polygon fill="black" stroke="black" points="938.83,-321.78 935.33,-311.78 931.83,-321.78 938.83,-321.78"/>
<text text-anchor="middle" x="968.83" y="-335.93" font-family="Helvetica,sans-Serif" font-size="14.00">&gt; 0.2722</text>
</g>
<!-- 18 -->
<g id="node15" class="node">
<title>18</title>
<ellipse fill="#44e55e" stroke="black" cx="1220.33" cy="-278.78" rx="122.16" ry="35.21"/>
<text text-anchor="start" x="1160.83" y="-289.58" font-family="Helvetica,sans-Serif" font-weight="bold" font-size="14.00"> Class=DOWN </text>
<text text-anchor="start" x="1274.83" y="-289.58" font-family="Helvetica,sans-Serif" font-size="14.00"> </text>
<text text-anchor="start" x="1141.83" y="-275.58" font-family="Helvetica,sans-Serif" font-size="14.00"> error: 0.362, n=6951 </text>
<text text-anchor="start" x="1165.33" y="-261.58" font-family="Helvetica,sans-Serif" font-size="14.00"> p: (0.93, 0.07) </text>
</g>
<!-- 12&#45;&gt;18 -->
<g id="edge14" class="edge">
<title>12:s&#45;&gt;18:n</title>
<path fill="none" stroke="black" d="M935.33,-365.13C935.33,-365.13 1159.42,-325.03 1210.19,-315.95"/>
<polygon fill="black" stroke="black" points="1211.1,-319.34 1220.33,-314.13 1209.87,-312.45 1211.1,-319.34"/>
<text text-anchor="middle" x="1151.83" y="-335.93" font-family="Helvetica,sans-Serif" font-size="14.00">&lt;= 0.2722</text>
</g>
<!-- 6 -->
<g id="node9" class="node">
<title>6</title>
<ellipse fill="#3dccba" stroke="black" cx="122.33" cy="-157.07" rx="122.16" ry="35.21"/>
<text text-anchor="start" x="77.33" y="-167.87" font-family="Helvetica,sans-Serif" font-weight="bold" font-size="14.00"> Class=UP </text>
<text text-anchor="start" x="162.33" y="-167.87" font-family="Helvetica,sans-Serif" font-size="14.00"> </text>
<text text-anchor="start" x="43.83" y="-153.87" font-family="Helvetica,sans-Serif" font-size="14.00"> error: 0.879, n=3773 </text>
<text text-anchor="start" x="67.33" y="-139.87" font-family="Helvetica,sans-Serif" font-size="14.00"> p: (0.30, 0.70) </text>
</g>
<!-- 5&#45;&gt;6 -->
<g id="edge8" class="edge">
<title>5:s&#45;&gt;6:n</title>
<path fill="none" stroke="black" d="M168.33,-245.78C168.33,-245.78 141.91,-215.14 129.12,-200.29"/>
<polygon fill="black" stroke="black" points="131.51,-197.71 122.33,-192.42 126.21,-202.28 131.51,-197.71"/>
<text text-anchor="middle" x="183.83" y="-214.22" font-family="Helvetica,sans-Serif" font-size="14.00">&gt; 0.2128</text>
</g>
<!-- 8 -->
<g id="node10" class="node">
<title>8</title>
<polygon fill="#3dccba" stroke="black" points="489.83,-189.07 316.83,-189.07 316.83,-125.07 489.83,-125.07 489.83,-189.07"/>
<text text-anchor="start" x="358.33" y="-174.87" font-family="Helvetica,sans-Serif" font-weight="bold" font-size="14.00"> Class=UP </text>
<text text-anchor="start" x="443.33" y="-174.87" font-family="Helvetica,sans-Serif" font-size="14.00"> </text>
<text text-anchor="start" x="324.83" y="-160.87" font-family="Helvetica,sans-Serif" font-size="14.00"> error: 0.987, n=2467 </text>
<text text-anchor="start" x="348.33" y="-146.87" font-family="Helvetica,sans-Serif" font-size="14.00"> p: (0.43, 0.57) </text>
<text text-anchor="start" x="384.83" y="-132.87" font-family="Helvetica,sans-Serif" font-weight="bold" font-size="14.00">date</text>
</g>
<!-- 7&#45;&gt;8 -->
<g id="edge9" class="edge">
<title>7:s&#45;&gt;8:n</title>
<path fill="none" stroke="black" d="M553.33,-245.78C553.33,-245.78 445.55,-205.75 412.71,-193.55"/>
<polygon fill="black" stroke="black" points="413.92,-190.27 403.33,-190.07 411.49,-196.83 413.92,-190.27"/>
<text text-anchor="middle" x="529.83" y="-214.22" font-family="Helvetica,sans-Serif" font-size="14.00">&gt; 0.4342</text>
</g>
<!-- 10 -->
<g id="node11" class="node">
<title>10</title>
<polygon fill="#3dccba" stroke="black" points="734.83,-189.07 561.83,-189.07 561.83,-125.07 734.83,-125.07 734.83,-189.07"/>
<text text-anchor="start" x="588.83" y="-174.87" font-family="Helvetica,sans-Serif" font-weight="bold" font-size="14.00"> Class=DOWN </text>
<text text-anchor="start" x="702.83" y="-174.87" font-family="Helvetica,sans-Serif" font-size="14.00"> </text>
<text text-anchor="start" x="569.83" y="-160.87" font-family="Helvetica,sans-Serif" font-size="14.00"> error: 0.797, n=2718 </text>
<text text-anchor="start" x="593.33" y="-146.87" font-family="Helvetica,sans-Serif" font-size="14.00"> p: (0.76, 0.24) </text>
<text text-anchor="start" x="613.33" y="-132.87" font-family="Helvetica,sans-Serif" font-weight="bold" font-size="14.00">nswprice</text>
</g>
<!-- 7&#45;&gt;10 -->
<g id="edge10" class="edge">
<title>7:s&#45;&gt;10:n</title>
<path fill="none" stroke="black" d="M553.33,-245.78C553.33,-245.78 616.04,-209 639.56,-195.21"/>
<polygon fill="black" stroke="black" points="641.47,-198.14 648.33,-190.07 637.93,-192.11 641.47,-198.14"/>
<text text-anchor="middle" x="651.83" y="-214.22" font-family="Helvetica,sans-Serif" font-size="14.00">&lt;= 0.4342</text>
</g>
<!-- 9 -->
<g id="node12" class="node">
<title>9</title>
<ellipse fill="#4485e5" stroke="black" cx="367.33" cy="-35.36" rx="122.16" ry="35.21"/>
<text text-anchor="start" x="322.33" y="-46.16" font-family="Helvetica,sans-Serif" font-weight="bold" font-size="14.00"> Class=UP </text>
<text text-anchor="start" x="407.33" y="-46.16" font-family="Helvetica,sans-Serif" font-size="14.00"> </text>
<text text-anchor="start" x="288.83" y="-32.16" font-family="Helvetica,sans-Serif" font-size="14.00"> error: 0.824, n=1416 </text>
<text text-anchor="start" x="312.33" y="-18.16" font-family="Helvetica,sans-Serif" font-size="14.00"> p: (0.26, 0.74) </text>
</g>
<!-- 8&#45;&gt;9 -->
<g id="edge11" class="edge">
<title>8:s&#45;&gt;9:n</title>
<path fill="none" stroke="black" d="M403.33,-124.07C403.33,-124.07 383.08,-94.05 372.95,-79.05"/>
<polygon fill="black" stroke="black" points="375.82,-77.04 367.33,-70.71 370.02,-80.96 375.82,-77.04"/>
<text text-anchor="middle" x="424.33" y="-92.51" font-family="Helvetica,sans-Serif" font-size="14.00">&lt;= 0.886</text>
</g>
<!-- 11 -->
<g id="node13" class="node">
<title>11</title>
<ellipse fill="#4485e5" stroke="black" cx="684.33" cy="-35.36" rx="122.16" ry="35.21"/>
<text text-anchor="start" x="624.83" y="-46.16" font-family="Helvetica,sans-Serif" font-weight="bold" font-size="14.00"> Class=DOWN </text>
<text text-anchor="start" x="738.83" y="-46.16" font-family="Helvetica,sans-Serif" font-size="14.00"> </text>
<text text-anchor="start" x="605.83" y="-32.16" font-family="Helvetica,sans-Serif" font-size="14.00"> error: 0.884, n=1699 </text>
<text text-anchor="start" x="629.33" y="-18.16" font-family="Helvetica,sans-Serif" font-size="14.00"> p: (0.70, 0.30) </text>
</g>
<!-- 10&#45;&gt;11 -->
<g id="edge12" class="edge">
<title>10:s&#45;&gt;11:n</title>
<path fill="none" stroke="black" d="M648.33,-124.07C648.33,-124.07 668.58,-94.05 678.7,-79.05"/>
<polygon fill="black" stroke="black" points="681.64,-80.96 684.33,-70.71 675.83,-77.04 681.64,-80.96"/>
<text text-anchor="middle" x="705.83" y="-92.51" font-family="Helvetica,sans-Serif" font-size="14.00">&gt; 0.0596</text>
</g>
<!-- 14 -->
<g id="node16" class="node">
<title>14</title>
<ellipse fill="#3dccba" stroke="black" cx="935.33" cy="-157.07" rx="128.89" ry="35.21"/>
<text text-anchor="start" x="875.83" y="-167.87" font-family="Helvetica,sans-Serif" font-weight="bold" font-size="14.00"> Class=DOWN </text>
<text text-anchor="start" x="989.83" y="-167.87" font-family="Helvetica,sans-Serif" font-size="14.00"> </text>
<text text-anchor="start" x="852.33" y="-153.87" font-family="Helvetica,sans-Serif" font-size="14.00"> error: 0.931, n=16280 </text>
<text text-anchor="start" x="880.33" y="-139.87" font-family="Helvetica,sans-Serif" font-size="14.00"> p: (0.65, 0.35) </text>
</g>
<!-- 13&#45;&gt;14 -->
<g id="edge15" class="edge">
<title>13:s&#45;&gt;14:n</title>
<path fill="none" stroke="black" d="M935.33,-245.78C935.33,-245.78 935.33,-218.21 935.33,-202.71"/>
<polygon fill="black" stroke="black" points="938.83,-202.42 935.33,-192.42 931.83,-202.42 938.83,-202.42"/>
<text text-anchor="middle" x="964.33" y="-214.22" font-family="Helvetica,sans-Serif" font-size="14.00">&gt; 0.438</text>
</g>
<!-- 15 -->
<g id="node17" class="node">
<title>15</title>
<polygon fill="#3dccba" stroke="black" points="1308.83,-189.07 1135.83,-189.07 1135.83,-125.07 1308.83,-125.07 1308.83,-189.07"/>
<text text-anchor="start" x="1162.83" y="-174.87" font-family="Helvetica,sans-Serif" font-weight="bold" font-size="14.00"> Class=DOWN </text>
<text text-anchor="start" x="1276.83" y="-174.87" font-family="Helvetica,sans-Serif" font-size="14.00"> </text>
<text text-anchor="start" x="1143.83" y="-160.87" font-family="Helvetica,sans-Serif" font-size="14.00"> error: 0.479, n=3737 </text>
<text text-anchor="start" x="1167.33" y="-146.87" font-family="Helvetica,sans-Serif" font-size="14.00"> p: (0.90, 0.10) </text>
<text text-anchor="start" x="1187.33" y="-132.87" font-family="Helvetica,sans-Serif" font-weight="bold" font-size="14.00">nswprice</text>
</g>
<!-- 13&#45;&gt;15 -->
<g id="edge16" class="edge">
<title>13:s&#45;&gt;15:n</title>
<path fill="none" stroke="black" d="M935.33,-245.78C935.33,-245.78 1161.98,-201.78 1212.45,-191.98"/>
<polygon fill="black" stroke="black" points="1213.18,-195.41 1222.33,-190.07 1211.85,-188.54 1213.18,-195.41"/>
<text text-anchor="middle" x="1148.33" y="-214.22" font-family="Helvetica,sans-Serif" font-size="14.00">&lt;= 0.438</text>
</g>
<!-- 16 -->
<g id="node18" class="node">
<title>16</title>
<ellipse fill="#4485e5" stroke="black" cx="1129.33" cy="-35.36" rx="122.16" ry="35.21"/>
<text text-anchor="start" x="1069.83" y="-46.16" font-family="Helvetica,sans-Serif" font-weight="bold" font-size="14.00"> Class=DOWN </text>
<text text-anchor="start" x="1183.83" y="-46.16" font-family="Helvetica,sans-Serif" font-size="14.00"> </text>
<text text-anchor="start" x="1050.83" y="-32.16" font-family="Helvetica,sans-Serif" font-size="14.00"> error: 0.645, n=2268 </text>
<text text-anchor="start" x="1074.33" y="-18.16" font-family="Helvetica,sans-Serif" font-size="14.00"> p: (0.84, 0.16) </text>
</g>
<!-- 15&#45;&gt;16 -->
<g id="edge17" class="edge">
<title>15:s&#45;&gt;16:n</title>
<path fill="none" stroke="black" d="M1222.33,-124.07C1222.33,-124.07 1161.52,-89.18 1138.25,-75.83"/>
<polygon fill="black" stroke="black" points="1139.75,-72.65 1129.33,-70.71 1136.26,-78.72 1139.75,-72.65"/>
<text text-anchor="middle" x="1222.33" y="-92.51" font-family="Helvetica,sans-Serif" font-size="14.00">&gt; 0.04425</text>
</g>
<!-- 17 -->
<g id="node19" class="node">
<title>17</title>
<ellipse fill="#4485e5" stroke="black" cx="1446.33" cy="-35.36" rx="122.16" ry="35.21"/>
<text text-anchor="start" x="1386.83" y="-46.16" font-family="Helvetica,sans-Serif" font-weight="bold" font-size="14.00"> Class=DOWN </text>
<text text-anchor="start" x="1500.83" y="-46.16" font-family="Helvetica,sans-Serif" font-size="14.00"> </text>
<text text-anchor="start" x="1367.83" y="-32.16" font-family="Helvetica,sans-Serif" font-size="14.00"> error: 0.073, n=1469 </text>
<text text-anchor="start" x="1391.33" y="-18.16" font-family="Helvetica,sans-Serif" font-size="14.00"> p: (0.99, 0.01) </text>
</g>
<!-- 15&#45;&gt;17 -->
<g id="edge18" class="edge">
<title>15:s&#45;&gt;17:n</title>
<path fill="none" stroke="black" d="M1222.33,-124.07C1222.33,-124.07 1393.06,-83.4 1436.42,-73.07"/>
<polygon fill="black" stroke="black" points="1437.41,-76.43 1446.33,-70.71 1435.79,-69.62 1437.41,-76.43"/>
<text text-anchor="middle" x="1412.33" y="-92.51" font-family="Helvetica,sans-Serif" font-size="14.00">&lt;= 0.04425</text>
</g>
</g>
</svg>
