<?xml version="1.0" encoding="UTF-8" standalone="no"?>
<!DOCTYPE svg PUBLIC "-//W3C//DTD SVG 1.1//EN"
 "http://www.w3.org/Graphics/SVG/1.1/DTD/svg11.dtd">
<!-- Generated by graphviz version 2.43.0 (0)
 -->
<!-- Title: Tree Pages: 1 -->
<svg width="8088pt" height="646pt"
 viewBox="0.00 0.00 8088.40 646.42" xmlns="http://www.w3.org/2000/svg" xmlns:xlink="http://www.w3.org/1999/xlink">
<g id="graph0" class="graph" transform="scale(1 1) rotate(0) translate(18 628.42)">
<title>Tree</title>
<polygon fill="white" stroke="transparent" points="-18,18 -18,-628.42 8070.4,-628.42 8070.4,18 -18,18"/>
<!-- 0 -->
<g id="node1" class="node">
<title>0</title>
<polygon fill="white" stroke="transparent" points="3096.2,-610.42 3042.2,-610.42 3042.2,-574.42 3096.2,-574.42 3096.2,-610.42"/>
<text text-anchor="middle" x="3069.2" y="-588.72" font-family="Helvetica,sans-Serif" font-size="14.00">0</text>
</g>
<!-- 1 -->
<g id="node2" class="node">
<title>1</title>
<polygon fill="#cc3d3d" stroke="black" points="3294.2,-537.42 2844.2,-537.42 2844.2,-473.42 3294.2,-473.42 3294.2,-537.42"/>
<text text-anchor="start" x="3030.2" y="-523.22" font-family="Helvetica,sans-Serif" font-weight="bold" font-size="14.00"> Class=1 </text>
<text text-anchor="start" x="3103.2" y="-523.22" font-family="Helvetica,sans-Serif" font-size="14.00"> </text>
<text text-anchor="start" x="2990.7" y="-509.22" font-family="Helvetica,sans-Serif" font-size="14.00"> error: 1.000, n=2000 </text>
<text text-anchor="start" x="2852.2" y="-495.22" font-family="Helvetica,sans-Serif" font-size="14.00"> p: (0.10, 0.10, 0.10, 0.10, 0.10, 0.10, 0.10, 0.10, 0.10, 0.10) </text>
<text text-anchor="start" x="3052.2" y="-481.22" font-family="Helvetica,sans-Serif" font-weight="bold" font-size="14.00">att1</text>
</g>
<!-- 0&#45;&gt;1 -->
<!-- 2 -->
<g id="node3" class="node">
<title>2</title>
<polygon fill="#e5d544" stroke="black" points="2633.2,-422.42 2183.2,-422.42 2183.2,-358.42 2633.2,-358.42 2633.2,-422.42"/>
<text text-anchor="start" x="2369.2" y="-408.22" font-family="Helvetica,sans-Serif" font-weight="bold" font-size="14.00"> Class=9 </text>
<text text-anchor="start" x="2442.2" y="-408.22" font-family="Helvetica,sans-Serif" font-size="14.00"> </text>
<text text-anchor="start" x="2334.2" y="-394.22" font-family="Helvetica,sans-Serif" font-size="14.00"> error: 0.615, n=793 </text>
<text text-anchor="start" x="2191.2" y="-380.22" font-family="Helvetica,sans-Serif" font-size="14.00"> p: (0.25, 0.24, 0.00, 0.00, 0.00, 0.00, 0.00, 0.25, 0.00, 0.25) </text>
<text text-anchor="start" x="2391.2" y="-366.22" font-family="Helvetica,sans-Serif" font-weight="bold" font-size="14.00">att2</text>
</g>
<!-- 1&#45;&gt;2 -->
<g id="edge2" class="edge">
<title>1:s&#45;&gt;2:n</title>
<path fill="none" stroke="black" d="M3069.2,-473.42C3069.2,-473.42 2501.48,-429.62 2418.32,-423.2"/>
<polygon fill="black" stroke="black" points="2418.44,-419.7 2408.2,-422.42 2417.9,-426.68 2418.44,-419.7"/>
<text text-anchor="middle" x="2831.2" y="-444.22" font-family="Helvetica,sans-Serif" font-size="14.00">&gt; 0</text>
</g>
<!-- 12 -->
<g id="node4" class="node">
<title>12</title>
<polygon fill="#e5d544" stroke="black" points="4013.2,-422.42 3563.2,-422.42 3563.2,-358.42 4013.2,-358.42 4013.2,-422.42"/>
<text text-anchor="start" x="3749.2" y="-408.22" font-family="Helvetica,sans-Serif" font-weight="bold" font-size="14.00"> Class=4 </text>
<text text-anchor="start" x="3822.2" y="-408.22" font-family="Helvetica,sans-Serif" font-size="14.00"> </text>
<text text-anchor="start" x="3709.7" y="-394.22" font-family="Helvetica,sans-Serif" font-size="14.00"> error: 0.798, n=1207 </text>
<text text-anchor="start" x="3571.2" y="-380.22" font-family="Helvetica,sans-Serif" font-size="14.00"> p: (0.00, 0.00, 0.16, 0.16, 0.17, 0.16, 0.17, 0.00, 0.17, 0.00) </text>
<text text-anchor="start" x="3771.2" y="-366.22" font-family="Helvetica,sans-Serif" font-weight="bold" font-size="14.00">att6</text>
</g>
<!-- 1&#45;&gt;12 -->
<g id="edge3" class="edge">
<title>1:s&#45;&gt;12:n</title>
<path fill="none" stroke="black" d="M3069.2,-473.42C3069.2,-473.42 3690.64,-429.34 3778.03,-423.14"/>
<polygon fill="black" stroke="black" points="3778.47,-426.62 3788.2,-422.42 3777.98,-419.64 3778.47,-426.62"/>
<text text-anchor="middle" x="3534.2" y="-444.22" font-family="Helvetica,sans-Serif" font-size="14.00">&lt;= 0</text>
</g>
<!-- 3 -->
<g id="node5" class="node">
<title>3</title>
<polygon fill="#59cc3d" stroke="black" points="1866.2,-307.42 1416.2,-307.42 1416.2,-243.42 1866.2,-243.42 1866.2,-307.42"/>
<text text-anchor="start" x="1602.2" y="-293.22" font-family="Helvetica,sans-Serif" font-weight="bold" font-size="14.00"> Class=7 </text>
<text text-anchor="start" x="1675.2" y="-293.22" font-family="Helvetica,sans-Serif" font-size="14.00"> </text>
<text text-anchor="start" x="1567.2" y="-279.22" font-family="Helvetica,sans-Serif" font-size="14.00"> error: 0.369, n=406 </text>
<text text-anchor="start" x="1424.2" y="-265.22" font-family="Helvetica,sans-Serif" font-size="14.00"> p: (0.00, 0.48, 0.00, 0.00, 0.00, 0.00, 0.00, 0.49, 0.00, 0.02) </text>
<text text-anchor="start" x="1624.2" y="-251.22" font-family="Helvetica,sans-Serif" font-weight="bold" font-size="14.00">att6</text>
</g>
<!-- 2&#45;&gt;3 -->
<g id="edge4" class="edge">
<title>2:s&#45;&gt;3:n</title>
<path fill="none" stroke="black" d="M2408.2,-358.42C2408.2,-358.42 1741.08,-314.06 1651.18,-308.08"/>
<polygon fill="black" stroke="black" points="1651.41,-304.59 1641.2,-307.42 1650.94,-311.58 1651.41,-304.59"/>
<text text-anchor="middle" x="2129.2" y="-329.22" font-family="Helvetica,sans-Serif" font-size="14.00">&gt; 0</text>
</g>
<!-- 9 -->
<g id="node6" class="node">
<title>9</title>
<polygon fill="#59cc3d" stroke="black" points="2633.2,-307.42 2183.2,-307.42 2183.2,-243.42 2633.2,-243.42 2633.2,-307.42"/>
<text text-anchor="start" x="2369.2" y="-293.22" font-family="Helvetica,sans-Serif" font-weight="bold" font-size="14.00"> Class=1 </text>
<text text-anchor="start" x="2442.2" y="-293.22" font-family="Helvetica,sans-Serif" font-size="14.00"> </text>
<text text-anchor="start" x="2334.2" y="-279.22" font-family="Helvetica,sans-Serif" font-size="14.00"> error: 0.301, n=387 </text>
<text text-anchor="start" x="2191.2" y="-265.22" font-family="Helvetica,sans-Serif" font-size="14.00"> p: (0.51, 0.00, 0.00, 0.00, 0.00, 0.00, 0.00, 0.00, 0.00, 0.49) </text>
<text text-anchor="start" x="2391.2" y="-251.22" font-family="Helvetica,sans-Serif" font-weight="bold" font-size="14.00">att1</text>
</g>
<!-- 2&#45;&gt;9 -->
<g id="edge5" class="edge">
<title>2:s&#45;&gt;9:n</title>
<path fill="none" stroke="black" d="M2408.2,-358.42C2408.2,-358.42 2408.2,-332.64 2408.2,-317.74"/>
<polygon fill="black" stroke="black" points="2411.7,-317.42 2408.2,-307.42 2404.7,-317.42 2411.7,-317.42"/>
<text text-anchor="middle" x="2427.2" y="-329.22" font-family="Helvetica,sans-Serif" font-size="14.00">&lt;= 0</text>
</g>
<!-- 13 -->
<g id="node14" class="node">
<title>13</title>
<polygon fill="#59cc3d" stroke="black" points="4013.2,-307.42 3563.2,-307.42 3563.2,-243.42 4013.2,-243.42 4013.2,-307.42"/>
<text text-anchor="start" x="3749.2" y="-293.22" font-family="Helvetica,sans-Serif" font-weight="bold" font-size="14.00"> Class=6 </text>
<text text-anchor="start" x="3822.2" y="-293.22" font-family="Helvetica,sans-Serif" font-size="14.00"> </text>
<text text-anchor="start" x="3714.2" y="-279.22" font-family="Helvetica,sans-Serif" font-size="14.00"> error: 0.616, n=599 </text>
<text text-anchor="start" x="3571.2" y="-265.22" font-family="Helvetica,sans-Serif" font-size="14.00"> p: (0.01, 0.01, 0.00, 0.30, 0.25, 0.10, 0.32, 0.00, 0.01, 0.00) </text>
<text text-anchor="start" x="3771.2" y="-251.22" font-family="Helvetica,sans-Serif" font-weight="bold" font-size="14.00">att3</text>
</g>
<!-- 12&#45;&gt;13 -->
<g id="edge13" class="edge">
<title>12:s&#45;&gt;13:n</title>
<path fill="none" stroke="black" d="M3788.2,-358.42C3788.2,-358.42 3788.2,-332.64 3788.2,-317.74"/>
<polygon fill="black" stroke="black" points="3791.7,-317.42 3788.2,-307.42 3784.7,-317.42 3791.7,-317.42"/>
<text text-anchor="middle" x="3814.7" y="-329.22" font-family="Helvetica,sans-Serif" font-size="14.00">&gt; 8201</text>
</g>
<!-- 20 -->
<g id="node15" class="node">
<title>20</title>
<polygon fill="#59cc3d" stroke="black" points="6189.2,-307.42 5739.2,-307.42 5739.2,-243.42 6189.2,-243.42 6189.2,-307.42"/>
<text text-anchor="start" x="5925.2" y="-293.22" font-family="Helvetica,sans-Serif" font-weight="bold" font-size="14.00"> Class=2 </text>
<text text-anchor="start" x="5998.2" y="-293.22" font-family="Helvetica,sans-Serif" font-size="14.00"> </text>
<text text-anchor="start" x="5890.2" y="-279.22" font-family="Helvetica,sans-Serif" font-size="14.00"> error: 0.624, n=608 </text>
<text text-anchor="start" x="5747.2" y="-265.22" font-family="Helvetica,sans-Serif" font-size="14.00"> p: (0.00, 0.00, 0.33, 0.03, 0.08, 0.23, 0.01, 0.00, 0.32, 0.00) </text>
<text text-anchor="start" x="5947.2" y="-251.22" font-family="Helvetica,sans-Serif" font-weight="bold" font-size="14.00">att5</text>
</g>
<!-- 12&#45;&gt;20 -->
<g id="edge14" class="edge">
<title>12:s&#45;&gt;20:n</title>
<path fill="none" stroke="black" d="M3788.2,-358.42C3788.2,-358.42 5793.44,-311.42 5954.01,-307.66"/>
<polygon fill="black" stroke="black" points="5954.28,-311.15 5964.2,-307.42 5954.12,-304.16 5954.28,-311.15"/>
<text text-anchor="middle" x="5167.7" y="-329.22" font-family="Helvetica,sans-Serif" font-size="14.00">&lt;= 8201</text>
</g>
<!-- 4 -->
<g id="node7" class="node">
<title>4</title>
<polygon fill="#44e5b5" stroke="black" points="1251.2,-189.07 801.2,-189.07 801.2,-125.07 1251.2,-125.07 1251.2,-189.07"/>
<text text-anchor="start" x="987.2" y="-174.87" font-family="Helvetica,sans-Serif" font-weight="bold" font-size="14.00"> Class=7 </text>
<text text-anchor="start" x="1060.2" y="-174.87" font-family="Helvetica,sans-Serif" font-size="14.00"> </text>
<text text-anchor="start" x="952.2" y="-160.87" font-family="Helvetica,sans-Serif" font-size="14.00"> error: 0.342, n=385 </text>
<text text-anchor="start" x="809.2" y="-146.87" font-family="Helvetica,sans-Serif" font-size="14.00"> p: (0.00, 0.48, 0.00, 0.01, 0.00, 0.00, 0.00, 0.50, 0.00, 0.01) </text>
<text text-anchor="start" x="1009.2" y="-132.87" font-family="Helvetica,sans-Serif" font-weight="bold" font-size="14.00">att4</text>
</g>
<!-- 3&#45;&gt;4 -->
<g id="edge6" class="edge">
<title>3:s&#45;&gt;4:n</title>
<path fill="none" stroke="black" d="M1641.2,-243.42C1641.2,-243.42 1116.32,-197.88 1036.36,-190.95"/>
<polygon fill="black" stroke="black" points="1036.46,-187.44 1026.2,-190.07 1035.86,-194.42 1036.46,-187.44"/>
<text text-anchor="middle" x="1451.7" y="-214.22" font-family="Helvetica,sans-Serif" font-size="14.00">&gt; 2820</text>
</g>
<!-- 7 -->
<g id="node8" class="node">
<title>7</title>
<polygon fill="#44e5b5" stroke="black" points="1866.2,-189.07 1416.2,-189.07 1416.2,-125.07 1866.2,-125.07 1866.2,-189.07"/>
<text text-anchor="start" x="1597.7" y="-174.87" font-family="Helvetica,sans-Serif" font-weight="bold" font-size="14.00"> Class=10 </text>
<text text-anchor="start" x="1679.7" y="-174.87" font-family="Helvetica,sans-Serif" font-size="14.00"> </text>
<text text-anchor="start" x="1571.7" y="-160.87" font-family="Helvetica,sans-Serif" font-size="14.00"> error: 0.525, n=21 </text>
<text text-anchor="start" x="1424.2" y="-146.87" font-family="Helvetica,sans-Serif" font-size="14.00"> p: (0.00, 0.43, 0.05, 0.00, 0.00, 0.00, 0.00, 0.24, 0.00, 0.29) </text>
<text text-anchor="start" x="1624.2" y="-132.87" font-family="Helvetica,sans-Serif" font-weight="bold" font-size="14.00">att6</text>
</g>
<!-- 3&#45;&gt;7 -->
<g id="edge7" class="edge">
<title>3:s&#45;&gt;7:n</title>
<path fill="none" stroke="black" d="M1641.2,-243.42C1641.2,-243.42 1641.2,-215.86 1641.2,-200.35"/>
<polygon fill="black" stroke="black" points="1644.7,-200.07 1641.2,-190.07 1637.7,-200.07 1644.7,-200.07"/>
<text text-anchor="middle" x="1673.7" y="-214.22" font-family="Helvetica,sans-Serif" font-size="14.00">&lt;= 2820</text>
</g>
<!-- 10 -->
<g id="node12" class="node">
<title>10</title>
<ellipse fill="#44e5b5" stroke="black" cx="2256.2" cy="-157.07" rx="318.4" ry="35.21"/>
<text text-anchor="start" x="2217.2" y="-167.87" font-family="Helvetica,sans-Serif" font-weight="bold" font-size="14.00"> Class=9 </text>
<text text-anchor="start" x="2290.2" y="-167.87" font-family="Helvetica,sans-Serif" font-size="14.00"> </text>
<text text-anchor="start" x="2182.2" y="-153.87" font-family="Helvetica,sans-Serif" font-size="14.00"> error: 0.000, n=190 </text>
<text text-anchor="start" x="2039.2" y="-139.87" font-family="Helvetica,sans-Serif" font-size="14.00"> p: (0.00, 0.00, 0.00, 0.00, 0.00, 0.00, 0.00, 0.00, 0.00, 1.00) </text>
</g>
<!-- 9&#45;&gt;10 -->
<g id="edge11" class="edge">
<title>9:s&#45;&gt;10:n</title>
<path fill="none" stroke="black" d="M2408.2,-243.42C2408.2,-243.42 2298.98,-206.78 2265.71,-195.61"/>
<polygon fill="black" stroke="black" points="2266.79,-192.28 2256.2,-192.42 2264.57,-198.92 2266.79,-192.28"/>
<text text-anchor="middle" x="2364.2" y="-214.22" font-family="Helvetica,sans-Serif" font-size="14.00">&gt; 1</text>
</g>
<!-- 11 -->
<g id="node13" class="node">
<title>11</title>
<ellipse fill="#44e5b5" stroke="black" cx="2964.2" cy="-157.07" rx="318.4" ry="35.21"/>
<text text-anchor="start" x="2925.2" y="-167.87" font-family="Helvetica,sans-Serif" font-weight="bold" font-size="14.00"> Class=1 </text>
<text text-anchor="start" x="2998.2" y="-167.87" font-family="Helvetica,sans-Serif" font-size="14.00"> </text>
<text text-anchor="start" x="2890.2" y="-153.87" font-family="Helvetica,sans-Serif" font-size="14.00"> error: 0.000, n=197 </text>
<text text-anchor="start" x="2747.2" y="-139.87" font-family="Helvetica,sans-Serif" font-size="14.00"> p: (1.00, 0.00, 0.00, 0.00, 0.00, 0.00, 0.00, 0.00, 0.00, 0.00) </text>
</g>
<!-- 9&#45;&gt;11 -->
<g id="edge12" class="edge">
<title>9:s&#45;&gt;11:n</title>
<path fill="none" stroke="black" d="M2408.2,-243.42C2408.2,-243.42 2878.72,-200.26 2954.07,-193.35"/>
<polygon fill="black" stroke="black" points="2954.56,-196.82 2964.2,-192.42 2953.92,-189.85 2954.56,-196.82"/>
<text text-anchor="middle" x="2772.2" y="-214.22" font-family="Helvetica,sans-Serif" font-size="14.00">&lt;= 1</text>
</g>
<!-- 5 -->
<g id="node9" class="node">
<title>5</title>
<ellipse fill="#3d76cc" stroke="black" cx="318.2" cy="-35.36" rx="318.4" ry="35.21"/>
<text text-anchor="start" x="279.2" y="-46.16" font-family="Helvetica,sans-Serif" font-weight="bold" font-size="14.00"> Class=7 </text>
<text text-anchor="start" x="352.2" y="-46.16" font-family="Helvetica,sans-Serif" font-size="14.00"> </text>
<text text-anchor="start" x="248.7" y="-32.16" font-family="Helvetica,sans-Serif" font-size="14.00"> error: 0.450, n=18 </text>
<text text-anchor="start" x="101.2" y="-18.16" font-family="Helvetica,sans-Serif" font-size="14.00"> p: (0.00, 0.28, 0.00, 0.00, 0.00, 0.00, 0.00, 0.50, 0.00, 0.22) </text>
</g>
<!-- 4&#45;&gt;5 -->
<g id="edge8" class="edge">
<title>4:s&#45;&gt;5:n</title>
<path fill="none" stroke="black" d="M1026.2,-124.07C1026.2,-124.07 414.26,-77.95 328.21,-71.46"/>
<polygon fill="black" stroke="black" points="328.43,-67.97 318.2,-70.71 327.91,-74.95 328.43,-67.97"/>
<text text-anchor="middle" x="765.2" y="-92.51" font-family="Helvetica,sans-Serif" font-size="14.00">&gt; 162.6</text>
</g>
<!-- 6 -->
<g id="node10" class="node">
<title>6</title>
<ellipse fill="#3d76cc" stroke="black" cx="1026.2" cy="-35.36" rx="318.4" ry="35.21"/>
<text text-anchor="start" x="987.2" y="-46.16" font-family="Helvetica,sans-Serif" font-weight="bold" font-size="14.00"> Class=7 </text>
<text text-anchor="start" x="1060.2" y="-46.16" font-family="Helvetica,sans-Serif" font-size="14.00"> </text>
<text text-anchor="start" x="952.2" y="-32.16" font-family="Helvetica,sans-Serif" font-size="14.00"> error: 0.321, n=367 </text>
<text text-anchor="start" x="809.2" y="-18.16" font-family="Helvetica,sans-Serif" font-size="14.00"> p: (0.00, 0.49, 0.00, 0.01, 0.00, 0.00, 0.00, 0.50, 0.00, 0.00) </text>
</g>
<!-- 4&#45;&gt;6 -->
<g id="edge9" class="edge">
<title>4:s&#45;&gt;6:n</title>
<path fill="none" stroke="black" d="M1026.2,-124.07C1026.2,-124.07 1026.2,-96.5 1026.2,-81"/>
<polygon fill="black" stroke="black" points="1029.7,-80.71 1026.2,-70.71 1022.7,-80.71 1029.7,-80.71"/>
<text text-anchor="middle" x="1061.2" y="-92.51" font-family="Helvetica,sans-Serif" font-size="14.00">&lt;= 162.6</text>
</g>
<!-- 8 -->
<g id="node11" class="node">
<title>8</title>
<ellipse fill="#3d76cc" stroke="black" cx="1734.2" cy="-35.36" rx="318.4" ry="35.21"/>
<text text-anchor="start" x="1690.7" y="-46.16" font-family="Helvetica,sans-Serif" font-weight="bold" font-size="14.00"> Class=10 </text>
<text text-anchor="start" x="1772.7" y="-46.16" font-family="Helvetica,sans-Serif" font-size="14.00"> </text>
<text text-anchor="start" x="1664.7" y="-32.16" font-family="Helvetica,sans-Serif" font-size="14.00"> error: 0.484, n=17 </text>
<text text-anchor="start" x="1517.2" y="-18.16" font-family="Helvetica,sans-Serif" font-size="14.00"> p: (0.00, 0.53, 0.06, 0.00, 0.00, 0.00, 0.00, 0.29, 0.00, 0.12) </text>
</g>
<!-- 7&#45;&gt;8 -->
<g id="edge10" class="edge">
<title>7:s&#45;&gt;8:n</title>
<path fill="none" stroke="black" d="M1641.2,-124.07C1641.2,-124.07 1702,-89.18 1725.28,-75.83"/>
<polygon fill="black" stroke="black" points="1727.27,-78.72 1734.2,-70.71 1723.78,-72.65 1727.27,-78.72"/>
<text text-anchor="middle" x="1728.7" y="-92.51" font-family="Helvetica,sans-Serif" font-size="14.00">&gt; 2131</text>
</g>
<!-- 14 -->
<g id="node16" class="node">
<title>14</title>
<polygon fill="#44e5b5" stroke="black" points="3804.2,-189.07 3354.2,-189.07 3354.2,-125.07 3804.2,-125.07 3804.2,-189.07"/>
<text text-anchor="start" x="3540.2" y="-174.87" font-family="Helvetica,sans-Serif" font-weight="bold" font-size="14.00"> Class=4 </text>
<text text-anchor="start" x="3613.2" y="-174.87" font-family="Helvetica,sans-Serif" font-size="14.00"> </text>
<text text-anchor="start" x="3505.2" y="-160.87" font-family="Helvetica,sans-Serif" font-size="14.00"> error: 0.541, n=330 </text>
<text text-anchor="start" x="3362.2" y="-146.87" font-family="Helvetica,sans-Serif" font-size="14.00"> p: (0.00, 0.01, 0.00, 0.04, 0.41, 0.17, 0.37, 0.00, 0.01, 0.00) </text>
<text text-anchor="start" x="3562.2" y="-132.87" font-family="Helvetica,sans-Serif" font-weight="bold" font-size="14.00">att6</text>
</g>
<!-- 13&#45;&gt;14 -->
<g id="edge15" class="edge">
<title>13:s&#45;&gt;14:n</title>
<path fill="none" stroke="black" d="M3788.2,-243.42C3788.2,-243.42 3630.32,-203.12 3589,-192.57"/>
<polygon fill="black" stroke="black" points="3589.75,-189.15 3579.2,-190.07 3588.02,-195.93 3589.75,-189.15"/>
<text text-anchor="middle" x="3728.2" y="-214.22" font-family="Helvetica,sans-Serif" font-size="14.00">&gt; 0</text>
</g>
<!-- 17 -->
<g id="node17" class="node">
<title>17</title>
<polygon fill="#44e5b5" stroke="black" points="4419.2,-189.07 3969.2,-189.07 3969.2,-125.07 4419.2,-125.07 4419.2,-189.07"/>
<text text-anchor="start" x="4155.2" y="-174.87" font-family="Helvetica,sans-Serif" font-weight="bold" font-size="14.00"> Class=3 </text>
<text text-anchor="start" x="4228.2" y="-174.87" font-family="Helvetica,sans-Serif" font-size="14.00"> </text>
<text text-anchor="start" x="4120.2" y="-160.87" font-family="Helvetica,sans-Serif" font-size="14.00"> error: 0.444, n=269 </text>
<text text-anchor="start" x="3977.2" y="-146.87" font-family="Helvetica,sans-Serif" font-size="14.00"> p: (0.01, 0.01, 0.00, 0.62, 0.06, 0.01, 0.27, 0.00, 0.01, 0.00) </text>
<text text-anchor="start" x="4177.2" y="-132.87" font-family="Helvetica,sans-Serif" font-weight="bold" font-size="14.00">att6</text>
</g>
<!-- 13&#45;&gt;17 -->
<g id="edge16" class="edge">
<title>13:s&#45;&gt;17:n</title>
<path fill="none" stroke="black" d="M3788.2,-243.42C3788.2,-243.42 4121.64,-199.6 4184.16,-191.38"/>
<polygon fill="black" stroke="black" points="4184.74,-194.84 4194.2,-190.07 4183.83,-187.9 4184.74,-194.84"/>
<text text-anchor="middle" x="4047.2" y="-214.22" font-family="Helvetica,sans-Serif" font-size="14.00">&lt;= 0</text>
</g>
<!-- 21 -->
<g id="node22" class="node">
<title>21</title>
<polygon fill="#44e5b5" stroke="black" points="6189.2,-189.07 5739.2,-189.07 5739.2,-125.07 6189.2,-125.07 6189.2,-189.07"/>
<text text-anchor="start" x="5925.2" y="-174.87" font-family="Helvetica,sans-Serif" font-weight="bold" font-size="14.00"> Class=8 </text>
<text text-anchor="start" x="5998.2" y="-174.87" font-family="Helvetica,sans-Serif" font-size="14.00"> </text>
<text text-anchor="start" x="5890.2" y="-160.87" font-family="Helvetica,sans-Serif" font-size="14.00"> error: 0.598, n=448 </text>
<text text-anchor="start" x="5747.2" y="-146.87" font-family="Helvetica,sans-Serif" font-size="14.00"> p: (0.00, 0.00, 0.10, 0.04, 0.11, 0.31, 0.02, 0.00, 0.44, 0.00) </text>
<text text-anchor="start" x="5947.2" y="-132.87" font-family="Helvetica,sans-Serif" font-weight="bold" font-size="14.00">att6</text>
</g>
<!-- 20&#45;&gt;21 -->
<g id="edge21" class="edge">
<title>20:s&#45;&gt;21:n</title>
<path fill="none" stroke="black" d="M5964.2,-243.42C5964.2,-243.42 5964.2,-215.86 5964.2,-200.35"/>
<polygon fill="black" stroke="black" points="5967.7,-200.07 5964.2,-190.07 5960.7,-200.07 5967.7,-200.07"/>
<text text-anchor="middle" x="5993.2" y="-214.22" font-family="Helvetica,sans-Serif" font-size="14.00">&gt; 1.452</text>
</g>
<!-- 24 -->
<g id="node23" class="node">
<title>24</title>
<polygon fill="#44e5b5" stroke="black" points="7251.2,-189.07 6801.2,-189.07 6801.2,-125.07 7251.2,-125.07 7251.2,-189.07"/>
<text text-anchor="start" x="6987.2" y="-174.87" font-family="Helvetica,sans-Serif" font-weight="bold" font-size="14.00"> Class=2 </text>
<text text-anchor="start" x="7060.2" y="-174.87" font-family="Helvetica,sans-Serif" font-size="14.00"> </text>
<text text-anchor="start" x="6952.2" y="-160.87" font-family="Helvetica,sans-Serif" font-size="14.00"> error: 0.073, n=160 </text>
<text text-anchor="start" x="6809.2" y="-146.87" font-family="Helvetica,sans-Serif" font-size="14.00"> p: (0.00, 0.01, 0.97, 0.00, 0.00, 0.02, 0.00, 0.01, 0.00, 0.00) </text>
<text text-anchor="start" x="7009.2" y="-132.87" font-family="Helvetica,sans-Serif" font-weight="bold" font-size="14.00">att5</text>
</g>
<!-- 20&#45;&gt;24 -->
<g id="edge22" class="edge">
<title>20:s&#45;&gt;24:n</title>
<path fill="none" stroke="black" d="M5964.2,-243.42C5964.2,-243.42 6907.34,-196.04 7016.03,-190.58"/>
<polygon fill="black" stroke="black" points="7016.39,-194.06 7026.2,-190.07 7016.03,-187.07 7016.39,-194.06"/>
<text text-anchor="middle" x="6625.2" y="-214.22" font-family="Helvetica,sans-Serif" font-size="14.00">&lt;= 1.452</text>
</g>
<!-- 15 -->
<g id="node18" class="node">
<title>15</title>
<ellipse fill="#3d76cc" stroke="black" cx="2778.2" cy="-35.36" rx="318.4" ry="35.21"/>
<text text-anchor="start" x="2739.2" y="-46.16" font-family="Helvetica,sans-Serif" font-weight="bold" font-size="14.00"> Class=6 </text>
<text text-anchor="start" x="2812.2" y="-46.16" font-family="Helvetica,sans-Serif" font-size="14.00"> </text>
<text text-anchor="start" x="2704.2" y="-32.16" font-family="Helvetica,sans-Serif" font-size="14.00"> error: 0.358, n=169 </text>
<text text-anchor="start" x="2561.2" y="-18.16" font-family="Helvetica,sans-Serif" font-size="14.00"> p: (0.00, 0.01, 0.00, 0.04, 0.32, 0.00, 0.63, 0.00, 0.00, 0.00) </text>
</g>
<!-- 14&#45;&gt;15 -->
<g id="edge17" class="edge">
<title>14:s&#45;&gt;15:n</title>
<path fill="none" stroke="black" d="M3579.2,-124.07C3579.2,-124.07 2881.05,-77.56 2788.33,-71.39"/>
<polygon fill="black" stroke="black" points="2788.41,-67.88 2778.2,-70.71 2787.94,-74.87 2788.41,-67.88"/>
<text text-anchor="middle" x="3299.2" y="-92.51" font-family="Helvetica,sans-Serif" font-size="14.00">&gt; 1.077e+04</text>
</g>
<!-- 16 -->
<g id="node19" class="node">
<title>16</title>
<ellipse fill="#3d76cc" stroke="black" cx="3486.2" cy="-35.36" rx="318.4" ry="35.21"/>
<text text-anchor="start" x="3447.2" y="-46.16" font-family="Helvetica,sans-Serif" font-weight="bold" font-size="14.00"> Class=4 </text>
<text text-anchor="start" x="3520.2" y="-46.16" font-family="Helvetica,sans-Serif" font-size="14.00"> </text>
<text text-anchor="start" x="3412.2" y="-32.16" font-family="Helvetica,sans-Serif" font-size="14.00"> error: 0.504, n=161 </text>
<text text-anchor="start" x="3269.2" y="-18.16" font-family="Helvetica,sans-Serif" font-size="14.00"> p: (0.00, 0.00, 0.00, 0.05, 0.50, 0.34, 0.09, 0.01, 0.01, 0.00) </text>
</g>
<!-- 14&#45;&gt;16 -->
<g id="edge18" class="edge">
<title>14:s&#45;&gt;16:n</title>
<path fill="none" stroke="black" d="M3579.2,-124.07C3579.2,-124.07 3518.39,-89.18 3495.12,-75.83"/>
<polygon fill="black" stroke="black" points="3496.61,-72.65 3486.2,-70.71 3493.13,-78.72 3496.61,-72.65"/>
<text text-anchor="middle" x="3595.2" y="-92.51" font-family="Helvetica,sans-Serif" font-size="14.00">&lt;= 1.077e+04</text>
</g>
<!-- 18 -->
<g id="node20" class="node">
<title>18</title>
<ellipse fill="#3d76cc" stroke="black" cx="4194.2" cy="-35.36" rx="318.4" ry="35.21"/>
<text text-anchor="start" x="4155.2" y="-46.16" font-family="Helvetica,sans-Serif" font-weight="bold" font-size="14.00"> Class=3 </text>
<text text-anchor="start" x="4228.2" y="-46.16" font-family="Helvetica,sans-Serif" font-size="14.00"> </text>
<text text-anchor="start" x="4120.2" y="-32.16" font-family="Helvetica,sans-Serif" font-size="14.00"> error: 0.344, n=215 </text>
<text text-anchor="start" x="3977.2" y="-18.16" font-family="Helvetica,sans-Serif" font-size="14.00"> p: (0.01, 0.00, 0.00, 0.66, 0.02, 0.00, 0.30, 0.00, 0.00, 0.00) </text>
</g>
<!-- 17&#45;&gt;18 -->
<g id="edge19" class="edge">
<title>17:s&#45;&gt;18:n</title>
<path fill="none" stroke="black" d="M4194.2,-124.07C4194.2,-124.07 4194.2,-96.5 4194.2,-81"/>
<polygon fill="black" stroke="black" points="4197.7,-80.71 4194.2,-70.71 4190.7,-80.71 4197.7,-80.71"/>
<text text-anchor="middle" x="4220.7" y="-92.51" font-family="Helvetica,sans-Serif" font-size="14.00">&gt; 9479</text>
</g>
<!-- 19 -->
<g id="node21" class="node">
<title>19</title>
<ellipse fill="#3d76cc" stroke="black" cx="4902.2" cy="-35.36" rx="318.4" ry="35.21"/>
<text text-anchor="start" x="4863.2" y="-46.16" font-family="Helvetica,sans-Serif" font-weight="bold" font-size="14.00"> Class=3 </text>
<text text-anchor="start" x="4936.2" y="-46.16" font-family="Helvetica,sans-Serif" font-size="14.00"> </text>
<text text-anchor="start" x="4832.7" y="-32.16" font-family="Helvetica,sans-Serif" font-size="14.00"> error: 0.638, n=54 </text>
<text text-anchor="start" x="4685.2" y="-18.16" font-family="Helvetica,sans-Serif" font-size="14.00"> p: (0.02, 0.04, 0.00, 0.48, 0.22, 0.06, 0.13, 0.00, 0.06, 0.00) </text>
</g>
<!-- 17&#45;&gt;19 -->
<g id="edge20" class="edge">
<title>17:s&#45;&gt;19:n</title>
<path fill="none" stroke="black" d="M4194.2,-124.07C4194.2,-124.07 4806.14,-77.95 4892.19,-71.46"/>
<polygon fill="black" stroke="black" points="4892.49,-74.95 4902.2,-70.71 4891.96,-67.97 4892.49,-74.95"/>
<text text-anchor="middle" x="4685.7" y="-92.51" font-family="Helvetica,sans-Serif" font-size="14.00">&lt;= 9479</text>
</g>
<!-- 22 -->
<g id="node24" class="node">
<title>22</title>
<ellipse fill="#3d76cc" stroke="black" cx="5610.2" cy="-35.36" rx="318.4" ry="35.21"/>
<text text-anchor="start" x="5571.2" y="-46.16" font-family="Helvetica,sans-Serif" font-weight="bold" font-size="14.00"> Class=5 </text>
<text text-anchor="start" x="5644.2" y="-46.16" font-family="Helvetica,sans-Serif" font-size="14.00"> </text>
<text text-anchor="start" x="5536.2" y="-32.16" font-family="Helvetica,sans-Serif" font-size="14.00"> error: 0.579, n=278 </text>
<text text-anchor="start" x="5393.2" y="-18.16" font-family="Helvetica,sans-Serif" font-size="14.00"> p: (0.00, 0.00, 0.02, 0.05, 0.15, 0.45, 0.03, 0.00, 0.31, 0.00) </text>
</g>
<!-- 21&#45;&gt;22 -->
<g id="edge23" class="edge">
<title>21:s&#45;&gt;22:n</title>
<path fill="none" stroke="black" d="M5964.2,-124.07C5964.2,-124.07 5678.45,-81 5620.41,-72.25"/>
<polygon fill="black" stroke="black" points="5620.61,-68.74 5610.2,-70.71 5619.56,-75.66 5620.61,-68.74"/>
<text text-anchor="middle" x="5845.7" y="-92.51" font-family="Helvetica,sans-Serif" font-size="14.00">&gt; 5851</text>
</g>
<!-- 23 -->
<g id="node25" class="node">
<title>23</title>
<ellipse fill="#3d76cc" stroke="black" cx="6318.2" cy="-35.36" rx="318.4" ry="35.21"/>
<text text-anchor="start" x="6279.2" y="-46.16" font-family="Helvetica,sans-Serif" font-weight="bold" font-size="14.00"> Class=8 </text>
<text text-anchor="start" x="6352.2" y="-46.16" font-family="Helvetica,sans-Serif" font-size="14.00"> </text>
<text text-anchor="start" x="6244.2" y="-32.16" font-family="Helvetica,sans-Serif" font-size="14.00"> error: 0.431, n=170 </text>
<text text-anchor="start" x="6101.2" y="-18.16" font-family="Helvetica,sans-Serif" font-size="14.00"> p: (0.00, 0.00, 0.22, 0.01, 0.04, 0.08, 0.00, 0.00, 0.65, 0.00) </text>
</g>
<!-- 21&#45;&gt;23 -->
<g id="edge24" class="edge">
<title>21:s&#45;&gt;23:n</title>
<path fill="none" stroke="black" d="M5964.2,-124.07C5964.2,-124.07 6249.94,-81 6307.99,-72.25"/>
<polygon fill="black" stroke="black" points="6308.83,-75.66 6318.2,-70.71 6307.79,-68.74 6308.83,-75.66"/>
<text text-anchor="middle" x="6226.7" y="-92.51" font-family="Helvetica,sans-Serif" font-size="14.00">&lt;= 5851</text>
</g>
<!-- 25 -->
<g id="node26" class="node">
<title>25</title>
<ellipse fill="#3d76cc" stroke="black" cx="7026.2" cy="-35.36" rx="318.4" ry="35.21"/>
<text text-anchor="start" x="6987.2" y="-46.16" font-family="Helvetica,sans-Serif" font-weight="bold" font-size="14.00"> Class=2 </text>
<text text-anchor="start" x="7060.2" y="-46.16" font-family="Helvetica,sans-Serif" font-size="14.00"> </text>
<text text-anchor="start" x="6956.7" y="-32.16" font-family="Helvetica,sans-Serif" font-size="14.00"> error: 0.153, n=52 </text>
<text text-anchor="start" x="6809.2" y="-18.16" font-family="Helvetica,sans-Serif" font-size="14.00"> p: (0.00, 0.02, 0.92, 0.00, 0.00, 0.04, 0.00, 0.02, 0.00, 0.00) </text>
</g>
<!-- 24&#45;&gt;25 -->
<g id="edge25" class="edge">
<title>24:s&#45;&gt;25:n</title>
<path fill="none" stroke="black" d="M7026.2,-124.07C7026.2,-124.07 7026.2,-96.5 7026.2,-81"/>
<polygon fill="black" stroke="black" points="7029.7,-80.71 7026.2,-70.71 7022.7,-80.71 7029.7,-80.71"/>
<text text-anchor="middle" x="7055.2" y="-92.51" font-family="Helvetica,sans-Serif" font-size="14.00">&gt; 1.361</text>
</g>
<!-- 26 -->
<g id="node27" class="node">
<title>26</title>
<ellipse fill="#3d76cc" stroke="black" cx="7734.2" cy="-35.36" rx="318.4" ry="35.21"/>
<text text-anchor="start" x="7695.2" y="-46.16" font-family="Helvetica,sans-Serif" font-weight="bold" font-size="14.00"> Class=2 </text>
<text text-anchor="start" x="7768.2" y="-46.16" font-family="Helvetica,sans-Serif" font-size="14.00"> </text>
<text text-anchor="start" x="7660.2" y="-32.16" font-family="Helvetica,sans-Serif" font-size="14.00"> error: 0.023, n=108 </text>
<text text-anchor="start" x="7517.2" y="-18.16" font-family="Helvetica,sans-Serif" font-size="14.00"> p: (0.00, 0.00, 0.99, 0.00, 0.00, 0.01, 0.00, 0.00, 0.00, 0.00) </text>
</g>
<!-- 24&#45;&gt;26 -->
<g id="edge26" class="edge">
<title>24:s&#45;&gt;26:n</title>
<path fill="none" stroke="black" d="M7026.2,-124.07C7026.2,-124.07 7638.14,-77.95 7724.19,-71.46"/>
<polygon fill="black" stroke="black" points="7724.49,-74.95 7734.2,-70.71 7723.96,-67.97 7724.49,-74.95"/>
<text text-anchor="middle" x="7519.2" y="-92.51" font-family="Helvetica,sans-Serif" font-size="14.00">&lt;= 1.361</text>
</g>
</g>
</svg>
