<svg width="380" height="249" viewBox="0 0 380 249" fill="none" xmlns="http://www.w3.org/2000/svg">
<path d="M278.958 170.378L379.033 82.9909L379.913 83.6718V248.059L278.958 170.378Z" fill="#FB7B5F"/>
<path d="M317.973 200.399L278.958 170.378L378.295 83.6352L379.887 85.0301V100.58L317.973 200.399Z" fill="#B3002B" fill-opacity="0.2"/>
<path d="M0.849019 82.8879L0.0869141 83.4724V248.059L96.2759 166.217L0.849019 82.8879Z" fill="#FF7A5C"/>
<path d="M93.6093 0.530689C94.0099 0.188075 94.5181 0 95.0435 0C95.5688 0 96.0771 0.188075 96.4776 0.530689L190 82.2225V248.059L0.0869141 82.2225L93.6093 0.530689Z" fill="#FFD745"/>
<path d="M286.369 0.530689C285.969 0.188075 285.46 0 284.935 0C284.409 0 283.901 0.188075 283.5 0.530689L190 82.2225V248.059L379.913 82.2225L286.369 0.530689Z" fill="#3EB182"/>
<path d="M286.369 0.530689C285.969 0.188075 285.46 0 284.935 0C284.409 0 283.901 0.188075 283.5 0.530689L190 82.2225V248.059L379.913 82.2225L286.369 0.530689Z" fill="#FFBF34"/>
<path d="M96.1084 166.36L1.67908 83.9024L0.0869141 85.2971V100.847L59.855 197.207L96.1084 166.36Z" fill="#B3002B" fill-opacity="0.2"/>
</svg>
