<?xml version="1.0" standalone="no"?>
<!DOCTYPE svg PUBLIC "-//W3C//DTD SVG 20010904//EN"
 "http://www.w3.org/TR/2001/REC-SVG-20010904/DTD/svg10.dtd">
<svg version="1.0" xmlns="http://www.w3.org/2000/svg"
 width="1608.000000pt" height="1608.000000pt" viewBox="0 0 1608.000000 1608.000000"
 preserveAspectRatio="xMidYMid meet">
<metadata>
Created by potrace 1.14, written by Peter Selinger 2001-2017
</metadata>
<g transform="translate(0.000000,1608.000000) scale(0.100000,-0.100000)"
fill="#000000" stroke="none">
<path d="M0 8040 l0 -8040 8040 0 8040 0 0 8040 0 8040 -8040 0 -8040 0 0
-8040z m15750 0 l0 -7710 -7710 0 -7710 0 0 7710 0 7710 7710 0 7710 0 0
-7710z"/>
<path d="M4035 14285 c-215 -35 -450 -134 -616 -259 -114 -86 -265 -246 -344
-366 -251 -377 -324 -865 -199 -1336 131 -497 469 -874 893 -995 278 -80 616
-23 854 143 34 24 68 47 75 51 9 7 12 -136 12 -702 l0 -711 -840 0 -840 0 0
-220 0 -220 1093 2 1092 3 3 1268 2 1267 -233 0 -233 0 -23 -47 c-179 -369
-601 -552 -912 -396 -218 109 -361 365 -410 733 -16 122 -16 431 0 535 66 425
272 699 606 805 89 28 272 38 382 21 348 -54 668 -269 829 -557 44 -79 28 -94
160 138 109 192 107 173 30 274 -206 274 -537 480 -891 554 -134 28 -367 35
-490 15z"/>
<path d="M11168 13653 l-3 -588 -312 -3 -313 -2 0 -210 0 -210 315 0 315 0 0
-1460 0 -1460 302 2 301 3 819 1458 818 1458 0 209 0 210 -850 0 -850 0 0 590
0 590 -270 0 -270 0 -2 -587z m1700 -1035 c-9 -13 -83 -144 -165 -293 -579
-1042 -910 -1753 -993 -2135 -18 -84 -19 -75 -19 1183 l-1 1267 596 0 596 0
-14 -22z"/>
<path d="M3995 6474 c-176 -18 -371 -74 -505 -146 -226 -121 -419 -318 -532
-543 -155 -309 -156 -676 -4 -949 135 -242 335 -406 646 -533 24 -10 23 -11
-30 -34 -428 -182 -705 -505 -801 -934 -21 -93 -18 -379 5 -485 59 -274 177
-497 368 -696 193 -200 428 -332 698 -390 121 -26 381 -26 505 0 471 98 854
434 1015 891 168 476 66 958 -274 1299 -115 115 -237 201 -395 279 -112 55
-121 62 -100 71 13 5 70 31 126 57 516 241 747 751 576 1274 -54 168 -143 312
-275 450 -184 193 -430 326 -686 370 -88 16 -270 26 -337 19z m302 -440 c265
-59 458 -243 535 -510 20 -68 23 -102 23 -244 -1 -173 -11 -233 -58 -345 -148
-353 -565 -520 -973 -391 -227 73 -397 251 -466 492 -20 68 -23 102 -23 244 0
142 3 176 23 244 101 351 398 551 787 529 50 -2 118 -11 152 -19z m-2 -1980
c285 -77 490 -297 571 -609 31 -123 44 -383 25 -514 -53 -359 -227 -602 -510
-710 -109 -42 -200 -55 -328 -48 -134 7 -202 25 -319 82 -202 99 -344 286
-411 544 -34 131 -44 408 -19 551 22 122 62 239 117 337 53 94 177 222 266
277 71 42 200 92 276 106 72 13 260 4 332 -16z"/>
<path d="M12100 6349 c-230 -217 -538 -340 -925 -370 -77 -5 -164 -13 -192
-15 l-53 -5 0 -200 0 -200 58 5 c31 3 95 8 142 11 182 13 406 60 550 116 41
16 81 29 88 29 9 0 12 -360 12 -1765 l0 -1765 -410 0 -410 0 0 -200 0 -200
1080 0 1080 0 0 200 0 200 -405 0 -405 0 -2 2113 -3 2112 -65 2 -65 3 -75 -71z"/>
</g>
</svg>
