<svg width="25" height="25" viewBox="0 0 25 25" fill="none" xmlns="http://www.w3.org/2000/svg">
<path d="M4.15202 5.15157C3.84328 4.90814 3.395 4.96454 3.15157 5.27329C2.90814 5.58203 2.96454 6.03031 3.27329 6.27374L20.848 20.0485C21.1567 20.2919 21.605 20.2355 21.8484 19.9268C22.0919 19.618 22.0355 19.1698 21.7267 18.9263L18.6036 16.4801C19.7792 15.2748 20.5749 13.9241 20.9756 12.9652C21.0736 12.7307 21.0736 12.4694 20.9756 12.2349C20.5333 11.1751 19.6041 9.63134 18.2147 8.34292C16.8195 7.04263 14.8987 5.95015 12.5 5.95015C10.4753 5.95015 8.78913 6.73092 7.47399 7.75512L4.15202 5.15157ZM8.63476 8.66354C9.70942 7.90058 11.0008 7.37513 12.5 7.37513C14.4356 7.37513 16.0268 8.25386 17.2469 9.38493C18.3899 10.4477 19.1796 11.7094 19.5833 12.6C19.2093 13.4313 18.4968 14.5831 17.4785 15.5954L15.8813 14.3427C16.1515 13.8202 16.3029 13.2294 16.3029 12.6C16.3029 10.5012 14.6018 8.8001 12.503 8.8001C11.547 8.8001 10.6713 9.15338 10.0033 9.73524L8.63476 8.66354ZM14.7236 13.4372L12.3041 11.5402C12.4288 11.2879 12.5 10.9999 12.5 10.7001C12.5 10.5368 12.4792 10.3765 12.4406 10.2251C12.4614 10.2251 12.4792 10.2251 12.5 10.2251C13.8122 10.2251 14.875 11.2879 14.875 12.6C14.875 12.8939 14.8215 13.176 14.7236 13.4372ZM15.0026 17.3054C14.2456 17.629 13.4114 17.8249 12.5 17.8249C10.5644 17.8249 8.97319 16.9462 7.75305 15.8151C6.6101 14.7523 5.82043 13.4906 5.41669 12.6C5.66309 12.0538 6.05496 11.368 6.58635 10.6763L5.46715 9.79461C4.79029 10.6763 4.30639 11.5551 4.02437 12.2349C3.9264 12.4694 3.9264 12.7307 4.02437 12.9652C4.4667 14.025 5.39591 15.5687 6.78526 16.8571C8.18054 18.1574 10.1013 19.2499 12.5 19.2499C13.919 19.2499 15.1689 18.867 16.2465 18.2851L15.0026 17.3054ZM8.70007 12.6C8.70007 14.6989 10.4011 16.4 12.5 16.4C12.8948 16.4 13.2748 16.3406 13.634 16.2278L11.9656 14.9156C11.268 14.7553 10.6861 14.2863 10.3714 13.6599L8.706 12.3477C8.70007 12.4308 8.6971 12.5139 8.6971 12.6H8.70007Z" fill="#CFDBE9"/>
</svg>
