<?xml version="1.0" encoding="UTF-8" standalone="no"?>
<svg
   xmlns:dc="http://purl.org/dc/elements/1.1/"
   xmlns:cc="http://creativecommons.org/ns#"
   xmlns:rdf="http://www.w3.org/1999/02/22-rdf-syntax-ns#"
   xmlns:svg="http://www.w3.org/2000/svg"
   xmlns="http://www.w3.org/2000/svg"
   xmlns:sodipodi="http://sodipodi.sourceforge.net/DTD/sodipodi-0.dtd"
   xmlns:inkscape="http://www.inkscape.org/namespaces/inkscape"
   version="1.1"
   viewBox="0 0 96 96"
   id="svg8"
   sodipodi:docname="sbMiniconda96.svg"
   inkscape:version="0.92.0 r15299"
   width="96"
   height="96">
  <metadata
     id="metadata14">
    <rdf:RDF>
      <cc:Work
         rdf:about="">
        <dc:format>image/svg+xml</dc:format>
        <dc:type
           rdf:resource="http://purl.org/dc/dcmitype/StillImage" />
        <dc:title></dc:title>
      </cc:Work>
    </rdf:RDF>
  </metadata>
  <defs
     id="defs12" />
  <sodipodi:namedview
     pagecolor="#ffffff"
     bordercolor="#666666"
     borderopacity="1"
     objecttolerance="10"
     gridtolerance="10"
     guidetolerance="10"
     inkscape:pageopacity="0"
     inkscape:pageshadow="2"
     inkscape:window-width="1684"
     inkscape:window-height="1091"
     id="namedview10"
     showgrid="false"
     inkscape:zoom="14.895833"
     inkscape:cx="24"
     inkscape:cy="24"
     inkscape:window-x="0"
     inkscape:window-y="0"
     inkscape:window-maximized="0"
     inkscape:current-layer="svg8" />
  <style
     id="style2">.st0{fill:#eff0f1}</style>
  <path
     class="st0"
     d="m 15.119324,59.620856 c -1.387863,2.773529 -2.511407,5.679181 -3.436625,8.650805 3.106227,0.858484 6.212455,1.45281 9.384656,1.71695 0.06609,-2.509458 0.264355,-4.886793 0.594804,-7.263955 -2.246983,-0.858482 -4.427993,-1.914992 -6.542852,-3.103747 z M 27.808481,27.659389 c -1.850436,0 -3.634898,0.132069 -5.485334,0.396228 0.264352,1.849019 0.528706,3.632064 0.991332,5.481084 1.255687,-2.113089 2.775654,-4.028257 4.494143,-5.745154 z M 12.93849,71.177664 c 2.379282,3.632064 5.353211,6.86776 8.723686,9.575316 -0.33045,-2.839503 -0.594804,-5.547058 -0.594804,-8.254613 -2.775828,-0.26414 -5.485334,-0.726396 -8.12904,-1.320738 z M 34.417835,8.2452129 c -3.304502,1.1226243 -6.344579,2.6414051 -9.252533,4.4904261 2.181007,0.396228 4.295867,0.858482 6.410552,1.518833 0.793078,-2.047116 1.784462,-4.028258 2.841804,-6.0093998 z M 48.03221,6 c -1.652234,0 -3.238351,0.132069 -4.82454,0.2641401 2.246983,1.5848784 4.361843,3.2358711 6.410553,5.0848899 l 1.652233,1.518835 -1.652233,1.650924 c -1.38788,1.320738 -2.709681,2.707555 -3.965296,4.226355 v 0.06604 c 0,0 -0.264352,0.26414 -0.660883,0.726396 0.991333,-0.132069 1.982736,-0.132069 3.040078,-0.132069 15.795211,0 28.615793,12.811186 28.615793,28.594524 0,15.783335 -12.821283,28.594522 -28.615793,28.594522 -5.485334,0 -10.640272,-1.518834 -15.002291,-4.226353 -2.18101,0.26414 -4.295869,0.396228 -6.476702,0.396228 -0.991333,0 -1.982736,0 -3.040078,-0.06605 0.06609,3.235871 0.396528,6.603691 0.925252,10.103631 C 31.179429,87.358595 39.242322,90 47.966883,90 71.164714,90 89.999827,71.179063 89.999827,48.000699 90.065914,24.822336 71.231213,6.0014007 48.033382,6.0014007 Z"
     id="path4"
     inkscape:connector-curvature="0"
     style="fill:#eff0f1;stroke-width:0.66063482" />
  <path
     class="st0"
     d="m 42.414576,15.903785 c 0.859156,-0.990553 1.718312,-1.981142 2.577557,-2.905653 -1.982736,-1.650921 -4.031446,-3.2358707 -6.212456,-4.5565733 -1.321784,2.2452133 -2.511406,4.6225493 -3.502774,6.9998833 1.916586,0.726414 3.767022,1.518836 5.551484,2.377335 0.859156,-1.056579 1.45396,-1.716948 1.586136,-1.914992 z M 18.821248,28.5167 c -3.106228,0.528299 -6.146307,1.386764 -9.1202348,2.44331 1.1896058,3.037597 2.7096798,6.0094 4.4279928,8.782929 1.982736,-1.386765 4.031445,-2.707556 6.146305,-3.830163 -0.660883,-2.443308 -1.123509,-4.886793 -1.453958,-7.396076 z m -5.485336,15.848786 c -2.246984,1.849018 -4.3618437,3.83016 -6.3445793,6.075373 2.1810092,1.914992 4.4941423,3.632064 6.9393993,5.216839 1.12351,-1.981142 2.379283,-3.962284 3.701048,-5.811304 -1.45396,-1.716948 -2.907954,-3.565916 -4.295868,-5.481082 z m 10.706423,19.282929 c -0.264354,2.113089 -0.462628,4.292328 -0.528707,6.537541 2.11486,0.132069 4.22972,0.132069 6.344579,0 -2.246985,-1.849021 -4.229719,-4.028258 -5.815908,-6.537541 z m 6.146305,-45.69699 c -2.643532,-0.726413 -5.353213,-1.320738 -8.062893,-1.650921 -0.264352,2.773529 -0.264352,5.481082 -0.06609,8.188463 2.181007,-0.26414 4.295869,-0.396228 6.476702,-0.396228 0.396531,-2.113089 0.991333,-4.160381 1.652234,-6.141349 z m 3.767022,1.188651 c -0.528706,1.584878 -0.991332,3.169723 -1.387879,4.754671 1.850436,-1.188651 3.833172,-2.17924 5.881881,-2.905653 -1.45396,-0.660368 -2.973927,-1.254693 -4.494142,-1.849018 z M 6.3303626,53.611 c 0.5287062,4.094234 1.6522329,7.990368 3.304501,11.556458 C 10.49402,62.790124 11.4853,60.412787 12.608792,58.167576 10.427783,56.780812 8.3790728,55.261924 6.3303626,53.611 Z M 18.424701,18.216091 c -2.511407,2.509458 -4.692242,5.282986 -6.542854,8.320586 2.181009,-0.660368 4.361844,-1.18865 6.608827,-1.584878 -0.132174,-2.245213 -0.198282,-4.490424 -0.06609,-6.735813 z m -2.511407,24.235346 c 1.05743,1.518835 2.246983,3.037599 3.502775,4.490425 0.132174,-2.641405 0.528704,-5.150863 1.321782,-7.594173 -1.652234,0.92451 -3.304502,1.981142 -4.82454,3.103748 z M 16.442,57.045494 c 1.784461,0.990553 3.568749,1.914994 5.485335,2.707555 -1.123511,-2.44331 -1.850436,-5.018742 -2.246984,-7.792271 -1.189608,1.650924 -2.246985,3.367821 -3.238351,5.084892 z M 11.551485,41.725024 C 10.229702,39.611934 9.0400778,37.432697 7.9827356,35.121334 6.7931293,38.819373 6.0661496,42.781657 6,46.809739 7.784462,44.96072 9.6348986,43.243823 11.551485,41.724849 Z"
     id="path6"
     inkscape:connector-curvature="0"
     style="fill:#eff0f1;stroke-width:0.66063482" />
</svg>
